<svg width="103" height="112" viewBox="0 0 103 112" fill="none" xmlns="http://www.w3.org/2000/svg">
<path d="M32.8584 3.48954C40.8156 0.393617 49.5496 -0.675325 58.0216 0.415181C67.3907 1.59502 76.4083 5.42411 83.7612 11.348C91.1603 17.2502 96.8391 25.2688 100.012 34.1777C103.276 43.293 103.887 53.3324 101.741 62.7742C99.5491 72.5919 94.3758 81.7102 87.1001 88.6568C87.0816 89.239 86.9058 89.8551 86.4218 90.2248C87.396 91.1335 87.544 92.5937 87.2665 93.8321C87.6488 93.4686 88.0342 93.0897 88.5059 92.8463C88.7155 92.6892 89.0793 92.8093 89.1009 93.0866C89.1225 93.4409 89.1348 93.7951 89.218 94.1463C89.4184 94.0508 89.4832 93.8259 89.5942 93.6503C90.4605 92.1501 91.5827 90.7362 93.1149 89.8767C94.3512 89.1867 95.8433 88.9279 97.2307 89.2298C98.1186 89.4485 98.9664 90.0307 99.3487 90.8809C98.8986 90.5205 98.2758 90.3326 97.7332 90.5944C96.7281 91.0565 95.9235 91.9992 95.6645 93.0743C95.4271 94.0446 96.0869 94.8764 96.3705 95.7512C96.5462 96.2719 96.3798 96.8294 96.0376 97.2422C97.0426 97.578 97.7209 98.5514 97.8658 99.5803C98.0569 100.899 97.6099 102.223 96.9871 103.372C95.7971 105.467 93.8394 106.998 91.7677 108.163C89.0886 109.669 86.0303 110.261 83.049 110.861C79.5961 111.462 76.0107 110.988 72.7304 109.808C68.9969 108.458 65.6365 106.166 62.8896 103.314C63.016 104.805 62.6491 106.456 61.4714 107.47C60.4664 108.277 58.968 108.757 57.7688 108.107C58.2435 108.039 58.8478 107.83 58.9341 107.285C59.0266 106.321 58.0339 105.76 57.9137 104.854C56.8562 104.737 56.2304 103.699 56.144 102.719C53.0487 102.987 49.935 102.99 46.8427 102.716C46.7533 103.696 46.1275 104.74 45.067 104.857C44.9498 105.763 43.954 106.324 44.0496 107.285C44.1359 107.827 44.734 108.039 45.2088 108.104C44.7001 108.44 44.0527 108.434 43.47 108.366C42.394 108.178 41.3612 107.565 40.7878 106.616C40.162 105.64 40.0201 104.441 40.0941 103.308C37.1592 106.37 33.5058 108.776 29.461 110.079C26.0389 111.172 22.3147 111.493 18.8063 110.624C16.0779 110.094 13.3217 109.41 10.9077 107.987C9.03946 106.894 7.28834 105.492 6.14764 103.628C5.45706 102.458 4.95454 101.093 5.10252 99.7159C5.21042 98.6408 5.89484 97.5965 6.94613 97.2453C6.54843 96.7863 6.43128 96.1301 6.67483 95.5695C7.01396 94.7347 7.57814 93.8752 7.29142 92.9387C6.97079 91.9006 6.18156 90.9795 5.16726 90.5636C4.63699 90.3449 4.05431 90.5421 3.63503 90.8933C3.99574 90.0523 4.82197 89.4855 5.68212 89.2483C7.30684 88.8694 9.07646 89.2637 10.4299 90.2309C11.6661 91.075 12.5879 92.2918 13.3433 93.5641C13.4697 93.7643 13.5406 94.0231 13.7656 94.1463C13.8489 93.7982 13.8643 93.4439 13.8859 93.0897C13.9013 92.8155 14.2558 92.6892 14.4716 92.8401C14.9495 93.0835 15.338 93.4655 15.7233 93.8321C15.4459 92.5937 15.5969 91.1305 16.5681 90.2248C16.2413 89.9537 16.007 89.5779 15.9515 89.1558C15.9052 88.9125 15.9453 88.6168 15.7141 88.4566C9.26143 82.2524 4.49518 74.3262 2.02264 65.7285C-0.092272 58.4399 -0.557799 50.677 0.66922 43.1883C2.13671 34.0946 6.11681 25.426 12.0515 18.3777C17.5885 11.7731 24.815 6.60087 32.8584 3.48954ZM42.1104 2.42676C33.5089 4.05944 25.3668 8.01175 18.76 13.7508C12.2303 19.3974 7.21435 26.7691 4.36261 34.914C1.68968 42.5013 0.891193 50.7355 2.0658 58.6925C2.81804 63.8339 4.37802 68.8583 6.681 73.5191C8.52769 77.2958 10.8923 80.8107 13.6053 84.0206C14.3576 83.5955 15.1561 83.2228 16.0193 83.0903C17.5114 82.8192 19.093 83.2351 20.2892 84.1592C20.9983 84.6983 21.4761 85.4592 21.8831 86.2324C21.9386 85.8412 21.9941 85.4222 22.3363 85.1727C14.6165 78.5712 9.32309 69.2248 7.57505 59.2285C5.99349 50.4121 7.17427 41.1305 10.9047 32.9856C14.3483 25.4013 19.9747 18.8275 26.9391 14.2529C34.2797 9.39799 43.0846 6.79495 51.8895 6.89352C61.3697 6.95205 70.7912 10.1527 78.3475 15.8702C85.8145 21.4521 91.41 29.4614 94.1385 38.3672C96.9409 47.4024 96.7436 57.3309 93.5835 66.2491C91.0247 73.5407 86.5359 80.1515 80.6628 85.182C80.9989 85.4407 81.0513 85.8628 81.1006 86.254C81.3658 85.7734 81.6062 85.2775 81.9731 84.8647C82.6883 83.996 83.7181 83.423 84.8002 83.155C86.3509 82.7822 88.0219 83.1642 89.3383 84.0329C94.1724 78.4911 97.6962 71.8248 99.657 64.7427C102 56.299 102.056 47.2391 99.8142 38.7677C97.4773 29.8311 92.5939 21.5722 85.8638 15.2387C79.6331 9.29633 71.8209 5.04213 63.4599 2.9905C56.4986 1.26849 49.158 1.07441 42.1104 2.42676ZM31.0271 13.3657C23.9148 17.1671 17.9153 23.0108 13.9229 30.0159C9.59748 37.5478 7.63671 46.4043 8.37354 55.0575C9.12578 64.3699 13.0196 73.3897 19.278 80.3301C24.9599 86.6883 32.5717 91.2968 40.8464 93.3731C40.683 92.9233 40.4795 92.4212 40.0201 92.1994C39.6163 91.9868 39.1754 92.2025 38.79 92.338C38.9411 91.7835 39.3727 91.38 39.8198 91.0473C39.7273 90.958 39.6224 90.8963 39.5022 90.8625C35.2015 89.5625 31.1196 87.5416 27.4694 84.9232C20.5574 79.9851 15.2516 72.8568 12.514 64.8197C10.4237 58.7449 9.78554 52.1803 10.6765 45.819C11.8295 37.3537 15.7141 29.2951 21.6118 23.1125C27.3523 17.05 34.9826 12.8081 43.1679 11.1385C49.8764 9.74609 56.9302 10.0665 63.4784 12.0657C71.7469 14.5609 79.1892 19.727 84.3747 26.6335C90.1954 34.2825 93.192 44.0169 92.6556 53.6097C92.4058 58.5724 91.2312 63.4827 89.2365 68.0296C86.0796 75.238 80.7985 81.5007 74.2225 85.8289C70.8128 88.0992 67.0454 89.7997 63.13 91.0011C63.5709 91.3677 64.0426 91.762 64.1967 92.3411C63.8114 92.2056 63.3705 91.9868 62.9728 92.1963C62.5073 92.4181 62.3038 92.9264 62.1373 93.3792C67.7206 91.9745 73.0078 89.43 77.5984 85.9613C83.6811 81.3806 88.509 75.1579 91.4347 68.1313C94.8722 59.9463 95.6923 50.6924 93.7346 42.0331C91.7954 33.2751 87.0384 25.1703 80.3237 19.2187C73.2822 12.8821 64.0857 9.0006 54.6334 8.33829C46.4975 7.72835 38.2074 9.49965 31.0271 13.3657ZM31.9397 16.6187C24.3587 20.8452 18.239 27.6224 14.8077 35.5886C11.7031 42.7231 10.7567 50.7756 12.1317 58.4369C13.0689 63.7415 15.0975 68.849 18.054 73.3528C22.7525 80.555 29.8495 86.1554 37.9546 89.0511C37.0235 87.6371 36.3853 85.9151 36.669 84.2054C36.8755 83.1642 37.4274 82.0552 38.4725 81.6455C38.9164 81.4915 39.4683 81.356 39.8937 81.627C39.3635 81.8057 38.8394 82.3695 39.0706 82.9609C39.4406 83.8912 40.7015 83.9066 41.1516 84.7784C41.9747 84.5227 42.8411 84.8832 43.4546 85.4346C43.2079 84.7969 43.1987 84.0576 43.5193 83.4445C43.7382 82.964 44.2068 82.5666 44.1791 82.0029C44.1297 81.3898 43.4453 81.0325 42.8811 81.1342C43.4392 80.2346 44.66 79.9851 45.6373 80.2131C46.9661 80.5396 48.0821 81.51 48.7326 82.696C48.785 82.7206 48.8929 82.7699 48.9453 82.7915C49.0316 81.3313 50.1107 79.9974 51.4949 79.5631C52.8699 80.0067 53.949 81.3282 54.0353 82.7884C54.0877 82.7638 54.1956 82.7206 54.248 82.696C54.8985 81.5131 56.0115 80.5396 57.3371 80.2131C58.3144 79.979 59.5384 80.2285 60.0995 81.1311C59.5692 81.0448 58.9434 81.3313 58.82 81.8827C58.7029 82.4157 59.1253 82.8346 59.3627 83.2628C59.7665 83.9066 59.8004 84.7291 59.5261 85.4315C60.1426 84.877 61.0089 84.5289 61.8352 84.7753C62.2791 83.8974 63.5493 83.8912 63.91 82.9517C64.132 82.3633 63.6141 81.8088 63.0869 81.6301C63.4661 81.3683 63.9778 81.4884 64.391 81.6086C65.5008 81.9751 66.0958 83.1303 66.3086 84.2085C66.5984 85.9213 65.9448 87.6341 65.0322 89.0573C72.2494 86.4727 78.6805 81.7595 83.3142 75.6539C88.3795 69.0277 91.2775 60.7842 91.4624 52.4483C91.6228 46.2842 90.3187 40.0862 87.6951 34.5043C83.9955 26.5688 77.586 19.9334 69.7892 15.941C65.3189 13.6399 60.4078 12.1951 55.401 11.7053C47.3268 10.892 39.0151 12.6356 31.9397 16.6187ZM49.7068 82.6529C49.6698 82.9486 49.565 83.3028 49.8055 83.5462C50.3265 84.0545 50.2433 84.954 50.9092 85.3237C51.2514 85.5578 51.7262 85.5609 52.0714 85.3268C52.7435 84.9632 52.6541 84.0607 53.1751 83.5555C53.4187 83.3059 53.3139 82.9455 53.2769 82.6436C53.1073 81.6486 52.3828 80.8076 51.4918 80.3671C50.5978 80.8107 49.8733 81.6517 49.7068 82.6529ZM44.1143 80.7121C44.4257 80.8877 44.7556 81.0818 44.9066 81.4237C45.2026 81.9875 45.0485 82.6652 44.7247 83.1827C44.4411 83.6879 43.9232 84.1931 44.1267 84.8277C44.2777 85.1666 44.4226 85.7488 44.9159 85.5824C45.1594 85.604 45.4061 85.6348 45.6496 85.6687C45.6805 84.9602 45.4492 84.2178 45.8007 83.5431C45.7082 84.2979 45.85 85.1111 46.368 85.6933C46.7873 86.1462 47.3514 86.5035 47.9711 86.5928C48.4366 86.6329 48.7881 86.2725 48.9977 85.8966C49.0995 86.7037 48.9145 87.4985 48.6185 88.2502C48.7881 88.0653 48.9607 87.8867 49.1365 87.708L49.1457 87.6556C49.4078 87.3599 49.8887 87.1535 49.8517 86.6945C49.935 85.7087 49.6082 84.6614 48.8898 83.9621C48.6216 83.7187 48.2424 83.4753 47.8694 83.6171C47.5549 83.8789 47.7245 84.3133 48.0297 84.5012C47.4408 84.6213 46.9537 83.999 47.1171 83.4507C47.1541 83.1303 47.4563 82.9578 47.5981 82.6991C46.9229 81.4853 45.5726 80.4626 44.1143 80.7121ZM55.361 82.7422C55.6538 82.9794 55.919 83.309 55.8882 83.7126C55.8882 84.2024 55.4134 84.5997 54.9263 84.5042C55.2469 84.3379 55.4319 83.8974 55.1205 83.6263C54.7567 83.4661 54.3683 83.7156 54.1 83.9559C53.2861 84.7414 52.9778 85.9552 53.1782 87.0549C53.4064 87.2521 53.6253 87.4585 53.8442 87.6679L53.8534 87.7172C54.0291 87.8928 54.1987 88.0746 54.3652 88.2594C54.0754 87.5078 53.8842 86.713 53.986 85.9028C54.1987 86.2756 54.5501 86.6391 55.0218 86.5959C55.5521 86.5282 56.0331 86.2355 56.4277 85.8905C57.0751 85.3144 57.3125 84.3872 57.1707 83.5493C57.553 84.2116 57.2909 84.9694 57.3402 85.6749C57.5838 85.6379 57.8273 85.6071 58.0709 85.5855C58.1634 85.5855 58.3484 85.5917 58.4408 85.5917C58.7646 85.182 59.0544 84.6152 58.8108 84.0976C58.4933 83.4569 57.926 82.8901 57.9198 82.1322C57.8921 81.5346 58.2744 80.9771 58.8231 80.7491C57.3711 80.4287 56.0269 81.5439 55.361 82.7422ZM37.8374 86.9471C38.4355 88.3457 39.3573 89.6272 40.5782 90.5482C40.6552 90.5328 40.8063 90.502 40.8834 90.4897C41.0283 90.4127 41.1763 90.3449 41.3304 90.2833C40.9173 90.0307 40.4795 89.7935 40.1496 89.4269C40.646 89.658 41.1177 89.9475 41.6449 90.1077C41.2348 89.6118 40.6583 89.2452 40.3932 88.6414C40.834 89.0942 41.4938 89.5532 42.1412 89.2082C42.7147 88.934 42.6807 88.2317 42.6622 87.6957C42.8596 88.1085 43.0291 88.5336 43.2603 88.9279C43.5995 89.5871 44.2808 89.9907 44.9529 90.2464C45.3352 90.3819 45.8593 90.4404 46.1398 90.0769C46.482 89.661 46.3495 89.1035 46.3341 88.6137C46.7503 89.1928 46.9599 89.8736 47.2682 90.5082C47.3206 90.3942 47.373 90.2833 47.4285 90.1724C47.4563 90.0923 47.5117 89.9321 47.5395 89.852C47.3915 88.6907 46.9476 87.4677 45.9364 86.7869C45.4215 86.4481 44.6662 86.2293 44.1328 86.6421C43.6704 87.018 44.0003 87.9236 44.6323 87.7973C44.2006 88.3734 43.4145 87.7635 43.3251 87.2182C43.3128 86.4142 42.6283 85.7087 41.8638 85.5362C41.4506 85.4161 40.8464 85.681 40.9173 86.1801C40.9019 86.5035 41.2009 86.676 41.3489 86.9255C40.5874 86.9718 40.1157 86.0568 40.4518 85.4161C40.6275 85.105 40.2267 84.8832 39.9739 84.8123C39.3727 84.6306 38.7191 84.3533 38.4232 83.7588C38.1858 83.3244 38.3122 82.8254 38.4448 82.3848C37.2794 83.5863 37.301 85.4592 37.8374 86.9471ZM64.6407 83.5739C64.4619 84.1253 63.9408 84.4858 63.4167 84.6737C63.0869 84.8061 62.6738 84.8523 62.4857 85.1974C62.5289 85.4777 62.6922 85.7426 62.6368 86.0384C62.5874 86.5343 62.1527 86.9502 61.644 86.9317C61.9832 86.6052 62.3346 85.9521 61.792 85.6348C60.9504 85.2436 60.0841 85.9891 59.7388 86.7222C59.7295 87.2213 59.5384 87.7604 59.0544 87.9883C58.8077 88.1269 58.5148 88.0222 58.3607 87.8066C58.9927 87.9298 59.3195 87.018 58.8509 86.6452C58.3761 86.2786 57.7133 86.4234 57.2262 86.6883C56.366 87.1843 55.8172 88.1054 55.6076 89.0603C55.549 89.4269 55.3394 89.8182 55.5583 90.1724C55.6076 90.2833 55.66 90.3911 55.7093 90.5051C56.0546 89.889 56.2119 89.1651 56.6836 88.6168C56.6096 89.1004 56.5171 89.661 56.8439 90.0769C57.0813 90.3973 57.5345 90.3973 57.8828 90.2956C58.4563 90.1262 58.9896 89.812 59.4089 89.39C59.822 88.8971 60.0347 88.2779 60.3215 87.7111C60.3276 88.0222 60.2937 88.3426 60.3769 88.6476C60.4972 89.0788 60.9535 89.3622 61.3943 89.3222C61.8876 89.3222 62.2421 88.9433 62.5843 88.6414C62.313 89.2483 61.7427 89.6302 61.3111 90.1108C61.8506 89.9599 62.3285 89.661 62.8341 89.4269C62.5011 89.7935 62.0572 90.0307 61.644 90.2956C61.7951 90.3542 61.9523 90.4127 62.1065 90.4743C62.1805 90.499 62.3285 90.5421 62.4025 90.5667C63.6387 89.5902 64.6099 88.2871 65.1894 86.8239C65.6796 85.3637 65.6642 83.5708 64.5544 82.3848C64.6407 82.773 64.7794 83.1796 64.6407 83.5739ZM14.5148 84.0299C15.7387 84.2732 16.9257 85.1234 17.2617 86.3649C17.4621 87.0518 17.2124 87.7419 16.9966 88.3919C16.827 88.9217 17.1477 89.4269 17.5238 89.7719C17.8475 89.775 18.1928 89.8028 18.4702 89.9907C19.1392 90.3942 19.0252 91.4878 18.4672 91.9314C18.609 91.3492 18.0695 90.7362 17.4744 90.8162C16.9781 90.9087 16.6297 91.3523 16.4663 91.8051C16.1919 92.6091 16.4047 93.484 16.7253 94.2418C17.3974 95.7636 18.5288 97.0327 19.7713 98.1171C20.2707 98.5761 20.8719 98.9088 21.4607 99.2446C21.9139 99.4633 22.3455 99.7467 22.8419 99.8576C22.0927 99.1552 21.2048 98.6192 20.4403 97.9323C19.2102 96.9249 17.9369 95.6989 17.718 94.0416C18.0725 94.4605 18.2853 94.9934 18.723 95.3385C18.9789 95.5479 19.315 95.742 19.6572 95.6342C19.9531 95.551 20.058 95.1721 19.9747 94.9072C19.7897 94.2695 19.6079 93.6103 19.7034 92.9418C19.7805 92.2672 20.3693 91.8051 20.5142 91.152C20.7516 90.3203 20.4557 89.4824 20.3848 88.6506C20.8133 89.6795 21.0692 90.7824 21.0846 91.9006C21.1709 91.8205 21.2572 91.7404 21.3466 91.6634L21.3374 91.6018C21.769 91.1058 22.29 90.7023 22.8573 90.3819C23.0885 90.2987 23.3197 90.2217 23.554 90.1509L23.5571 90.1108C23.7945 90.0615 24.035 90.0153 24.2755 89.9753C24.5745 89.3407 24.5683 88.5921 24.3155 87.9452C24.035 87.1781 23.4461 86.5836 22.8357 86.0692C22.7309 86.6514 22.3301 87.0919 22.0064 87.5632C21.7443 87.9206 21.7289 88.398 21.8923 88.8016C21.2665 88.6907 21.1832 87.9668 21.3682 87.4646C20.9798 86.8146 20.727 86.0876 20.2614 85.4839C19.7589 84.8061 19.0653 84.2578 18.2575 83.999C17.0459 83.614 15.7264 83.6848 14.5148 84.0299ZM83.1477 84.9971C82.4325 85.681 82.1026 86.6267 81.6216 87.4677C81.8004 87.9668 81.7234 88.6938 81.0975 88.8047C81.2424 88.4319 81.2548 87.9945 81.0328 87.6495C80.7122 87.1381 80.259 86.6883 80.1541 86.0722C79.6485 86.5066 79.146 86.9779 78.8408 87.5817C78.4431 88.3056 78.3537 89.2144 78.7082 89.9753C78.9487 90.0184 79.1892 90.0677 79.4266 90.117L79.4296 90.157C79.6609 90.2279 79.8952 90.3049 80.1233 90.3881C80.6937 90.7115 81.2208 91.112 81.6432 91.6172L81.6371 91.6634C81.7203 91.7466 81.8097 91.8297 81.8991 91.9129C81.9207 90.7916 82.1642 89.6765 82.6143 88.6506C82.4571 89.7134 82.118 90.9179 82.7993 91.879C83.2803 92.4797 83.419 93.2714 83.2464 94.0107C83.2032 94.5036 82.8086 95.015 83.1045 95.4956C83.3419 95.7574 83.7612 95.6989 84.0294 95.5171C84.6121 95.1875 84.868 94.5468 85.2688 94.0477C85.167 94.8979 84.7416 95.6804 84.2144 96.3396C83.0552 97.7259 81.5014 98.6931 80.148 99.8637C80.6413 99.7559 81.0698 99.4725 81.523 99.2569C82.1149 98.9211 82.7192 98.5823 83.2248 98.1233C84.347 97.1406 85.3705 96.0131 86.0611 94.6823C86.4588 93.8968 86.7548 93.0003 86.6037 92.1101C86.4896 91.5433 86.1166 90.9456 85.5154 90.8224C84.9173 90.7392 84.3778 91.3553 84.5196 91.9437C84.1158 91.6449 84.0263 91.0719 84.0849 90.6037C84.2021 89.9845 84.9019 89.7381 85.4661 89.775C85.836 89.43 86.1567 88.934 85.9933 88.4073C85.7898 87.7819 85.537 87.1258 85.7035 86.4573C85.9964 85.1912 87.1802 84.3102 88.4042 84.0483C87.954 83.8296 87.433 83.8204 86.9459 83.7618C85.5894 83.6509 84.1065 83.9713 83.1477 84.9971ZM13.9475 84.3841C14.632 85.1696 15.338 85.9398 16.0902 86.6606C16.0008 85.5301 15.1036 84.4981 13.9475 84.3841ZM86.8904 86.6883C87.6519 85.9552 88.3641 85.1696 89.0608 84.378C87.8893 84.4889 86.9767 85.5362 86.8904 86.6883ZM51.2452 86.9656C50.1292 87.3784 49.3954 88.3857 48.8559 89.3961C47.7214 91.5001 47.4532 94.0015 47.8324 96.3396C47.9834 97.3778 48.5908 98.265 49.2197 99.0782C49.7901 99.7374 50.6194 100.187 51.4949 100.233C52.2657 100.193 52.9871 99.8329 53.5451 99.3154C53.6253 99.2199 53.7671 99.1521 53.7732 99.0104C54.4792 98.2249 55.0342 97.2576 55.1729 96.1979C55.475 94.1925 55.2962 92.0793 54.5101 90.2001C53.9767 89.0203 53.3046 87.7819 52.1208 87.1443C51.8526 87.021 51.5473 86.79 51.2452 86.9656ZM24.7841 87.1812C25.188 88.0438 25.299 89.0049 25.2281 89.9506C26.711 90.0738 28.1877 91.0473 28.5824 92.529C28.8691 93.5548 28.3388 94.6823 27.4262 95.1998C29.2668 96.2102 31.1628 97.1221 33.1236 97.8707C33.8234 97.8614 34.5047 97.6458 35.1768 97.4671C37.3596 96.8017 39.4621 95.9145 41.5709 95.052C41.4938 94.8456 41.2502 94.8579 41.0807 94.7963C35.1953 93.41 29.646 90.7546 24.7841 87.1812ZM61.9092 94.8024C61.7396 94.8671 61.4868 94.8425 61.4221 95.055C63.8144 96.0192 66.1914 97.0697 68.7009 97.7012C69.1048 97.769 69.521 97.923 69.9341 97.8583C71.8671 97.1036 73.7416 96.1979 75.5698 95.2183C75.0673 94.8918 74.6295 94.4328 74.4476 93.8536C74.1578 93.0157 74.4291 92.0793 74.9748 91.4108C75.6345 90.5452 76.692 90.0615 77.7587 89.9537C77.6909 89.0141 77.7895 88.053 78.2026 87.1966C73.3408 90.767 67.7884 93.4193 61.9092 94.8024ZM5.57113 90.08C6.60084 90.5914 7.62746 91.3307 8.10532 92.412C8.53694 93.3946 8.25639 94.5314 7.67063 95.3847C7.25443 95.9145 7.39933 96.7155 7.87718 97.1529C8.89764 97.3254 9.86569 98.1356 9.9551 99.2076C9.94585 99.6604 9.74546 100.203 9.30151 100.394C9.29226 99.9438 9.32001 99.4756 9.15353 99.0505C8.84215 98.3235 7.94501 97.8522 7.18352 98.1417C6.43128 98.4282 6.02741 99.2384 5.94417 99.9962C5.82701 101.241 6.26788 102.473 6.8968 103.53C7.85252 105.058 9.26143 106.262 10.7906 107.192V107.239C11.2993 107.559 11.8326 107.864 12.403 108.067C11.5274 107.383 10.6827 106.659 9.8472 105.926C9.11037 105.258 8.38896 104.506 8.04675 103.551C8.41362 103.872 8.79899 104.657 9.37859 104.294C9.22444 103.822 9.1597 103.299 9.35701 102.827C9.58514 102.186 10.2141 101.845 10.5994 101.318C10.8245 101.031 10.9416 100.686 11.0742 100.35C11.0711 100.942 10.7875 101.487 10.4083 101.928C10.0383 102.331 9.63139 102.781 9.63139 103.366C9.62214 103.736 9.71463 104.294 10.1832 104.327C10.5686 104.198 10.5902 103.708 10.6334 103.372C10.6981 102.297 11.3394 101.392 11.6107 100.375C11.8049 99.3832 11.623 98.3697 11.6353 97.3685C11.9775 98.3789 12.1286 99.4417 12.1902 100.504C12.2673 100.4 12.3413 100.295 12.4184 100.19C12.8161 99.6296 13.3679 99.2168 13.9044 98.801C14.2312 98.6593 14.5549 98.5052 14.8971 98.3974L14.9063 98.3605C15.1591 98.3019 15.415 98.2434 15.6709 98.1972C15.9299 97.6612 16.0624 97.0697 16.0748 96.4782C16.084 95.3385 15.4705 94.2387 14.5518 93.5795C14.6196 94.2295 14.4871 94.9041 14.0863 95.4309C13.6917 96.0038 12.9209 96.4505 13.0812 97.2607C12.5325 96.9188 12.7853 96.2164 12.9117 95.7174C12.5294 93.6935 11.1636 91.9221 9.43408 90.8409C8.30263 90.1108 6.89372 89.8582 5.57113 90.08ZM93.2413 91.035C91.6659 92.1255 90.4266 93.8013 90.069 95.702C90.1861 96.2072 90.4512 96.9003 89.9025 97.2607C90.0566 96.4474 89.289 96.0008 88.8913 95.4216C88.4905 94.8949 88.361 94.2202 88.4257 93.5702C87.7197 94.0785 87.2018 94.8363 86.9922 95.6804C86.7979 96.5183 86.9336 97.424 87.3128 98.1941C87.5656 98.2372 87.8184 98.2927 88.0712 98.3543L88.0804 98.3913C88.4196 98.4991 88.7433 98.6531 89.0701 98.7948C89.6065 99.2076 90.1553 99.6204 90.553 100.178C90.627 100.28 90.704 100.387 90.7811 100.492C90.8459 99.4294 90.9908 98.3666 91.3391 97.3593C91.3422 98.3142 91.1911 99.2754 91.333 100.227C91.5241 101.142 92.0821 101.934 92.2671 102.855C92.3781 103.311 92.2979 103.831 92.6031 104.22C92.7912 104.429 93.1211 104.25 93.2167 104.035C93.488 103.44 93.3061 102.719 92.8621 102.263C92.3688 101.74 91.8941 101.105 91.9033 100.347C92.0667 100.837 92.301 101.309 92.6833 101.666C93.1458 102.097 93.6606 102.568 93.7284 103.24C93.8302 103.637 93.5681 104.029 93.6791 104.42C94.271 104.46 94.5577 103.902 94.9308 103.557C94.5978 104.475 93.9165 105.208 93.2074 105.855C92.3565 106.616 91.4809 107.356 90.5838 108.067C91.1418 107.848 91.7183 107.577 92.1869 107.214C93.7068 106.256 95.1343 105.07 96.0869 103.53C96.7158 102.473 97.1567 101.241 97.0395 99.9962C96.9563 99.2384 96.5493 98.4313 95.8002 98.1479C95.0387 97.8552 94.1385 98.3297 93.8271 99.0566C93.6606 99.4818 93.6853 99.95 93.6822 100.397C93.2691 100.236 93.0872 99.7498 93.0317 99.3431C93.0193 98.4344 93.7253 97.6365 94.5454 97.3223C94.7828 97.2145 95.1281 97.2545 95.2637 96.9896C95.6121 96.5275 95.6799 95.856 95.3131 95.3877C94.7088 94.5098 94.4375 93.3299 94.9154 92.3349C95.4117 91.3153 96.3859 90.5883 97.3879 90.1077C95.9605 89.7966 94.4252 90.194 93.2413 91.035ZM21.285 94.3712C21.1709 95.8714 21.843 97.3285 22.7771 98.4683C24.26 100.255 26.4582 101.395 28.7488 101.712C31.0333 102.032 33.361 101.595 35.5159 100.825C37.8282 99.99 39.8876 98.6069 41.8175 97.1098C41.7343 96.6631 41.7404 96.2072 41.8175 95.7636C41.1023 96.2749 40.3994 96.8048 39.6409 97.2484C37.5014 98.5391 35.0967 99.3863 32.6272 99.7559C30.1547 100.095 27.4355 99.7405 25.4377 98.1417C24.4327 97.2792 23.6034 96.0162 23.6989 94.6423C23.7205 94.0169 24.1552 93.4963 24.6855 93.2098C24.6577 94.1093 25.6104 94.9441 26.4952 94.6176C27.3677 94.3989 27.8949 93.2868 27.4355 92.5075C26.8867 91.3985 25.5549 90.8594 24.3679 91.0473C22.7309 91.2691 21.3991 92.7385 21.285 94.3712ZM40.0325 91.5556C41.0036 91.6018 41.8638 92.3627 42.0087 93.3269C42.1258 93.7859 41.984 94.4543 42.5204 94.6823C42.8164 94.6515 43.1154 94.5314 43.4114 94.633C44.028 94.784 44.4504 95.437 44.3301 96.0624C44.0527 95.6403 43.5995 95.1228 43.0353 95.3261C42.4649 95.5911 42.4526 96.3519 42.6222 96.8726C43.0445 98.1448 44.2191 98.9827 45.3876 99.528L45.4184 99.5742C45.7545 99.7066 46.0936 99.8422 46.4296 99.9777C46.146 99.605 45.8007 99.2754 45.6126 98.841C46.0812 99.186 46.5252 99.6974 47.151 99.7066C47.2867 99.2784 46.9537 98.918 46.815 98.5422C46.4913 97.8522 46.5344 97.0789 46.5159 96.3396C46.5036 95.7358 46.2786 95.1659 46.0196 94.6299C46.2107 94.8363 46.3957 95.0489 46.5807 95.2614C46.5745 95.0704 46.556 94.8825 46.5221 94.6977C46.5129 94.2942 46.5129 93.8875 46.5252 93.484C46.0597 92.757 45.5047 92.0577 44.7247 91.648C43.3127 90.767 41.4938 90.8471 40.0325 91.5556ZM57.4296 92.2364C57.0319 92.5875 56.7668 93.0465 56.4585 93.4717C56.4678 93.8783 56.4678 94.2849 56.4616 94.6946C56.4277 94.8733 56.4123 95.0581 56.4123 95.246C56.5942 95.0366 56.7791 94.8271 56.9672 94.6238C56.8315 94.9287 56.6805 95.2276 56.5972 95.551C56.3259 96.4628 56.6096 97.4517 56.2489 98.3481C56.1194 98.804 55.7093 99.2014 55.8327 99.7005C56.4616 99.7005 56.9086 99.186 57.3741 98.8379C57.1768 99.2908 56.8408 99.6573 56.4739 99.9839C56.9456 99.836 57.4019 99.645 57.8551 99.451L57.8243 99.4201C58.931 98.8687 60.0255 98.0216 60.3893 96.7894C60.5342 96.2842 60.491 95.5664 59.9453 95.3231C59.3781 95.129 58.9341 95.6403 58.6567 96.0624C58.5241 95.3877 59.0359 94.6916 59.711 94.6053C60.0532 94.5221 60.4849 94.8641 60.7284 94.4882C60.9843 94.0693 60.8733 93.5394 61.0367 93.0866C61.2648 92.2271 62.0757 91.6079 62.9543 91.5617C62.2175 91.2383 61.4313 90.9949 60.6205 91.0072C59.4459 90.9764 58.299 91.4601 57.4296 92.2364ZM75.5482 92.5136C75.095 93.3022 75.6253 94.4112 76.5008 94.6269C77.3856 94.9442 78.329 94.1062 78.3044 93.2129C78.7391 93.4717 79.1553 93.8598 79.2447 94.3835C79.4574 95.4247 78.998 96.4752 78.3753 97.2884C77.5614 98.3666 76.3251 99.0412 75.058 99.451C73.5381 99.9223 71.9134 99.9654 70.3503 99.759C68.7133 99.5156 67.1071 99.0536 65.5841 98.4036C63.9963 97.7382 62.5473 96.7925 61.1693 95.7728C61.2433 96.2164 61.2525 96.6692 61.1693 97.1128C63.0992 98.61 65.1586 99.9931 67.4708 100.825C69.6227 101.595 71.9504 102.032 74.2349 101.715C76.5286 101.401 78.7236 100.258 80.2096 98.4744C81.1469 97.3346 81.8159 95.8775 81.7049 94.3773C81.5939 92.7416 80.2559 91.2722 78.6219 91.0504C77.4288 90.8594 76.1001 91.4046 75.5482 92.5136ZM16.9997 96.4628C16.9966 97.0574 16.8733 97.6488 16.5989 98.1787C17.6779 98.3297 18.7045 98.955 19.2471 99.913C19.8298 100.942 19.8113 102.347 19.0128 103.258C19.1084 103.567 19.2996 103.835 19.5431 104.044C20.3539 104.768 21.4052 105.15 22.4442 105.424C23.8038 105.757 25.2158 105.886 26.6123 105.797C25.5333 105.56 24.4419 105.036 23.8038 104.096C23.3321 103.416 23.1841 102.485 23.5325 101.721C23.6157 101.509 23.8284 101.349 23.8562 101.118C22.9621 100.877 22.0958 100.535 21.285 100.089C19.6325 99.186 18.1034 98 16.9997 96.4628ZM85.984 96.4628C85.2749 97.464 84.3686 98.3112 83.382 99.032C82.0748 99.9777 80.6197 100.757 79.0443 101.139C79.7873 101.857 79.8089 103.074 79.2909 103.927C78.6805 104.98 77.5028 105.553 76.3529 105.809C78.3876 105.892 80.4871 105.664 82.343 104.78C82.9936 104.426 83.7335 104.007 83.9708 103.255C83.1508 102.319 83.1539 100.865 83.7859 99.8329C84.3408 98.9211 85.3397 98.3296 86.3848 98.1818C86.1104 97.6488 85.9902 97.0574 85.984 96.4628ZM39.7612 99.7128C38.7376 100.498 37.5692 101.065 36.3853 101.57C33.959 102.553 31.2892 103.043 28.6779 102.689C28.1754 102.605 27.6914 102.824 27.3615 103.2C27.3677 102.978 27.4139 102.763 27.4848 102.556C26.9021 102.565 26.4798 102.963 26.2116 103.44C26.0944 102.954 26.3503 102.513 26.7202 102.217C26.3904 102.1 26.0667 101.974 25.7584 101.82C25.3853 101.644 24.8551 101.61 24.6023 101.999C24.1799 102.655 24.4728 103.548 24.9907 104.066C25.7738 104.808 26.859 105.141 27.9134 105.227C30.1639 105.421 32.4021 104.826 34.4492 103.93C36.9557 102.818 39.2001 101.198 41.2472 99.3863C41.6171 99.0351 42.0241 98.7147 42.3293 98.3019L42.2368 98.1109C42.1751 97.9908 42.1166 97.8707 42.058 97.7536C41.3119 98.4282 40.5843 99.1275 39.7612 99.7128ZM60.9288 97.7536C60.8702 97.8707 60.8116 97.9908 60.7531 98.1109L60.6606 98.3019C60.9812 98.7363 61.4128 99.0751 61.8044 99.4417C64.4249 101.749 67.3999 103.767 70.785 104.746C72.5423 105.239 74.4352 105.473 76.2265 105.024C77.0619 104.768 77.9498 104.349 78.3722 103.542C78.625 103.027 78.7144 102.307 78.2705 101.872C77.9837 101.598 77.5552 101.678 77.2253 101.814C76.9139 101.971 76.5902 102.094 76.2635 102.211C76.6242 102.507 76.8862 102.944 76.766 103.431C76.4947 102.957 76.0754 102.562 75.4958 102.55C75.5636 102.759 75.6129 102.969 75.6191 103.191C75.2892 102.821 74.8083 102.602 74.3089 102.682C71.1704 103.098 67.9549 102.337 65.1617 100.902C63.5647 100.135 62.2144 98.955 60.9288 97.7536ZM37.0019 103.332C34.292 105.073 31.3971 106.601 28.2432 107.337C25.484 107.993 22.5922 108.243 19.7867 107.75C19.4475 107.602 19.0683 107.599 18.72 107.485C17.5454 107.171 16.3677 106.61 15.6031 105.637C14.8262 104.608 14.6597 103.181 15.0667 101.971C15.0944 101.971 15.1499 101.971 15.1807 101.968C15.526 102.766 16.306 103.443 17.2186 103.388C18.2298 103.252 18.8125 102.174 18.7785 101.222L18.723 101.185C18.572 99.7559 17.0089 98.7671 15.6401 99.0875C13.8026 99.4725 12.4338 101.262 12.3752 103.114C12.2766 104.857 13.223 106.515 14.5395 107.605C16.3029 109.065 18.5627 109.783 20.7979 110.106C25.3175 110.71 29.9358 109.487 33.8511 107.239C37.4366 105.221 40.424 102.297 42.989 99.1183C42.8565 98.9704 42.727 98.8225 42.5944 98.6777C40.8495 100.357 39.1107 102.097 37.0019 103.332ZM60.3862 98.6716C60.2567 98.8195 60.1241 98.9673 59.9947 99.1152C61.5022 100.997 63.1701 102.753 64.9952 104.331C68.1275 106.977 71.8517 109.001 75.8873 109.835C79.1399 110.519 82.6174 110.418 85.7312 109.182C87.3005 108.554 88.8018 107.587 89.7422 106.151C90.4327 105.104 90.7719 103.807 90.553 102.562C90.3248 101.145 89.3445 99.873 88.0311 99.2938C87.248 98.9488 86.3016 98.9211 85.5493 99.3555C84.8587 99.7159 84.3531 100.409 84.2607 101.188L84.2052 101.225C84.2391 101.727 84.3007 102.263 84.6429 102.664C84.9882 103.181 85.6449 103.526 86.2677 103.339C86.9829 103.178 87.5101 102.605 87.8061 101.962C87.9972 101.909 87.9571 102.177 88.0188 102.291C88.3394 103.628 87.9941 105.168 86.9459 106.105C85.9224 107.069 84.5258 107.439 83.1939 107.744C80.0185 108.292 76.7382 107.929 73.6614 107.038C70.5476 106.154 67.7391 104.478 65.0445 102.729C63.3366 101.567 61.8722 100.098 60.3862 98.6716ZM45.0022 100.434C45.3383 100.905 45.3167 101.49 45.3383 102.042C45.2797 102.128 45.2242 102.217 45.1687 102.313C45.2026 101.731 45.0608 100.973 44.438 100.754C43.692 100.443 42.8811 100.886 42.4094 101.463C41.8823 102.103 41.7682 102.96 41.7343 103.764C41.5092 103.215 41.6079 102.612 41.5832 102.036C41.3859 102.27 41.2965 102.578 41.241 102.877C40.9204 104.207 40.9974 105.748 41.9193 106.832C42.3755 107.476 43.1586 107.716 43.8708 107.966C43.5224 107.516 43.3004 106.921 43.4916 106.357C43.6365 105.741 44.2253 105.353 44.3455 104.734C43.7228 104.426 43.3929 103.514 43.9725 103.006C43.9879 103.299 43.9139 103.705 44.2438 103.865C44.8049 104.269 45.5726 103.893 45.8315 103.314C46.2878 102.488 45.9672 101.536 45.6805 100.714C45.4462 100.615 45.2242 100.526 45.0022 100.434ZM57.3156 100.708C57.0288 101.533 56.7051 102.485 57.1676 103.314C57.4266 103.89 58.1973 104.26 58.7553 103.856C59.0852 103.696 59.0019 103.283 59.0204 102.99C59.5939 103.505 59.2763 104.417 58.6505 104.728C58.7676 105.35 59.3565 105.738 59.5014 106.351C59.6925 106.912 59.4675 107.5 59.1314 107.956C59.8158 107.713 60.5743 107.491 61.0275 106.884C61.9863 105.797 62.0818 104.226 61.7519 102.87C61.7026 102.565 61.5855 102.27 61.4128 102.017C61.3851 102.596 61.4806 103.206 61.2587 103.761C61.2248 102.812 61.0367 101.752 60.2505 101.13C59.7449 100.68 58.9619 100.474 58.3576 100.85C57.8859 101.161 57.7934 101.789 57.8273 102.313C57.7688 102.223 57.7102 102.137 57.6516 102.051C57.6701 101.496 57.6485 100.911 57.9846 100.434C57.7626 100.526 57.5375 100.615 57.3156 100.708Z" fill="#523905"/>
<path d="M49.5557 93.4624C49.9102 91.7896 50.6933 90.2555 51.4918 88.7584C52.688 90.9579 53.8163 93.3699 53.6252 95.9391C53.4926 96.9403 53.2244 98.1478 52.2255 98.6315C51.3869 99.0843 50.3141 98.6161 49.8948 97.8059C49.195 96.4751 49.2381 94.8948 49.5557 93.4624ZM50.2987 95.5479C50.3696 96.2071 50.7611 96.9803 51.4918 97.0635C52.0405 97.0204 52.4321 96.5121 52.5862 96.0192C52.8822 94.9379 52.7465 93.792 52.5061 92.7138C52.281 91.6757 51.8124 90.7115 51.5164 89.6918C50.7919 91.5432 50.0058 93.5147 50.2987 95.5479Z" fill="#523905"/>
<path d="M42.1103 2.42674C49.158 1.07131 56.4985 1.26538 63.466 2.98739C71.827 5.03902 79.6392 9.29323 85.8699 15.2356C92.6031 21.5691 97.4834 29.828 99.8203 38.7646C102.062 47.236 102.006 56.2989 99.6631 64.7396C97.7023 71.8217 94.1785 78.488 89.3444 84.0298C88.028 83.158 86.3539 82.7791 84.8063 83.1519C83.7211 83.4199 82.6945 83.9929 81.9792 84.8616C81.6123 85.2744 81.3719 85.7703 81.1067 86.2509C81.0543 85.8596 81.005 85.4376 80.6689 85.1789C86.542 80.1484 91.0308 73.5345 93.5896 66.246C96.7497 57.3278 96.947 47.3993 94.1446 38.3641C91.4192 29.4583 85.8206 21.449 78.3536 15.8671C70.7942 10.1496 61.3758 6.94895 51.8957 6.89042C43.0907 6.79492 34.2858 9.39488 26.9452 14.2498C19.9808 18.8244 14.3513 25.3982 10.9108 32.9825C7.18038 41.1274 5.9996 50.409 7.58116 59.2254C9.3292 69.2248 14.6196 78.5711 22.3424 85.1696C21.9971 85.4191 21.9447 85.8381 21.8892 86.2293C21.4792 85.453 21.0013 84.6921 20.2953 84.1561C19.1022 83.232 17.5175 82.8192 16.0254 83.0872C15.1652 83.2227 14.3637 83.5924 13.6114 84.0175C10.8984 80.8045 8.5338 77.2927 6.6871 73.516C4.38105 68.8582 2.81799 63.8339 2.06574 58.6925C0.891136 50.7355 1.68654 42.5013 4.36255 34.917C7.21429 26.7721 12.2303 19.4004 18.76 13.7538C25.3668 8.01173 33.5089 4.05941 42.1103 2.42674Z" fill="url(#paint0_linear_54_9660)"/>
<path d="M44.1143 80.7122C45.5725 80.4626 46.9228 81.4854 47.6011 82.6991C47.4624 82.9579 47.1602 83.1304 47.1202 83.4508C46.9568 83.9991 47.4439 84.6214 48.0327 84.5012C47.7275 84.3133 47.5579 83.8789 47.8724 83.6171C48.2424 83.4754 48.6246 83.7188 48.8929 83.9621C49.6112 84.6614 49.9349 85.7088 49.8547 86.6945C49.8887 87.1535 49.4108 87.3599 49.1487 87.6557C49.383 86.5898 49.3831 85.2867 48.4797 84.5197C48.6 84.9787 48.899 85.5301 48.5537 85.9675C48.3256 86.2509 47.9248 86.1031 47.6628 85.9614C46.9506 85.5578 46.3433 84.9048 46.1244 84.1038C45.9301 83.4631 46.2847 82.7792 46.0072 82.1538C45.9147 81.855 45.6927 81.6271 45.4677 81.4238C45.5571 81.7903 45.6866 82.1539 45.7051 82.5358C45.7112 83.1304 45.3752 83.6571 45.2889 84.2363C45.255 84.5875 45.295 84.9417 45.3105 85.296C45.1193 84.8216 44.9744 84.2825 45.2026 83.7958C45.4554 83.2259 45.6588 82.5605 45.3197 81.9783C45.2827 82.5081 45.1378 83.0195 44.8788 83.4816C44.5181 84.1408 44.6445 84.9202 44.9189 85.5825C44.4256 85.7488 44.2808 85.1666 44.1297 84.8277C43.9262 84.1932 44.4441 83.688 44.7278 83.1827C45.0515 82.6652 45.2056 81.9875 44.9097 81.4238C44.7555 81.0818 44.4256 80.8878 44.1143 80.7122Z" fill="#F9DCA0"/>
<path d="M55.3611 82.7422C56.027 81.5439 57.3743 80.4318 58.8202 80.7491C58.2714 80.977 57.8891 81.5346 57.9169 82.1322C57.923 82.89 58.4903 83.4569 58.8078 84.0976C59.0483 84.6151 58.7585 85.182 58.4379 85.5917C58.3454 85.5917 58.1604 85.5855 58.0679 85.5855C58.2159 85.1512 58.3824 84.7014 58.3269 84.2362C58.2961 83.805 58.0741 83.4261 57.9015 83.0379C57.7442 82.7021 57.7165 82.3263 57.6548 81.9659C57.365 82.5296 57.4914 83.1642 57.7535 83.7095C58.0063 84.2208 57.8922 84.7969 57.6702 85.2959C57.6887 84.8523 57.772 84.3964 57.6425 83.9651C57.5161 83.4907 57.2756 83.0348 57.2849 82.5327C57.3064 82.1507 57.4328 81.7903 57.5223 81.4206C57.2941 81.6301 57.0752 81.8611 56.9827 82.163C56.7114 82.7853 57.066 83.4661 56.8717 84.1007C56.6436 84.9294 55.9993 85.6132 55.2439 86.0045C54.9788 86.1523 54.5564 86.2139 54.39 85.8936C54.1248 85.45 54.4054 84.9509 54.5225 84.5104C53.6131 85.2805 53.6069 86.5928 53.8504 87.6649C53.6316 87.4554 53.4127 87.249 53.1845 87.0518C52.9872 85.9552 53.2924 84.7384 54.1063 83.9528C54.3715 83.7125 54.7599 83.4661 55.1268 83.6232C55.4382 83.8943 55.2532 84.3348 54.9326 84.5012C55.4197 84.5967 55.8944 84.1993 55.8944 83.7095C55.9191 83.309 55.654 82.9794 55.3611 82.7422Z" fill="#F9DCA0"/>
<path d="M37.8375 86.9471C37.301 85.4623 37.2795 83.5894 38.4417 82.3849C38.3092 82.8285 38.1828 83.3245 38.4201 83.7588C38.7161 84.3533 39.3697 84.6306 39.9709 84.8123C40.2237 84.8832 40.6214 85.105 40.4487 85.4161C40.1127 86.0569 40.5844 86.9749 41.3459 86.9256C41.1979 86.6761 40.8988 86.5036 40.9143 86.1801C40.8434 85.678 41.4445 85.4161 41.8607 85.5363C42.6253 85.7088 43.3128 86.4142 43.3221 87.2182C43.4115 87.7666 44.1976 88.3734 44.6292 87.7974C43.9972 87.9237 43.6673 87.018 44.1298 86.6422C44.6631 86.2294 45.4185 86.445 45.9333 86.787C46.9445 87.4678 47.3885 88.6907 47.5365 89.8521C47.5087 89.9322 47.4532 90.0924 47.4255 90.1725C47.037 89.0912 46.3989 88.0561 45.4123 87.4308C45.1965 87.2768 44.9314 87.2367 44.6816 87.1843C44.9776 87.477 45.3599 87.6926 45.588 88.0469C45.7114 88.5367 45.1379 88.8324 44.7248 88.7061C44.2562 88.5798 43.7845 88.4689 43.3097 88.3796C42.8257 87.5817 42.6068 86.5066 41.6634 86.0938C41.8422 86.3834 42.0735 86.6453 42.206 86.9656C42.206 87.4647 41.6449 87.8251 41.1856 87.6433C40.4272 87.3846 40.2853 86.445 39.641 86.0384C39.4005 85.8782 39.1046 85.9706 38.8394 85.9953C38.7099 85.6595 38.599 85.3145 38.4941 84.9725C38.4541 86.4389 39.3265 87.7204 40.048 88.9341C39.0367 88.0746 38.4448 86.8424 37.9423 85.641C37.9731 86.3834 38.3061 87.0611 38.6113 87.7234C39.1015 88.7647 39.8506 89.7135 40.8711 90.2772C40.8742 90.3296 40.8803 90.4374 40.8865 90.4898C40.8094 90.5052 40.6584 90.536 40.5813 90.5483C39.3574 89.6272 38.4356 88.3426 37.8375 86.9471Z" fill="#F9DCA0"/>
<path d="M64.6407 83.574C64.7825 83.1766 64.6407 82.773 64.5575 82.3849C65.6673 83.5678 65.6827 85.3607 65.1925 86.8239C64.6129 88.2872 63.6418 89.5902 62.4055 90.5668C62.3316 90.5452 62.1836 90.499 62.1096 90.4743C62.1096 90.4251 62.1096 90.3265 62.1127 90.2741C63.352 89.6026 64.1474 88.3673 64.6592 87.0919C64.8565 86.6329 65.0291 86.1555 65.0322 85.6472C64.5451 86.8486 63.947 88.0715 62.9389 88.9279C63.6665 87.7142 64.5235 86.4296 64.4989 84.9633C64.3879 85.3083 64.2707 85.6533 64.1382 85.9922C63.8761 85.9737 63.5863 85.8813 63.3489 86.0353C62.7539 86.4111 62.5967 87.2028 61.9893 87.5633C61.6348 87.782 61.0953 87.7142 60.8856 87.3261C60.5743 86.8671 61.1292 86.4789 61.3173 86.0969C60.3739 86.5097 60.1519 87.5848 59.674 88.3827C59.1962 88.4689 58.7276 88.5767 58.259 88.7061C57.8428 88.8355 57.2724 88.5398 57.3896 88.05C57.6208 87.6957 57.9969 87.477 58.296 87.1874C57.5838 87.2614 57.0504 87.7912 56.5972 88.2933C56.1163 88.8324 55.8234 89.504 55.5521 90.1663C55.3332 89.812 55.5429 89.4177 55.6014 89.0542C55.808 88.0993 56.3599 87.1782 57.22 86.6822C57.7071 86.4204 58.3699 86.2725 58.8447 86.6391C59.3133 87.0118 58.9865 87.9237 58.3545 87.8005C58.5118 88.0161 58.8016 88.1208 59.0482 87.9822C59.5291 87.7542 59.7203 87.2182 59.7326 86.7161C60.0779 85.986 60.9473 85.2375 61.7859 85.6287C62.3285 85.9491 61.9801 86.6021 61.6379 86.9256C62.1466 86.9471 62.5813 86.5282 62.6306 86.0322C62.6861 85.7365 62.5227 85.4716 62.4795 85.1912C62.6645 84.8462 63.0807 84.8 63.4106 84.6676C63.9409 84.4858 64.4619 84.1254 64.6407 83.574Z" fill="#F9DCA0"/>
<path d="M14.5146 84.0299C15.7232 83.6849 17.0458 83.6171 18.2512 84.0052C19.0589 84.264 19.7526 84.8093 20.2551 85.4901C20.7207 86.0938 20.9735 86.8208 21.3619 87.4708C21.18 87.9699 21.2602 88.6938 21.886 88.8078C21.7257 88.4042 21.738 87.9298 22.0001 87.5694C22.3238 87.0981 22.7246 86.6576 22.8294 86.0754C23.4429 86.5898 24.0287 87.1874 24.3092 87.9514C24.562 88.5983 24.5682 89.3469 24.2691 89.9815C24.0287 90.0246 23.7913 90.0708 23.5508 90.117C23.6895 89.0542 23.5046 87.899 22.8201 87.0457C22.9126 87.7019 23.3042 88.5675 22.7307 89.1004C22.1851 89.2883 21.5931 89.3592 21.106 89.6981C20.6559 87.9021 19.509 86.3187 17.9922 85.2683C17.7394 85.0927 17.4558 84.9695 17.1722 84.8524C18.0354 85.6133 18.8955 86.4081 19.4844 87.4092C19.99 88.2194 20.2705 89.2267 20.0023 90.1663C19.6971 91.226 18.7876 91.9499 18.3684 92.9511C18.2327 93.2807 18.1926 93.6411 18.1217 93.9892C17.6099 93.4255 17.5236 92.6122 17.536 91.8821C16.9995 92.9788 17.3232 94.2634 17.8381 95.3046C18.3129 96.2965 19.0559 97.116 19.7557 97.9477C19.7557 97.9908 19.7588 98.0771 19.7618 98.1202C18.5194 97.0359 17.388 95.7667 16.7159 94.2449C16.3953 93.4871 16.1856 92.6092 16.4569 91.8082C16.6203 91.3554 16.9656 90.9118 17.465 90.8194C18.0601 90.7393 18.5996 91.3523 18.4578 91.9345C19.0158 91.4909 19.1329 90.3973 18.4608 89.9938C18.1834 89.8059 17.8381 89.7751 17.5144 89.7751C17.1382 89.4301 16.8145 88.9248 16.9872 88.395C17.203 87.745 17.4527 87.055 17.2523 86.368C16.9286 85.1204 15.7386 84.2733 14.5146 84.0299Z" fill="#F9DCA0"/>
<path d="M83.1479 84.9972C84.1067 83.9744 85.5896 83.6541 86.9461 83.7588C87.4363 83.8173 87.9542 83.8266 88.4043 84.0453C87.1773 84.3071 85.9934 85.1882 85.7036 86.4543C85.5372 87.1196 85.79 87.7789 85.9934 88.4042C86.1568 88.931 85.8331 89.427 85.4662 89.772C84.9051 89.735 84.2022 89.9815 84.0851 90.6006C84.0265 91.0658 84.1159 91.6388 84.5198 91.9407C84.378 91.3554 84.9175 90.7393 85.5156 90.8194C86.1168 90.9426 86.4898 91.5402 86.6039 92.107C86.7549 92.9973 86.459 93.8906 86.0613 94.6793C85.3707 96.01 84.3471 97.1375 83.2249 98.1202C83.1479 97.9261 83.3483 97.806 83.4438 97.6704C84.5229 96.4906 85.5187 95.0982 85.7006 93.4686C85.7807 92.9295 85.6666 92.3843 85.4539 91.8883C85.4478 92.6153 85.3738 93.4286 84.8589 93.9892C84.7726 93.5087 84.6955 93.0127 84.4335 92.5937C83.9001 91.6419 82.9845 90.8471 82.8889 89.7011C82.7532 88.4011 83.5117 87.2398 84.3194 86.2941C84.751 85.7457 85.3214 85.336 85.8146 84.8524C84.8774 85.1974 84.1344 85.8998 83.4808 86.6298C82.7039 87.5047 82.1767 88.5706 81.8746 89.698C81.3875 89.3561 80.7956 89.2914 80.2499 89.0973C79.6826 88.5613 80.0742 87.7019 80.1605 87.0457C79.4791 87.9021 79.3003 89.0542 79.4329 90.117C79.1924 90.0677 78.9519 90.0215 78.7146 89.9753C78.36 89.2144 78.4463 88.3087 78.8471 87.5817C79.1523 86.9779 79.6549 86.5066 80.1605 86.0723C80.2684 86.6884 80.7185 87.1381 81.0391 87.6495C81.2611 87.9945 81.2488 88.4289 81.1039 88.8047C81.7297 88.6938 81.8099 87.9668 81.628 87.4677C82.1027 86.6268 82.4326 85.678 83.1479 84.9972Z" fill="#F9DCA0"/>
<path d="M13.9478 84.3841C15.1039 84.4981 15.9979 85.53 16.0904 86.6606C15.3382 85.9398 14.6322 85.1696 13.9478 84.3841Z" fill="#F9DCA0"/>
<path d="M86.8906 86.6884C86.9739 85.5363 87.8864 84.489 89.061 84.3781C88.3643 85.1697 87.6521 85.9522 86.8906 86.6884Z" fill="#F9DCA0"/>
<path d="M38.9873 86.3002C39.5546 86.2047 39.8135 86.7839 40.0879 87.1628C40.3839 87.631 40.8648 88.0715 41.4598 88.0253C41.8514 88.0284 42.1227 87.7234 42.3755 87.4678C42.3323 87.7512 42.3138 88.0592 42.1381 88.2995C41.8144 88.7493 41.093 88.9125 40.649 88.5459C39.9245 87.9483 39.3696 87.1566 38.9873 86.3002Z" fill="#F9DCA0"/>
<path d="M63.2162 86.7069C63.3827 86.4389 63.6694 86.2386 63.9993 86.3033C63.6139 87.1597 63.059 87.9545 62.3284 88.5521C61.8813 88.9125 61.1661 88.7462 60.8424 88.2995C60.6666 88.0561 60.6481 87.7512 60.605 87.4708C60.9009 87.8066 61.3048 88.127 61.7858 88.0099C62.4918 87.9083 62.8432 87.2275 63.2162 86.7069Z" fill="#F9DCA0"/>
<path d="M24.7842 87.1812C29.6429 90.7546 35.1953 93.41 41.0776 94.7963C41.2472 94.8548 41.4938 94.8456 41.5678 95.052C39.4591 95.9145 37.3565 96.8017 35.1738 97.4671C34.5017 97.6458 33.8203 97.8645 33.1205 97.8706C31.1628 97.1221 29.2637 96.2102 27.4232 95.1998C28.3358 94.6823 28.866 93.5548 28.5793 92.529C28.1847 91.0442 26.7079 90.0738 25.225 89.9506C25.299 89.0049 25.188 88.0438 24.7842 87.1812Z" fill="#F9DCA0"/>
<path d="M61.909 94.8025C67.7882 93.4193 73.3406 90.767 78.2024 87.1936C77.7893 88.05 77.6907 89.0111 77.7585 89.9507C76.6918 90.0585 75.6343 90.5421 74.9746 91.4078C74.4289 92.0762 74.1576 93.0127 74.4474 93.8506C74.6293 94.4328 75.0671 94.8918 75.5696 95.2153C73.7414 96.198 71.8669 97.1037 69.9339 97.8553C69.5208 97.92 69.1046 97.766 68.7007 97.6982C66.1912 97.0667 63.8143 96.0162 61.4219 95.052C61.4866 94.8425 61.7425 94.8641 61.909 94.8025Z" fill="#F9DCA0"/>
<path d="M45.104 89.0573C45.4708 89.0326 45.7144 88.7369 45.9086 88.4597C46.1398 88.8386 46.3402 89.4085 45.961 89.7627C45.6342 90.0708 45.178 89.8397 44.8481 89.6703C44.3825 89.4023 43.8739 89.1867 43.5039 88.7924C44.0619 88.7369 44.5398 89.1836 45.104 89.0573Z" fill="#F9DCA0"/>
<path d="M57.0258 89.7597C56.6559 89.4147 56.8316 88.8417 57.0813 88.4751C57.2848 88.737 57.5191 89.0296 57.8829 89.0573C58.444 89.1836 58.9219 88.7524 59.4706 88.7739C59.15 89.1836 58.6444 89.3654 58.2128 89.6303C57.8582 89.809 57.3804 90.0893 57.0258 89.7597Z" fill="#F9DCA0"/>
<path d="M21.5008 90.1848C21.7844 89.7288 22.3732 89.7412 22.8419 89.6826C22.8665 89.9137 22.8696 90.1478 22.8573 90.3819C22.2869 90.7023 21.769 91.1058 21.3374 91.6018C21.2911 91.1305 21.1801 90.5914 21.5008 90.1848Z" fill="#F9DCA0"/>
<path d="M80.1358 89.6857C80.5828 89.7473 81.1316 89.7165 81.4337 90.12C81.8036 90.5298 81.705 91.112 81.6433 91.611C81.221 91.1058 80.6907 90.7084 80.1234 90.3819C80.1111 90.1508 80.1142 89.9167 80.1358 89.6857Z" fill="#F9DCA0"/>
<path d="M5.5708 90.08C6.89647 89.8582 8.30539 90.1077 9.43992 90.8347C11.1695 91.9129 12.5352 93.6873 12.9175 95.7112C12.788 96.2103 12.5352 96.9095 13.0871 97.2546C12.9267 96.4444 13.6975 96.0008 14.0921 95.4247C14.4929 94.898 14.6224 94.2202 14.5576 93.5733C15.4764 94.2326 16.0929 95.3323 16.0806 96.4721C16.0683 97.0636 15.9357 97.655 15.6768 98.191C15.4209 98.2372 15.165 98.2927 14.9122 98.3543C15.2606 97.2268 15.4085 95.9915 14.9214 94.8764C14.8998 95.7451 15.1465 96.8017 14.4528 97.4794C14.0829 97.883 13.5156 97.7074 13.0439 97.6951C12.7634 97.6704 12.5044 97.8091 12.2485 97.9015C11.857 95.9299 10.7656 94.1309 9.26111 92.8063C9.02988 92.606 8.77092 92.4459 8.51503 92.2826C9.74822 93.6226 10.7779 95.1999 11.265 96.9681C11.5641 98.0124 11.4438 99.1922 10.8519 100.113C10.4388 100.708 9.8407 101.136 9.36593 101.678C8.82949 101.392 8.21907 101.435 7.64255 101.345C7.16778 101.016 7.26643 100.298 7.61172 99.9069C7.8152 99.6358 8.18515 99.645 8.47803 99.5557C8.22523 99.3493 7.87069 99.3093 7.58706 99.4787C6.95813 99.8237 6.74541 100.609 6.77932 101.284C6.85023 102.599 7.6148 103.742 8.44104 104.716C9.14704 105.572 9.98252 106.305 10.7903 107.063L10.7933 107.192C9.26419 106.262 7.85528 105.058 6.89956 103.53C6.27063 102.473 5.82977 101.244 5.94692 99.9962C6.03016 99.2353 6.43403 98.4252 7.18627 98.1417C7.94776 97.8491 8.84799 98.3235 9.15629 99.0505C9.32277 99.4756 9.2981 99.9439 9.30427 100.394C9.74821 100.203 9.94861 99.6604 9.95786 99.2076C9.86845 98.1356 8.9004 97.3285 7.87994 97.1529C7.40208 96.7155 7.2541 95.9145 7.67338 95.3847C8.25914 94.5314 8.53969 93.3947 8.10808 92.412C7.62714 91.3307 6.60051 90.5914 5.5708 90.08Z" fill="#F9DCA0"/>
<path d="M93.2415 91.035C94.4253 90.194 95.9576 89.7997 97.3881 90.1046C96.3861 90.5852 95.4119 91.3091 94.9155 92.3319C94.4377 93.3269 94.709 94.5067 95.3132 95.3847C95.6832 95.8529 95.6153 96.5275 95.2639 96.9865C95.1282 97.2545 94.7829 97.2114 94.5456 97.3192C93.7255 97.6334 93.0195 98.4313 93.0318 99.3401C93.0873 99.7467 93.2692 100.233 93.6823 100.394C93.6885 99.9469 93.6638 99.4787 93.8272 99.0536C94.1386 98.3266 95.0388 97.8552 95.8003 98.1448C96.5495 98.4313 96.9534 99.2353 97.0397 99.9931C97.1568 101.238 96.716 102.47 96.087 103.526C95.1344 105.067 93.707 106.256 92.1871 107.211L92.1994 107.06C92.7667 106.496 93.3956 105.991 93.9321 105.393C94.8569 104.398 95.7757 103.302 96.1086 101.952C96.2843 101.222 96.2597 100.366 95.7603 99.7682C95.4735 99.4047 94.8878 99.2045 94.5117 99.5557C94.9063 99.6235 95.3718 99.7159 95.5321 100.141C95.8188 100.575 95.6708 101.444 95.0296 101.395C94.5425 101.364 94.0893 101.512 93.633 101.65C92.9486 100.979 92.1069 100.372 91.7956 99.4263C91.4564 98.533 91.5119 97.538 91.8141 96.6446C92.3382 95.0088 93.3062 93.5487 94.4654 92.2918C93.297 92.9911 92.4214 94.097 91.7339 95.2553C91.2437 96.0716 90.9477 96.9835 90.735 97.9045C90.288 97.6519 89.7793 97.6858 89.2891 97.7443C88.7773 97.8214 88.3396 97.3993 88.1762 96.9496C87.948 96.278 88.0559 95.5603 88.0806 94.8671C87.8247 95.4524 87.7137 96.0932 87.7476 96.7309C87.7445 97.2915 87.9696 97.8121 88.0713 98.3574C87.8185 98.2988 87.5657 98.2434 87.3129 98.1972C86.9337 97.4271 86.795 96.5245 86.9923 95.6835C87.2019 94.8394 87.7199 94.0816 88.4259 93.5733C88.3611 94.2233 88.4906 94.8979 88.8914 95.4247C89.2891 96.0038 90.0568 96.4505 89.9026 97.2638C90.4514 96.9034 90.1863 96.2102 90.0691 95.705C90.4298 93.8013 91.6692 92.1255 93.2415 91.035Z" fill="#F9DCA0"/>
<path d="M21.2851 94.3712C21.3992 92.7385 22.731 91.2691 24.365 91.0504C25.552 90.8625 26.8869 91.4047 27.4326 92.5106C27.0873 92.3134 26.7204 92.104 26.3042 92.1409C26.6125 92.3812 26.9609 92.6554 26.8776 93.099C26.3813 93.2437 25.9743 92.8772 25.5335 92.7293C25.0371 92.5198 24.439 92.6461 24.0598 93.025C23.2459 93.7736 23.1534 95.0397 23.5295 96.0285C23.9426 97.1129 24.6671 98.0679 25.5427 98.8226C27.0287 100.089 28.9895 100.597 30.8824 100.843C31.6408 100.92 32.4177 100.988 33.17 100.825C32.8832 100.791 32.5965 100.766 32.3098 100.748C32.5225 100.538 32.6674 100.193 32.9942 100.163C34.1842 100.015 35.4205 99.9254 36.518 99.4017C35.2355 99.6297 33.9253 99.947 32.6181 99.7591C35.0906 99.3894 37.4923 98.5453 39.6318 97.2515C40.3902 96.8048 41.0932 96.2781 41.8084 95.7667C41.7313 96.2134 41.7252 96.6693 41.8084 97.1129C39.8785 98.61 37.8191 99.9932 35.5068 100.828C33.3518 101.598 31.0242 102.036 28.7397 101.715C26.4491 101.401 24.2509 100.258 22.768 98.4714C21.8401 97.3285 21.1711 95.8714 21.2851 94.3712Z" fill="#F9DCA0"/>
<path d="M40.0327 91.5556C41.494 90.8471 43.313 90.767 44.7281 91.6357C45.5081 92.0454 46.063 92.7447 46.5285 93.4717C46.5162 93.8752 46.5162 94.2819 46.5254 94.6854C45.7239 93.4347 44.5277 92.3812 43.0787 91.9684C42.7519 91.8667 42.4066 91.8852 42.0706 91.916C43.017 92.2333 43.9357 92.6892 44.6602 93.3854C44.9932 93.7058 45.0888 94.1987 45.0579 94.6423C44.9901 95.3262 44.4598 95.8899 44.4876 96.5923C44.4968 97.3008 44.9439 97.8861 45.2028 98.5176C44.3612 97.9415 43.9111 96.9773 43.5658 96.0501C43.5596 96.7833 43.9172 97.4517 44.281 98.0678C44.5863 98.6008 45.0518 99.0105 45.3909 99.5188C44.2255 98.9704 43.0479 98.1325 42.6255 96.8633C42.4559 96.3427 42.4683 95.5819 43.0386 95.3169C43.6028 95.1136 44.0591 95.6281 44.3334 96.0532C44.4506 95.4278 44.0282 94.7748 43.4147 94.6238C43.1188 94.5222 42.8197 94.6423 42.5237 94.6731C41.9873 94.4451 42.1291 93.7797 42.012 93.3177C41.864 92.3627 41.0038 91.6018 40.0327 91.5556Z" fill="#F9DCA0"/>
<path d="M57.4298 92.2364C58.2961 91.4601 59.4461 90.9764 60.6207 91.0011C61.4315 90.9888 62.2177 91.2321 62.9545 91.5556C62.0758 91.6049 61.2619 92.2241 61.0369 93.0804C60.8735 93.5333 60.9876 94.0662 60.7286 94.4821C60.485 94.8548 60.0534 94.516 59.7112 94.5991C59.036 94.6854 58.5212 95.3847 58.6568 96.0562C58.9343 95.6342 59.3782 95.1228 59.9455 95.3169C60.4912 95.5603 60.5344 96.278 60.3895 96.7832C60.0257 98.0154 58.9281 98.8626 57.8244 99.414L57.7412 99.3216C58.5458 98.3974 59.3782 97.3285 59.4245 96.0562C59.0792 96.9835 58.6229 97.9477 57.7813 98.5268C58.0279 97.9323 58.4349 97.387 58.4965 96.7278C58.6075 95.8129 57.7319 95.0859 57.9508 94.1617C58.0187 93.4932 58.626 93.1082 59.1285 92.7601C59.6742 92.3781 60.3 92.144 60.9228 91.916C59.8222 91.7651 58.7894 92.3596 57.9508 93.0096C57.3682 93.4809 56.8718 94.057 56.4679 94.6885C56.4741 94.2788 56.4772 93.8721 56.4648 93.4655C56.767 93.0466 57.0352 92.5875 57.4298 92.2364Z" fill="#F9DCA0"/>
<path d="M75.548 92.5137C76.0968 91.4047 77.4286 90.8625 78.6187 91.0504C80.2557 91.2691 81.5906 92.7416 81.7016 94.3774C81.8126 95.8776 81.1436 97.3347 80.2064 98.4745C78.7204 100.261 76.5253 101.401 74.2316 101.715C71.9471 102.036 69.6195 101.598 67.4676 100.825C65.1554 99.9901 63.0959 98.61 61.166 97.1129C61.2493 96.6693 61.2431 96.2164 61.166 95.7729C62.5441 96.7925 63.9931 97.7382 65.5808 98.4036C67.1038 99.0536 68.7069 99.5157 70.3471 99.759C69.08 99.9778 67.8252 99.5742 66.5704 99.4818C67.6248 99.8823 68.7563 100.033 69.8723 100.144C70.2546 100.129 70.4365 100.501 70.6646 100.742C70.3748 100.766 70.0881 100.791 69.8014 100.831C71.0962 101.05 72.4219 100.837 73.6952 100.56C75.434 100.181 77.1388 99.3678 78.2857 97.9693C79.0996 96.9681 79.8488 95.7112 79.6175 94.3681C79.4942 93.5333 78.8653 92.6246 77.9435 92.6246C77.2776 92.5999 76.7781 93.2622 76.103 93.102C76.0105 92.6554 76.365 92.3812 76.6702 92.1348C76.2633 92.1039 75.8964 92.3165 75.548 92.5137Z" fill="#F9DCA0"/>
<path d="M25.4498 93.2561C25.9461 93.4655 26.4702 93.8013 27.019 93.5333C26.8679 94.4544 25.234 94.2511 25.2926 93.3516C25.3295 93.3269 25.4097 93.2776 25.4498 93.2561Z" fill="#F9DCA0"/>
<path d="M75.958 93.5302C76.5037 93.7951 77.0278 93.4748 77.518 93.2591C77.8294 93.2961 77.6845 93.6781 77.5334 93.8229C77.1049 94.3034 76.106 94.2418 75.958 93.5302Z" fill="#F9DCA0"/>
<path d="M45.3873 94.1894C45.8189 94.7008 46.081 95.3939 45.9453 96.0655C45.8282 96.506 45.5415 96.9003 45.5075 97.3654C45.489 97.6519 45.5168 97.9415 45.526 98.2311C45.1808 97.8491 45.0297 97.3346 44.9187 96.8448C44.817 96.2842 45.19 95.8005 45.338 95.2892C45.4582 94.9318 45.3996 94.5529 45.3873 94.1894Z" fill="#F9DCA0"/>
<path d="M57.007 95.8005C56.973 95.2091 57.2258 94.633 57.5958 94.1833C57.5064 94.787 57.6235 95.3908 57.9041 95.933C58.3018 96.7 57.9288 97.6088 57.454 98.2496C57.4632 97.8244 57.5434 97.3839 57.3954 96.9742C57.2659 96.5861 57.0193 96.2226 57.007 95.8005Z" fill="#F9DCA0"/>
<path d="M12.8224 98.1972C13.3341 98.0986 13.8675 98.1941 14.3823 98.0709C14.2251 98.3112 14.0771 98.5576 13.9107 98.7917C13.3742 99.2076 12.8224 99.6204 12.4247 100.181C12.4277 99.5249 12.2304 98.6685 12.8224 98.1972Z" fill="#F9DCA0"/>
<path d="M88.6045 98.0709C89.1163 98.1972 89.6496 98.0986 90.1614 98.1972C90.7533 98.6654 90.5591 99.5187 90.5591 100.178C90.1614 99.6204 89.6126 99.2076 89.0762 98.7948C88.9066 98.5607 88.7586 98.3143 88.6045 98.0709Z" fill="#F9DCA0"/>
<path d="M36.7524 102.057C38.7902 101.071 40.6462 99.7221 42.2339 98.111L42.3264 98.302C42.0212 98.7148 41.6173 99.0351 41.2443 99.3863C39.1972 101.195 36.9528 102.818 34.4464 103.93C32.3993 104.827 30.161 105.421 27.9105 105.227C26.8561 105.141 25.7709 104.805 24.9878 104.066C24.473 103.548 24.177 102.655 24.5994 101.999C24.8553 101.61 25.3824 101.644 25.7555 101.82C25.4472 102.097 25.0711 102.399 25.0618 102.855C25.0002 103.163 25.1636 103.434 25.3485 103.662C25.3948 103.209 25.3701 102.528 25.9466 102.424C25.8449 102.895 25.5921 103.453 25.9497 103.878C26.1439 104.164 26.5108 104.143 26.816 104.152C26.742 103.865 26.6341 103.369 27.1027 103.453C28.4623 103.637 29.7572 104.315 31.1599 104.124C33.1577 103.875 34.9705 102.926 36.7524 102.057Z" fill="#F9DCA0"/>
<path d="M60.753 98.111C62.2482 99.6266 63.9747 100.92 65.8799 101.875C67.5787 102.732 69.2989 103.604 71.1672 104.026C72.4004 104.306 73.6644 104.041 74.8452 103.659C75.3138 103.56 75.8564 103.28 76.2942 103.6C76.2418 103.776 76.1955 103.961 76.1493 104.143C76.4607 104.136 76.8337 104.164 77.031 103.872C77.3917 103.446 77.1358 102.886 77.0341 102.414C77.6137 102.522 77.586 103.206 77.6353 103.662C77.8203 103.428 77.9806 103.154 77.9189 102.843C77.9066 102.39 77.5335 102.091 77.2283 101.814C77.5582 101.678 77.9867 101.595 78.2735 101.872C78.7174 102.307 78.628 103.027 78.3752 103.542C77.9528 104.349 77.0619 104.768 76.2295 105.024C74.4383 105.473 72.5422 105.239 70.788 104.746C67.4029 103.767 64.4279 101.746 61.8074 99.4418C61.4158 99.0721 60.9842 98.7332 60.6636 98.302L60.753 98.111Z" fill="#F9DCA0"/>
<path d="M37.0019 103.332C39.1107 102.097 40.8495 100.357 42.5944 98.6716C42.7239 98.8195 42.8565 98.9673 42.989 99.1121C40.424 102.294 37.4366 105.215 33.8511 107.232C29.9358 109.484 25.3175 110.704 20.7979 110.1C18.5627 109.777 16.3029 109.059 14.5395 107.599C13.223 106.512 12.2766 104.851 12.3752 103.108C12.4338 101.256 13.8026 99.4664 15.6401 99.0813C17.0089 98.7609 18.5751 99.7498 18.723 101.179C18.3284 100.923 17.9646 100.575 17.459 100.594C17.7488 100.803 18.2544 101.099 17.98 101.521C17.6255 101.737 17.234 101.493 16.9226 101.312C16.4416 101.007 15.8867 100.68 15.2948 100.809C14.5888 101.164 14.188 101.946 14.0863 102.707C13.9075 103.896 14.3576 105.091 15.042 106.046C15.8312 107.103 16.9041 107.944 18.1188 108.462C19.204 108.92 20.3755 109.127 21.5378 109.275C23.4554 109.466 25.4408 109.537 27.3122 109.013C26.6648 108.927 26.0142 109.065 25.3637 109.016C25.7244 108.375 26.5445 108.523 27.1519 108.369C28.2648 108.129 29.424 107.95 30.4383 107.414C27.6112 108.104 24.6762 108.465 21.7659 108.172C21.0969 108.076 20.394 108.058 19.7836 107.747C22.5891 108.24 25.4809 107.99 28.2401 107.334C31.4002 106.601 34.2951 105.076 37.0019 103.332Z" fill="#F9DCA0"/>
<path d="M60.3862 98.6716C61.8722 100.098 63.3366 101.567 65.0445 102.735C67.7421 104.485 70.5476 106.16 73.6614 107.044C76.7413 107.935 80.0185 108.295 83.1939 107.75C82.7037 108.012 82.1426 108.046 81.6062 108.129C78.5756 108.498 75.4958 108.147 72.5454 107.411C73.2082 107.815 73.9882 107.944 74.7312 108.144C75.4865 108.344 76.2665 108.425 77.0342 108.566C77.3085 108.588 77.4627 108.834 77.6261 109.025C76.9725 109.059 76.3189 108.951 75.6684 108.998C76.7351 109.367 77.882 109.398 79.0011 109.42C80.7245 109.416 82.4633 109.238 84.1188 108.745C85.8946 108.187 87.5101 106.983 88.3918 105.326C88.8974 104.377 89.1101 103.231 88.7833 102.186C88.5891 101.629 88.2376 101.077 87.6889 100.816C86.949 100.655 86.3385 101.188 85.725 101.503C85.4568 101.657 84.945 101.697 84.9173 101.284C84.9481 100.936 85.3027 100.788 85.537 100.591C85.0314 100.582 84.6552 100.93 84.2606 101.195C84.3531 100.415 84.8556 99.7221 85.5493 99.3616C86.3015 98.9273 87.248 98.955 88.0311 99.3C89.3444 99.8792 90.3248 101.151 90.5529 102.568C90.7749 103.813 90.4358 105.11 89.7421 106.157C88.8018 107.593 87.3004 108.56 85.7312 109.189C82.6174 110.424 79.1398 110.522 75.8873 109.842C71.8548 109.004 68.1275 106.98 64.9952 104.337C63.1732 102.759 61.5022 101.004 59.9946 99.1214C60.1272 98.9673 60.2567 98.8195 60.3862 98.6716Z" fill="#F9DCA0"/>
<path d="M28.9155 100.159C30.047 100.159 31.1784 100.273 32.3129 100.221C32.2297 100.492 31.9091 100.529 31.6717 100.575C30.7345 100.665 29.8188 100.372 28.9155 100.159Z" fill="#F9DCA0"/>
<path d="M71.3062 100.221C72.228 100.277 73.1468 100.138 74.0686 100.147C72.971 100.397 71.7255 100.905 70.6465 100.335C70.8068 100.138 71.0843 100.237 71.3062 100.221Z" fill="#F9DCA0"/>
<path d="M45.0022 100.434C45.2242 100.526 45.4492 100.618 45.6743 100.711C45.961 101.533 46.2816 102.482 45.8253 103.311C45.5664 103.89 44.7987 104.266 44.2376 103.862C43.9077 103.702 43.9848 103.295 43.9663 103.003C43.3867 103.514 43.7197 104.426 44.3394 104.731C44.2191 105.353 43.6303 105.741 43.4854 106.354C43.2942 106.915 43.5162 107.513 43.8646 107.962C43.1524 107.716 42.3693 107.473 41.9131 106.829C40.9943 105.741 40.9142 104.204 41.2348 102.873C41.3643 104.146 41.614 105.584 42.6869 106.422C42.3478 105.677 42.058 104.9 41.9871 104.078C42.2584 104.001 42.5667 103.985 42.7855 103.788C43.1987 103.391 43.3004 102.769 43.7351 102.39C43.9632 102.196 44.3486 102.082 44.586 102.319C44.922 102.627 44.6446 103.089 44.5922 103.456C45.1409 103.237 45.4523 102.612 45.3352 102.039C45.3167 101.49 45.3382 100.905 45.0022 100.434Z" fill="#F9DCA0"/>
<path d="M57.3154 100.708C57.5373 100.615 57.7624 100.526 57.9844 100.431C57.6483 100.905 57.6699 101.493 57.6514 102.048C57.5373 102.615 57.8425 103.237 58.3913 103.45C58.3481 103.104 58.1046 102.71 58.3358 102.393C58.5239 102.1 58.9432 102.15 59.1867 102.341C59.6769 102.704 59.7694 103.376 60.2041 103.788C60.4199 103.989 60.7282 104.001 60.9964 104.075C60.9348 104.897 60.6357 105.671 60.3058 106.419C61.3725 105.578 61.6223 104.146 61.7487 102.873C62.0785 104.226 61.986 105.8 61.0242 106.887C60.5679 107.494 59.8126 107.719 59.1281 107.959C59.4642 107.503 59.6892 106.915 59.4981 106.354C59.3532 105.738 58.7613 105.353 58.6472 104.731C59.2761 104.42 59.5937 103.508 59.0171 102.994C58.9987 103.286 59.0788 103.699 58.752 103.859C58.194 104.263 57.4263 103.893 57.1643 103.317C56.7049 102.485 57.0256 101.533 57.3154 100.708Z" fill="#F9DCA0"/>
<path d="M15.785 101.805C15.6987 101.475 16.0964 101.373 16.3245 101.515C16.8548 101.777 17.4036 102.146 18.0263 101.968C17.5577 102.84 16.1118 102.713 15.785 101.805Z" fill="#F9DCA0"/>
<path d="M42.9583 101.629C43.4546 101.265 44.2809 101.225 44.6539 101.789C44.2809 101.758 43.8708 101.715 43.5533 101.955C43.06 102.26 42.875 102.833 42.539 103.271C42.4034 103.453 42.166 103.496 41.9902 103.351C42.1382 102.701 42.4095 102.039 42.9583 101.629Z" fill="#F9DCA0"/>
<path d="M58.3237 101.792C58.6937 101.228 59.5199 101.262 60.0194 101.626C60.562 102.029 60.8425 102.682 60.9843 103.329C60.9288 103.366 60.8209 103.443 60.7654 103.48C60.1581 103.209 60.0903 102.433 59.5662 102.057C59.2363 101.737 58.7553 101.731 58.3237 101.792Z" fill="#F9DCA0"/>
<path d="M86.6624 101.515C86.8875 101.373 87.2821 101.469 87.205 101.798C86.8782 102.71 85.4262 102.846 84.9668 101.965C85.5865 102.15 86.1322 101.771 86.6624 101.515Z" fill="#F9DCA0"/>
<path d="M7.44531 101.823C7.8646 101.959 8.30854 101.962 8.73091 102.082C8.98679 102.14 8.89739 102.411 8.83265 102.587C8.68775 103.009 8.72166 103.459 8.72474 103.896C8.21297 103.265 7.73819 102.587 7.44531 101.823Z" fill="#F9DCA0"/>
<path d="M94.0522 102.18C94.5116 101.94 95.0511 101.986 95.5382 101.826C95.2515 102.593 94.7644 103.262 94.265 103.905C94.2958 103.317 94.2311 102.738 94.0522 102.18Z" fill="#F9DCA0"/>
<path d="M31.0271 13.3657C38.2073 9.49965 46.4974 7.72835 54.6333 8.33213C64.0826 8.99444 73.2822 12.8759 80.3236 19.2125C87.0414 25.1641 91.7953 33.269 93.7345 42.0269C95.6922 50.6863 94.8721 59.9402 91.4346 68.1251C88.5058 75.1518 83.681 81.3744 77.5983 85.9552C73.0078 89.4239 67.7174 91.9684 62.1373 93.3731C62.3037 92.9202 62.5072 92.412 62.9727 92.1902C63.3735 91.9807 63.8113 92.1963 64.1967 92.3349C64.0425 91.7558 63.5708 91.3615 63.13 90.9949C67.0453 89.7966 70.8096 88.0931 74.2225 85.8227C80.8015 81.4946 86.0795 75.235 89.2365 68.0234C91.2342 63.4766 92.4089 58.5632 92.6555 53.6035C93.1919 44.0077 90.1953 34.2763 84.3747 26.6274C79.1891 19.7208 71.7468 14.5579 63.4783 12.0596C56.927 10.0603 49.8732 9.73993 43.1678 11.1323C34.9825 12.802 27.3522 17.0439 21.6117 23.1063C15.714 29.2889 11.8295 37.3507 10.6765 45.8129C9.78548 52.1741 10.4237 58.7387 12.5139 64.8135C15.2516 72.8506 20.5604 79.982 27.4693 84.917C31.1196 87.5355 35.2014 89.5532 39.5021 90.8563C39.6224 90.8902 39.7272 90.9518 39.8197 91.0411C39.3727 91.3738 38.9441 91.7774 38.79 92.3319C39.1784 92.1963 39.6162 91.9776 40.0201 92.1932C40.4764 92.415 40.6798 92.9172 40.8463 93.3669C32.5717 91.2906 24.9598 86.6822 19.2779 80.324C13.0195 73.3836 9.12881 64.3638 8.37348 55.0514C7.63666 46.3982 9.59742 37.5417 13.9228 30.0098C17.9152 23.0108 23.9147 17.1671 31.0271 13.3657Z" fill="url(#paint1_linear_54_9660)"/>
<path d="M50.2987 95.548C50.0089 93.5148 50.7919 91.5464 51.5134 89.6919C51.8093 90.7115 52.2779 91.6727 52.503 92.7139C52.7435 93.7921 52.8791 94.938 52.5831 96.0193C52.4321 96.5122 52.0375 97.0204 51.4887 97.0636C50.7611 96.9804 50.3665 96.2072 50.2987 95.548Z" fill="#F5C35F"/>
<path d="M49.7066 82.6529C49.8731 81.6517 50.5976 80.8107 51.4885 80.3641C52.3826 80.8046 53.104 81.6456 53.2736 82.6406C53.3106 82.9455 53.4185 83.3029 53.1718 83.5524C53.0485 82.8038 52.6385 82.12 52.0157 81.6825C52.2408 82.083 52.5491 82.4588 52.6138 82.9271C52.6231 83.2228 52.3364 83.4846 52.0435 83.3799C51.6766 83.2844 51.3036 83.2844 50.9367 83.3799C50.6438 83.4815 50.3571 83.2197 50.3663 82.924C50.428 82.4557 50.7363 82.0799 50.9644 81.6825C50.3386 82.1138 49.9378 82.8008 49.8052 83.5432C49.5648 83.2998 49.6696 82.9486 49.7066 82.6529Z" fill="#F9DCA0"/>
<path d="M50.4189 83.7403C50.7827 83.9098 51.1373 83.7311 51.4918 83.6387C51.8464 83.7342 52.1978 83.9098 52.5616 83.7403C52.4105 84.2363 52.0652 84.7692 51.4887 84.7908C50.9184 84.7661 50.57 84.2363 50.4189 83.7403Z" fill="#F9DCA0"/>
<path d="M51.2454 86.9656C51.5444 86.7931 51.8527 87.0241 52.124 87.1443C53.3048 87.7789 53.98 89.0203 54.5133 90.2002C55.2995 92.0793 55.4783 94.1925 55.1761 96.1979C55.0374 97.2576 54.4825 98.2249 53.7765 99.0105C53.8536 98.5545 54.0879 98.1479 54.1804 97.6981C54.4763 96.5214 54.4208 95.2892 54.1834 94.1093C54.3006 92.9295 54.723 91.6634 54.1834 90.5205C53.832 89.7165 52.9503 89.4177 52.3429 88.8601C52.0038 88.5552 51.7479 88.1793 51.4951 87.8066C51.1529 88.3395 50.7521 88.854 50.2157 89.2051C49.6792 89.5625 49.075 89.9106 48.8067 90.5298C48.3412 91.5463 48.5879 92.6954 48.779 93.7458C48.8746 94.1833 48.7019 94.6115 48.6588 95.0427C48.557 95.9946 48.6064 96.9711 48.8622 97.8953C48.964 98.2927 49.1798 98.6624 49.226 99.0782C48.594 98.268 47.9898 97.3808 47.8387 96.3396C47.4595 94.0015 47.7277 91.5001 48.8622 89.3961C49.3987 88.3857 50.1324 87.3784 51.2454 86.9656Z" fill="#F9DCA0"/>
<path d="M49.1302 90.8625C49.3553 90.1663 50.0335 89.7904 50.6008 89.4054C49.9503 90.5328 49.4817 91.7466 49.0809 92.9818C49.0007 92.2826 48.9083 91.5463 49.1302 90.8625Z" fill="#F9DCA0"/>
<path d="M52.3828 89.4023C52.9131 89.7751 53.5513 90.1139 53.8102 90.7454C54.0969 91.457 53.9829 92.2456 53.9027 92.988C53.5081 91.7466 53.0333 90.5329 52.3828 89.4023Z" fill="#F9DCA0"/>
<path d="M49.7773 98.5268C50.7423 99.3216 52.2283 99.337 53.1933 98.533C52.848 99.1306 52.2067 99.5989 51.5007 99.6112C50.7793 99.6081 50.1442 99.1183 49.7773 98.5268Z" fill="#F9DCA0"/>
<path d="M45.4682 81.4268C45.6933 81.6302 45.9152 81.8581 46.0077 82.1569C46.2821 82.7823 45.9276 83.4662 46.1249 84.1069C46.3438 84.9078 46.9511 85.564 47.6633 85.9645C47.9253 86.1062 48.3292 86.254 48.5542 85.9706C48.8995 85.5332 48.6005 84.9818 48.4802 84.5228C49.3836 85.2867 49.3836 86.5929 49.1492 87.6588L49.14 87.7111C48.9643 87.8898 48.7916 88.0715 48.6221 88.2533C48.918 87.5047 49.103 86.7099 49.0013 85.8998C48.7916 86.2725 48.4402 86.6329 47.9746 86.596C47.355 86.5066 46.7939 86.1493 46.3715 85.6965C45.8536 85.1142 45.7117 84.301 45.8042 83.5463C45.4559 84.2178 45.6871 84.9633 45.6532 85.6718C45.4096 85.6379 45.163 85.6071 44.9194 85.5856C44.645 84.9202 44.5186 84.1439 44.8793 83.4846C45.1383 83.0195 45.2832 82.5081 45.3202 81.9813C45.6563 82.5636 45.4559 83.229 45.2031 83.7989C44.9749 84.2887 45.1198 84.8277 45.311 85.2991C45.2955 84.9448 45.2555 84.5905 45.2894 84.2394C45.3757 83.6602 45.7117 83.1335 45.7056 82.5389C45.684 82.1538 45.5576 81.7934 45.4682 81.4268Z" fill="#F5C35F"/>
<path d="M56.9735 82.1661C57.066 81.8643 57.2879 81.6332 57.513 81.4237C57.4267 81.7903 57.3003 82.1538 57.2756 82.5358C57.2664 83.0379 57.5068 83.4939 57.6332 83.9683C57.7658 84.4026 57.6826 84.8585 57.661 85.299C57.883 84.8 57.997 84.2239 57.7442 83.7126C57.4822 83.1673 57.3558 82.5327 57.6456 81.969C57.7072 82.3294 57.735 82.7022 57.8922 83.041C58.0648 83.4292 58.2899 83.805 58.3176 84.2393C58.3731 84.7045 58.2067 85.1542 58.0587 85.5886C57.8151 85.6102 57.5685 85.641 57.328 85.6779C57.2818 84.9725 57.5407 84.2147 57.1585 83.5524C57.3034 84.3903 57.066 85.3175 56.4155 85.8936C56.0208 86.2386 55.5399 86.5312 55.0096 86.599C54.5379 86.6421 54.1865 86.2786 53.9738 85.9059C53.8689 86.7161 54.0601 87.5109 54.353 88.2625C54.1865 88.0777 54.0169 87.8959 53.8412 87.7203L53.8319 87.671C53.5884 86.599 53.5946 85.2867 54.504 84.5166C54.3869 84.9571 54.1063 85.4561 54.3715 85.8997C54.5379 86.2232 54.9603 86.1585 55.2254 86.0106C55.9808 85.6194 56.622 84.9386 56.8532 84.1069C57.0598 83.4692 56.7053 82.7884 56.9735 82.1661Z" fill="#F5C35F"/>
<path d="M17.1816 84.8493C17.4653 84.9663 17.7489 85.0896 18.0017 85.2652C19.5185 86.3156 20.6654 87.9021 21.1155 89.695C21.6026 89.3561 22.1945 89.2852 22.7402 89.0973C23.3137 88.5644 22.9221 87.6988 22.8296 87.0426C23.514 87.8959 23.699 89.0511 23.5603 90.1139L23.5572 90.154C23.3229 90.2248 23.0917 90.3018 22.8605 90.385C22.8728 90.1509 22.8697 89.9168 22.845 89.6857C22.3764 89.7442 21.7845 89.7288 21.504 90.1878C21.1833 90.5914 21.2943 91.1336 21.3406 91.608L21.3498 91.6696C21.2604 91.7466 21.1741 91.8267 21.0878 91.9068C21.0723 90.7885 20.8165 89.6857 20.3879 88.6568C20.4588 89.4855 20.7517 90.3265 20.5174 91.1582C20.3694 91.8082 19.7837 92.2734 19.7066 92.948C19.611 93.6165 19.7929 94.2788 19.9779 94.9134C20.0611 95.1783 19.9594 95.5572 19.6603 95.6404C19.3181 95.7513 18.9821 95.5541 18.7262 95.3446C18.2884 94.9996 18.0757 94.4667 17.7212 94.0477C17.94 95.7051 19.2133 96.9311 20.4434 97.9384C21.208 98.6254 22.0959 99.1614 22.845 99.8638C22.3487 99.7529 21.9171 99.4695 21.4639 99.2507C20.875 98.915 20.2739 98.5823 19.7744 98.1233C19.7713 98.0801 19.7682 97.9939 19.7682 97.9508C19.0684 97.1159 18.3254 96.2996 17.8506 95.3077C17.3358 94.2665 17.0121 92.9819 17.5485 91.8852C17.5362 92.6153 17.6225 93.4286 18.1343 93.9923C18.2052 93.6442 18.2453 93.2868 18.3809 92.9542C18.8002 91.953 19.7128 91.226 20.0149 90.1694C20.2831 89.2267 20.0026 88.2225 19.4969 87.4123C18.9019 86.405 18.0449 85.6133 17.1816 84.8493ZM19.0129 94.6608C19.0992 94.8764 19.1794 95.1321 19.426 95.2183C19.2041 94.4667 19.1332 93.6935 19.1486 92.911C18.7909 93.4162 18.8033 94.097 19.0129 94.6608Z" fill="#F5C35F"/>
<path d="M83.4776 86.6268C84.1311 85.8967 84.8741 85.1943 85.8114 84.8493C85.3181 85.3329 84.7477 85.7426 84.3161 86.291C83.5084 87.2336 82.7531 88.3981 82.8856 89.698C82.9812 90.844 83.8968 91.6418 84.4302 92.5906C84.6922 93.0127 84.7662 93.5086 84.8556 93.9861C85.3705 93.4224 85.4445 92.6122 85.4506 91.8852C85.6665 92.3812 85.7805 92.9233 85.6973 93.4655C85.5185 95.0951 84.5196 96.4906 83.4406 97.6674C83.345 97.8029 83.1446 97.92 83.2217 98.1171C82.7161 98.5792 82.1118 98.915 81.5199 99.2507C81.0698 99.4695 80.6412 99.7529 80.1449 99.8576C81.4952 98.6839 83.0521 97.7197 84.2113 96.3335C84.7385 95.6743 85.1639 94.8918 85.2657 94.0416C84.8618 94.5375 84.6059 95.1814 84.0263 95.511C83.755 95.6927 83.3388 95.7543 83.1014 95.4894C82.8055 95.0119 83.2001 94.5006 83.2433 94.0046C83.4159 93.2622 83.2772 92.4705 82.7962 91.8729C82.1149 90.9118 82.4571 89.7073 82.6112 88.6445C82.1611 89.6734 81.9207 90.7855 81.896 91.9068C81.8097 91.8236 81.7203 91.7373 81.6339 91.6572L81.6401 91.611C81.6987 91.112 81.8004 90.5298 81.4305 90.1201C81.1314 89.7165 80.5796 89.7473 80.1325 89.6857C80.111 89.9168 80.1079 90.1509 80.1202 90.385C79.889 90.3018 79.6578 90.2248 79.4265 90.154L79.4235 90.1139C79.2909 89.0511 79.4697 87.899 80.151 87.0426C80.0647 87.6988 79.6732 88.5582 80.2404 89.0943C80.7861 89.2883 81.3781 89.353 81.8652 89.695C82.1704 88.5706 82.7006 87.5047 83.4776 86.6268ZM83.8413 92.9233C83.8568 93.7089 83.7704 94.4852 83.5639 95.243C83.8506 95.0951 83.9338 94.7655 84.0325 94.4852C84.1681 93.9738 84.1774 93.3608 83.8413 92.9233Z" fill="#F5C35F"/>
<path d="M40.0454 88.9309C39.324 87.7172 38.4515 86.4357 38.4916 84.9694C38.5995 85.3113 38.7105 85.6563 38.8369 85.9921C39.102 85.9706 39.398 85.8751 39.6385 86.0352C40.2828 86.4419 40.4246 87.3814 41.183 87.6402C41.6424 87.822 42.2035 87.4615 42.2035 86.9625C42.0709 86.6421 41.8397 86.3803 41.6609 86.0907C42.6043 86.5066 42.8232 87.5817 43.3072 88.3764C43.782 88.4658 44.2537 88.5736 44.7223 88.703C45.1354 88.8293 45.7088 88.5336 45.5855 88.0438C45.3574 87.6895 44.9751 87.4739 44.6791 87.1812C44.9319 87.2336 45.194 87.2736 45.4098 87.4277C46.3963 88.053 47.0345 89.0881 47.4229 90.1693C47.3675 90.2802 47.315 90.3911 47.2626 90.5051C46.9543 89.8736 46.7447 89.1897 46.3285 88.6106C46.3439 89.1004 46.4765 89.6579 46.1343 90.0738C45.8537 90.4373 45.3296 90.3788 44.9473 90.2432C44.2752 89.9876 43.5939 89.5871 43.2548 88.9248C43.0205 88.5305 42.854 88.1023 42.6567 87.6926C42.6783 88.2286 42.7091 88.9309 42.1357 89.2051C41.4882 89.547 40.8285 89.0911 40.3876 88.6383C40.6558 89.239 41.2324 89.6087 41.6393 90.1046C41.1121 89.9444 40.6404 89.6579 40.1441 89.4238C40.474 89.7873 40.9117 90.0245 41.3249 90.2802C41.1738 90.3418 41.0227 90.4096 40.8778 90.4866C40.8747 90.4342 40.8686 90.3264 40.8624 90.2741C39.8419 89.7103 39.0959 88.7615 38.6026 87.7203C38.2974 87.058 37.9644 86.3803 37.9336 85.6379C38.4423 86.8393 39.0342 88.0715 40.0454 88.9309ZM38.988 86.3002C39.3703 87.1566 39.9252 87.9452 40.6528 88.5459C41.0967 88.9094 41.8181 88.7492 42.1418 88.2994C42.3176 88.0592 42.3361 87.7511 42.3792 87.4677C42.1264 87.7203 41.8551 88.0253 41.4636 88.0253C40.8686 88.0715 40.3876 87.631 40.0917 87.1627C39.8142 86.7838 39.5552 86.2047 38.988 86.3002ZM45.1046 89.0572C44.5435 89.1866 44.0625 88.7369 43.5076 88.7892C43.8775 89.1866 44.3862 89.4023 44.8518 89.6672C45.1816 89.8397 45.6379 90.0677 45.9647 89.7596C46.3439 89.4053 46.1435 88.8324 45.9123 88.4565C45.7119 88.7369 45.4714 89.0295 45.1046 89.0572Z" fill="#F5C35F"/>
<path d="M64.502 84.9602C64.5235 86.4265 63.6696 87.7142 62.942 88.9248C63.9501 88.0715 64.5482 86.8485 65.0353 85.644C65.0291 86.1493 64.8596 86.6298 64.6623 87.0888C64.1505 88.3642 63.3551 89.6025 62.1157 90.271C62.1157 90.3203 62.1127 90.4219 62.1127 90.4712C61.9585 90.4096 61.8044 90.348 61.6502 90.2926C62.0633 90.0276 62.5073 89.7904 62.8402 89.4239C62.3346 89.658 61.8568 89.9537 61.3173 90.1077C61.7489 89.6272 62.3223 89.2452 62.5905 88.6383C62.2483 88.9371 61.8907 89.3191 61.4005 89.3191C60.9596 89.3622 60.5034 89.0758 60.3831 88.6445C60.2999 88.3395 60.3338 88.0191 60.3276 87.708C60.0409 88.2748 59.8282 88.8909 59.4151 89.3869C58.9927 89.8089 58.4594 90.1231 57.889 90.2926C57.5375 90.3942 57.0844 90.3942 56.85 90.0738C56.5202 89.6549 56.6127 89.0973 56.6897 88.6137C56.218 89.162 56.0608 89.8859 55.7155 90.502C55.6662 90.3911 55.6138 90.2802 55.5645 90.1693C55.8358 89.507 56.1255 88.8355 56.6096 88.2964C57.0628 87.7912 57.5961 87.2613 58.3083 87.1905C58.0092 87.48 57.6331 87.6988 57.4019 88.053C57.2817 88.5428 57.8551 88.8386 58.2713 88.7092C58.7368 88.5829 59.2085 88.472 59.6864 88.3857C60.1673 87.5848 60.3862 86.5128 61.3296 86.1C61.1415 86.4789 60.5835 86.8701 60.898 87.3291C61.1076 87.7172 61.6471 87.785 62.0017 87.5663C62.609 87.2059 62.7662 86.4111 63.3613 86.0384C63.5986 85.8874 63.8885 85.9768 64.1505 85.9952C64.2738 85.6502 64.391 85.3052 64.502 84.9602ZM63.2164 86.7068C62.8433 87.2274 62.4919 87.9082 61.789 88.013C61.308 88.13 60.9041 87.8066 60.6082 87.4739C60.6513 87.7542 60.6698 88.0592 60.8456 88.3025C61.1662 88.7492 61.8845 88.9156 62.3316 88.5551C63.0591 87.9575 63.6171 87.1627 64.0025 86.3064C63.6696 86.2386 63.3828 86.4388 63.2164 86.7068ZM57.0258 89.7596C57.3803 90.0892 57.8613 89.8089 58.2127 89.6272C58.6443 89.3653 59.1499 89.1805 59.4706 88.7708C58.9187 88.7492 58.4409 89.1805 57.8828 89.0542C57.5221 89.0295 57.2847 88.7369 57.0813 88.472C56.8315 88.8416 56.6527 89.4146 57.0258 89.7596Z" fill="#F5C35F"/>
<path d="M42.0703 91.9191C42.4064 91.8883 42.7516 91.8698 43.0784 91.9715C44.5274 92.3843 45.7236 93.4378 46.5252 94.6885C46.5591 94.8733 46.5745 95.0613 46.5838 95.2523C46.3988 95.0397 46.2138 94.8271 46.0227 94.6207C46.2816 95.1568 46.5067 95.7267 46.519 96.3304C46.5375 97.0698 46.4944 97.843 46.8181 98.533C46.9537 98.9119 47.2867 99.2693 47.1541 99.6974C46.5283 99.6882 46.0843 99.1768 45.6157 98.8318C45.8038 99.2662 46.1522 99.5958 46.4327 99.9685C46.0967 99.833 45.7575 99.6975 45.4215 99.565L45.3907 99.5188C45.0546 99.0105 44.586 98.6008 44.2808 98.0678C43.917 97.4517 43.5594 96.7833 43.5655 96.0501C43.9108 96.9773 44.364 97.9385 45.2026 98.5176C44.9436 97.8861 44.4966 97.3008 44.4874 96.5923C44.4596 95.8899 44.9899 95.3262 45.0577 94.6423C45.0885 94.1987 44.993 93.7027 44.66 93.3855C43.9324 92.6923 43.0168 92.2364 42.0703 91.9191ZM45.3876 94.1895C45.3999 94.553 45.4585 94.9319 45.3383 95.2861C45.1903 95.8006 44.8203 96.2811 44.919 96.8418C45.03 97.3316 45.181 97.8461 45.5263 98.228C45.5171 97.9385 45.4893 97.6489 45.5078 97.3624C45.5417 96.8973 45.8284 96.5029 45.9456 96.0624C46.0812 95.394 45.8192 94.6978 45.3876 94.1895Z" fill="#F5C35F"/>
<path d="M57.9446 93.0127C58.7831 92.3627 59.8159 91.7682 60.9165 91.9191C60.2938 92.1471 59.6679 92.3812 59.1222 92.7632C58.6197 93.1113 58.0155 93.4964 57.9446 94.1648C57.7257 95.0921 58.6012 95.816 58.4902 96.7309C58.4317 97.3871 58.0247 97.9354 57.775 98.5299C58.6197 97.9508 59.0729 96.9866 59.4182 96.0594C59.3689 97.3316 58.5396 98.4006 57.7349 99.3247L57.8181 99.4171L57.849 99.4479C57.3927 99.642 56.9395 99.833 56.4678 99.9809C56.8347 99.6574 57.1707 99.2878 57.368 98.8349C56.9025 99.1861 56.4555 99.6975 55.8266 99.6975C55.7032 99.1984 56.1133 98.798 56.2428 98.3451C56.6035 97.4487 56.3198 96.4598 56.5911 95.548C56.6744 95.2245 56.8285 94.9227 56.9611 94.6208C56.773 94.8241 56.5911 95.0336 56.4062 95.243C56.4062 95.0551 56.4216 94.8734 56.4555 94.6916C56.8655 94.0601 57.3619 93.484 57.9446 93.0127ZM57.0073 95.8006C57.0197 96.2226 57.2694 96.5831 57.3958 96.9743C57.5468 97.384 57.4667 97.8245 57.4544 98.2496C57.9291 97.6089 58.3022 96.7001 57.9045 95.9331C57.6239 95.3909 57.5068 94.7871 57.5962 94.1833C57.2262 94.6362 56.9734 95.2091 57.0073 95.8006Z" fill="#F5C35F"/>
<path d="M26.3045 92.1409C26.7176 92.1039 27.0845 92.3134 27.4329 92.5105C27.8891 93.293 27.365 94.4051 26.4926 94.6207C25.6077 94.9472 24.6551 94.1124 24.6829 93.2129C24.1526 93.4994 23.7179 94.02 23.6963 94.6453C23.6007 96.0193 24.427 97.2792 25.4351 98.1448C27.4329 99.7436 30.1551 100.098 32.6246 99.759C33.9317 99.9469 35.242 99.6266 36.5245 99.4017C35.427 99.9254 34.1907 100.015 33.0007 100.163C32.6739 100.193 32.529 100.538 32.3163 100.748C32.603 100.766 32.8897 100.791 33.1764 100.825C32.4242 100.988 31.6473 100.92 30.8889 100.843C28.9928 100.597 27.0321 100.086 25.5492 98.8225C24.6705 98.0678 23.9491 97.1098 23.536 96.0285C23.1599 95.0397 23.2524 93.7736 24.0663 93.025C24.4455 92.6492 25.0436 92.5198 25.5399 92.7293C25.9808 92.8802 26.3877 93.2437 26.8841 93.0989C26.9612 92.6553 26.6128 92.3812 26.3045 92.1409ZM25.4505 93.256C25.4104 93.2807 25.3334 93.3269 25.2933 93.3515C25.2347 94.251 26.8687 94.4544 27.0197 93.5333C26.4679 93.8013 25.9469 93.4655 25.4505 93.256ZM28.9158 100.159C29.8191 100.375 30.7347 100.668 31.6719 100.575C31.9093 100.529 32.2299 100.492 32.3132 100.221C31.1787 100.273 30.0472 100.159 28.9158 100.159Z" fill="#F5C35F"/>
<path d="M75.5486 92.5137C75.8969 92.3165 76.2607 92.107 76.6769 92.1378C76.3717 92.3843 76.0172 92.6584 76.1097 93.1051C76.7848 93.2653 77.2843 92.603 77.9502 92.6276C78.872 92.6276 79.5009 93.5333 79.6242 94.3712C79.8524 95.7143 79.1032 96.9681 78.2924 97.9724C77.1455 99.3709 75.4407 100.184 73.7019 100.563C72.4286 100.84 71.1029 101.05 69.8081 100.834C70.0948 100.797 70.3815 100.769 70.6713 100.745C70.4432 100.505 70.2613 100.129 69.879 100.147C68.7599 100.036 67.6315 99.8854 66.5771 99.4849C67.835 99.5773 69.0898 99.9809 70.3538 99.7621C71.9199 99.9655 73.5446 99.9254 75.0615 99.4541C76.3286 99.0444 77.5648 98.3697 78.3787 97.2916C79.0015 96.4752 79.4639 95.4278 79.2481 94.3866C79.1556 93.8629 78.7425 93.4748 78.3078 93.216C78.3325 94.1094 77.3891 94.9473 76.5043 94.63C75.6287 94.4113 75.0954 93.3023 75.5486 92.5137ZM75.9586 93.5302C76.1066 94.2388 77.1024 94.3035 77.534 93.8198C77.6851 93.675 77.83 93.293 77.5186 93.2561C77.0284 93.4748 76.5074 93.7952 75.9586 93.5302ZM71.3064 100.221C71.0875 100.237 70.8101 100.138 70.6497 100.338C71.7288 100.908 72.9712 100.4 74.0718 100.15C73.1469 100.138 72.2282 100.277 71.3064 100.221Z" fill="#F5C35F"/>
<path d="M8.51248 92.2857C8.76836 92.449 9.02733 92.6091 9.25855 92.8094C10.76 94.134 11.8544 95.933 12.2459 97.9046C12.5018 97.8121 12.7608 97.6704 13.0413 97.6982C13.513 97.7105 14.0803 97.883 14.4503 97.4825C15.1439 96.8048 14.8973 95.7451 14.9189 94.8795C15.406 95.9916 15.258 97.2299 14.9096 98.3574L14.9004 98.3944C14.5582 98.5022 14.2345 98.6562 13.9077 98.7979C14.0741 98.5638 14.2221 98.3174 14.3794 98.0771C13.8676 98.2003 13.3311 98.1048 12.8194 98.2034C12.2274 98.6747 12.4248 99.528 12.4217 100.187C12.3446 100.289 12.2706 100.397 12.1935 100.501C12.135 99.4387 11.9808 98.3759 11.6386 97.3655C11.6232 98.3666 11.8082 99.3801 11.6139 100.372C11.3426 101.389 10.7014 102.294 10.6366 103.369C10.5935 103.705 10.5688 104.195 10.1865 104.324C9.71791 104.29 9.62234 103.736 9.63467 103.363C9.63467 102.778 10.0416 102.331 10.4116 101.925C10.7908 101.487 11.0744 100.939 11.0775 100.347C10.9449 100.68 10.8278 101.028 10.6027 101.315C10.2174 101.841 9.58843 102.186 9.36029 102.824C9.16298 103.292 9.22772 103.816 9.38187 104.29C8.80227 104.654 8.4169 103.868 8.05003 103.548C8.38916 104.503 9.11365 105.255 9.85048 105.923C10.686 106.656 11.5307 107.38 12.4063 108.064C11.8359 107.861 11.3026 107.559 10.7939 107.235V107.189L10.7908 107.06C9.98305 106.302 9.14756 105.569 8.44157 104.713C7.61533 103.739 6.85076 102.593 6.77985 101.281C6.74594 100.609 6.95558 99.8237 7.58759 99.4756C7.87122 99.3062 8.22268 99.3462 8.47856 99.5526C8.18568 99.642 7.81264 99.6327 7.61225 99.9038C7.26696 100.295 7.1683 101.013 7.64308 101.342C8.21959 101.435 8.83002 101.389 9.36646 101.675C9.84123 101.133 10.4393 100.705 10.8524 100.11C11.4475 99.1891 11.5646 98.0093 11.2656 96.965C10.7754 95.2029 9.74566 93.6257 8.51248 92.2857ZM7.44577 101.823C7.73865 102.587 8.21034 103.265 8.7252 103.896C8.72212 103.459 8.6882 103.006 8.8331 102.587C8.89785 102.411 8.98725 102.14 8.73137 102.082C8.31208 101.962 7.86505 101.959 7.44577 101.823Z" fill="#F5C35F"/>
<path d="M91.737 95.2522C92.4245 94.094 93.3001 92.9911 94.4685 92.2888C93.3124 93.5456 92.3413 95.0058 91.8172 96.6415C91.515 97.5349 91.4595 98.5299 91.7987 99.4233C92.11 100.369 92.9517 100.976 93.6361 101.647C94.0924 101.509 94.5456 101.361 95.0327 101.392C95.6739 101.441 95.8219 100.575 95.5352 100.138C95.3749 99.7128 94.9094 99.6204 94.5148 99.5526C94.894 99.2015 95.4766 99.4017 95.7634 99.7652C96.2628 100.366 96.2875 101.222 96.1117 101.949C95.7788 103.299 94.86 104.395 93.9352 105.39C93.3956 105.988 92.7698 106.49 92.2025 107.057L92.1902 107.208C91.7216 107.571 91.1451 107.842 90.5871 108.061C91.4842 107.353 92.3598 106.61 93.2107 105.849C93.9197 105.202 94.6042 104.466 94.934 103.551C94.561 103.896 94.2712 104.454 93.6824 104.414C93.5714 104.022 93.8365 103.631 93.7317 103.234C93.6639 102.562 93.149 102.091 92.6866 101.66C92.3043 101.302 92.07 100.831 91.9066 100.341C91.8973 101.099 92.3721 101.734 92.8654 102.257C93.3093 102.716 93.4912 103.437 93.2199 104.029C93.1243 104.247 92.7945 104.426 92.6064 104.213C92.2981 103.825 92.3813 103.302 92.2704 102.849C92.0854 101.931 91.5274 101.136 91.3362 100.221C91.1944 99.2692 91.3455 98.3081 91.3424 97.3531C90.994 98.3605 90.8491 99.4263 90.7844 100.486C90.7073 100.381 90.6302 100.273 90.5562 100.172C90.5593 99.5126 90.7535 98.6624 90.1585 98.191C89.6468 98.0925 89.1134 98.188 88.6016 98.0647C88.7558 98.305 88.9038 98.5545 89.0702 98.7887C88.7404 98.647 88.4197 98.4929 88.0806 98.3851L88.0714 98.3482C87.9696 97.8029 87.7446 97.2823 87.7477 96.7216C87.7137 96.084 87.8247 95.4432 88.0806 94.8579C88.0559 95.551 87.9511 96.2688 88.1762 96.9403C88.3396 97.3901 88.7743 97.8121 89.2891 97.7351C89.7793 97.6766 90.2849 97.6427 90.735 97.8953C90.9509 96.9804 91.2468 96.0686 91.737 95.2522ZM94.0523 102.18C94.2311 102.738 94.2959 103.317 94.265 103.902C94.7645 103.259 95.2516 102.593 95.5383 101.823C95.0512 101.986 94.5148 101.94 94.0523 102.18Z" fill="#F5C35F"/>
<path d="M39.7615 99.7128C40.5847 99.1306 41.3123 98.4313 42.0553 97.7536C42.1138 97.8707 42.1724 97.9908 42.2341 98.111C40.6463 99.7221 38.7904 101.071 36.7526 102.057C34.9706 102.926 33.1578 103.875 31.1662 104.121C29.7635 104.312 28.4656 103.634 27.1091 103.45C26.6374 103.366 26.7453 103.862 26.8223 104.149C26.5171 104.14 26.1503 104.164 25.956 103.875C25.5984 103.45 25.8512 102.889 25.9529 102.421C25.3764 102.525 25.398 103.206 25.3549 103.659C25.1668 103.431 25.0034 103.16 25.0681 102.852C25.0774 102.396 25.4535 102.097 25.7618 101.817C26.0732 101.974 26.3969 102.1 26.7237 102.214C26.3537 102.51 26.0978 102.95 26.215 103.437C26.4863 102.96 26.9056 102.562 27.4883 102.553C27.4174 102.759 27.3711 102.975 27.3649 103.197C27.6948 102.821 28.1788 102.602 28.6814 102.686C31.2926 103.04 33.9625 102.55 36.3888 101.567C37.5695 101.062 38.738 100.498 39.7615 99.7128ZM31.1724 103.336C30.4602 103.403 29.7388 103.308 29.0297 103.413C30.2876 103.844 31.7242 103.733 32.8989 103.117C32.3162 103.145 31.752 103.305 31.1724 103.336Z" fill="#F5C35F"/>
<path d="M60.9291 97.7536C62.2147 98.955 63.5651 100.135 65.1651 100.905C67.9583 102.344 71.1738 103.104 74.3123 102.686C74.8117 102.605 75.2927 102.824 75.6225 103.194C75.6164 102.972 75.567 102.759 75.4992 102.553C76.0788 102.565 76.4981 102.96 76.7694 103.434C76.8896 102.95 76.6276 102.513 76.2669 102.214C76.5937 102.097 76.9174 101.971 77.2288 101.817C77.534 102.097 77.9039 102.393 77.9193 102.846C77.981 103.157 77.8207 103.431 77.6357 103.665C77.5864 103.209 77.6141 102.528 77.0345 102.418C77.1363 102.889 77.3891 103.446 77.0315 103.875C76.8342 104.167 76.458 104.14 76.1497 104.146C76.1991 103.964 76.2422 103.779 76.2946 103.604C75.8568 103.283 75.3142 103.563 74.8456 103.662C73.6649 104.044 72.4008 104.309 71.1677 104.029C69.2994 103.607 67.5791 102.732 65.8804 101.878C63.9751 100.923 62.2487 99.6266 60.7534 98.114C60.812 97.9908 60.8706 97.8707 60.9291 97.7536ZM70.0763 103.129C71.2663 103.718 72.6814 103.841 73.9485 103.425C73.2487 103.292 72.5303 103.413 71.8243 103.339C71.2355 103.314 70.6682 103.126 70.0763 103.129Z" fill="#F5C35F"/>
<path d="M17.4593 100.6C17.9618 100.585 18.3287 100.93 18.7233 101.185L18.7788 101.222C18.8127 102.171 18.227 103.252 17.2188 103.388C16.3063 103.446 15.5263 102.766 15.181 101.968C15.1533 101.968 15.0978 101.971 15.0669 101.971C14.66 103.181 14.8265 104.608 15.6034 105.637C16.3679 106.613 17.5456 107.171 18.7202 107.485C19.0686 107.596 19.4478 107.602 19.787 107.75C20.4005 108.061 21.1034 108.08 21.7693 108.175C24.6765 108.471 27.6115 108.107 30.4417 107.417C29.4274 107.956 28.2651 108.132 27.1552 108.372C26.5479 108.526 25.7247 108.378 25.3671 109.019C26.0176 109.068 26.665 108.93 27.3155 109.016C25.4442 109.543 23.4588 109.469 21.5412 109.278C20.3789 109.127 19.2074 108.924 18.1222 108.465C16.9075 107.95 15.8346 107.106 15.0454 106.049C14.3609 105.091 13.9108 103.899 14.0896 102.71C14.1914 101.952 14.5952 101.167 15.2982 100.813C15.8901 100.686 16.445 101.01 16.926 101.315C17.2373 101.496 17.6289 101.737 17.9834 101.524C18.2578 101.105 17.7522 100.809 17.4593 100.6ZM15.7853 101.804C16.1151 102.716 17.558 102.843 18.0266 101.968C17.4038 102.146 16.8551 101.777 16.3248 101.515C16.0936 101.373 15.6989 101.472 15.7853 101.804ZM20.4652 108.634C21.797 108.887 23.1566 109.016 24.5131 108.988C24.7505 108.964 25.0958 108.933 25.1421 108.637C24.1062 108.696 23.0672 108.736 22.0313 108.689C21.5103 108.668 20.9893 108.557 20.4652 108.634Z" fill="#F5C35F"/>
<path d="M42.4069 101.46C42.8786 100.883 43.6894 100.44 44.4355 100.751C45.0613 100.97 45.2 101.728 45.1661 102.31C45.2216 102.217 45.2771 102.128 45.3357 102.039C45.4528 102.612 45.1415 103.234 44.5927 103.456C44.642 103.086 44.9226 102.624 44.5865 102.319C44.3491 102.082 43.9607 102.193 43.7356 102.39C43.3009 102.769 43.1961 103.391 42.7861 103.788C42.5672 103.986 42.2589 104.001 41.9876 104.078C42.0585 104.9 42.3483 105.674 42.6874 106.422C41.6146 105.584 41.3648 104.146 41.2354 102.873C41.2908 102.578 41.3803 102.267 41.5776 102.032C41.6022 102.605 41.5036 103.212 41.7286 103.761C41.7687 102.957 41.8797 102.1 42.4069 101.46ZM42.9587 101.629C42.41 102.039 42.1356 102.701 41.9907 103.348C42.1664 103.493 42.4038 103.45 42.5394 103.268C42.8755 102.83 43.0635 102.257 43.5537 101.952C43.8713 101.712 44.2813 101.758 44.6544 101.786C44.2844 101.225 43.4582 101.265 42.9587 101.629Z" fill="#F5C35F"/>
<path d="M58.3546 100.846C58.962 100.471 59.7419 100.677 60.2475 101.127C61.0337 101.752 61.2248 102.812 61.2557 103.758C61.4746 103.203 61.3821 102.593 61.4098 102.014C61.5825 102.267 61.6996 102.562 61.7489 102.867C61.6225 104.14 61.3697 105.572 60.3061 106.413C60.636 105.664 60.935 104.894 60.9967 104.069C60.7254 103.995 60.4171 103.982 60.2044 103.782C59.7697 103.369 59.6803 102.698 59.187 102.334C58.9435 102.143 58.5242 102.097 58.3361 102.387C58.1049 102.704 58.3484 103.098 58.3916 103.443C57.8428 103.228 57.5407 102.609 57.6517 102.042C57.7103 102.125 57.7688 102.214 57.8274 102.304C57.7904 101.786 57.8829 101.158 58.3546 100.846ZM58.3238 101.792C58.7554 101.734 59.2363 101.737 59.5693 102.057C60.0934 102.433 60.1612 103.209 60.7686 103.48C60.8241 103.443 60.932 103.366 60.9875 103.329C60.8456 102.686 60.5651 102.032 60.0225 101.626C59.52 101.262 58.6968 101.228 58.3238 101.792Z" fill="#F5C35F"/>
<path d="M84.2607 101.191C84.6553 100.93 85.0283 100.578 85.537 100.588C85.3027 100.785 84.9482 100.933 84.9173 101.281C84.9451 101.694 85.4569 101.657 85.7251 101.5C86.3386 101.185 86.949 100.649 87.6889 100.813C88.2377 101.074 88.5891 101.626 88.7834 102.183C89.1071 103.228 88.8974 104.374 88.3918 105.322C87.5101 106.98 85.8946 108.184 84.1188 108.742C82.4633 109.235 80.7245 109.413 79.0011 109.416C77.882 109.395 76.7382 109.364 75.6684 108.994C76.322 108.951 76.9725 109.056 77.6261 109.022C77.4627 108.831 77.3117 108.585 77.0342 108.563C76.2665 108.421 75.4866 108.341 74.7312 108.141C73.9882 107.941 73.2113 107.812 72.5454 107.408C75.4958 108.144 78.5757 108.495 81.6062 108.126C82.1427 108.043 82.7038 108.009 83.194 107.747C84.5258 107.442 85.9224 107.072 86.9459 106.108C87.9941 105.172 88.3363 103.631 88.0188 102.294C87.9571 102.18 87.9941 101.912 87.8061 101.965C87.5101 102.609 86.9798 103.178 86.2677 103.342C85.6449 103.527 84.9882 103.181 84.6429 102.667C84.3038 102.267 84.2391 101.731 84.2052 101.228L84.2607 101.191ZM86.6623 101.515C86.132 101.771 85.5863 102.15 84.9667 101.962C85.4229 102.846 86.8781 102.71 87.2049 101.795C87.282 101.469 86.8873 101.373 86.6623 101.515ZM80.9588 108.693C79.9168 108.742 78.8747 108.699 77.8358 108.643C77.9313 108.979 78.329 108.985 78.6127 109.001C79.9198 109.001 81.2363 108.896 82.5188 108.631C81.9978 108.563 81.4767 108.665 80.9588 108.693Z" fill="#F5C35F"/>
<path d="M49.8052 83.5462C49.9408 82.8038 50.3385 82.1169 50.9644 81.6856C50.7393 82.083 50.431 82.4588 50.3663 82.9271C50.357 83.2197 50.6437 83.4846 50.9366 83.383C51.3035 83.2844 51.6765 83.2844 52.0434 83.383C52.3363 83.4877 52.623 83.2228 52.6138 82.9301C52.549 82.4619 52.2407 82.0861 52.0157 81.6856C52.6384 82.123 53.0485 82.8069 53.1718 83.5555C52.6507 84.0638 52.7402 84.9633 52.0681 85.3268C51.7259 85.5609 51.248 85.5578 50.9058 85.3237C50.243 84.954 50.3262 84.0545 49.8052 83.5462ZM50.4187 83.7403C50.5698 84.2363 50.915 84.7661 51.4916 84.7877C52.065 84.7661 52.4134 84.2363 52.5644 83.7372C52.2006 83.9067 51.8492 83.7311 51.4946 83.6356C51.137 83.7311 50.7856 83.9097 50.4187 83.7403Z" fill="#E19A0E"/>
<path d="M50.2123 89.202C50.7518 88.8508 51.1495 88.3394 51.4917 87.8034C51.7445 88.1762 52.0004 88.5551 52.3395 88.857C52.9468 89.4145 53.8286 89.7134 54.18 90.5174C54.7196 91.6602 54.3003 92.9263 54.18 94.1062C54.4174 95.286 54.4729 96.5182 54.177 97.695C54.0845 98.1448 53.8502 98.5545 53.7731 99.0073C53.7669 99.1459 53.6251 99.2137 53.5449 99.3123C52.9869 99.8298 52.2655 100.19 51.4948 100.23C50.6161 100.184 49.7899 99.7343 49.2195 99.0751C49.1733 98.6592 48.9575 98.2895 48.8558 97.8922C48.5999 96.9649 48.5505 95.9915 48.6523 95.0396C48.6954 94.6083 48.8681 94.177 48.7725 93.7427C48.5814 92.6922 48.3347 91.5432 48.8003 90.5266C49.0716 89.9074 49.6758 89.5593 50.2123 89.202ZM49.5556 93.4624C49.235 94.8948 49.1949 96.4751 49.8947 97.809C50.314 98.6161 51.3869 99.0874 52.2254 98.6346C53.2243 98.1509 53.4925 96.9434 53.6251 95.9422C53.8132 93.373 52.6848 90.961 51.4917 88.7615C50.6963 90.2555 49.9101 91.7896 49.5556 93.4624ZM49.1301 90.8624C48.9051 91.5463 49.0007 92.2825 49.0808 92.9818C49.4785 91.7465 49.9502 90.5328 50.6007 89.4053C50.0335 89.7904 49.3552 90.1662 49.1301 90.8624ZM52.3827 89.4022C53.0332 90.5328 53.508 91.7465 53.9026 92.988C53.9858 92.2456 54.0968 91.4569 53.8101 90.7453C53.5511 90.1138 52.916 89.775 52.3827 89.4022ZM49.7776 98.5267C50.1444 99.1182 50.7795 99.608 51.5009 99.6111C52.2069 99.5988 52.8513 99.1305 53.1935 98.5329C52.2285 99.3369 50.7425 99.3215 49.7776 98.5267Z" fill="#E19A0E"/>
<path d="M19.0132 94.6607C18.8035 94.097 18.7912 93.4162 19.1488 92.911C19.1334 93.6904 19.2043 94.4666 19.4263 95.2183C19.1796 95.132 19.0995 94.8733 19.0132 94.6607Z" fill="#FCEDD0"/>
<path d="M83.8414 92.9233C84.1775 93.3607 84.1682 93.9738 84.0326 94.4851C83.9339 94.7624 83.8476 95.092 83.564 95.2429C83.7705 94.4851 83.8538 93.7057 83.8414 92.9233Z" fill="#FCEDD0"/>
<path d="M31.172 103.335C31.7516 103.305 32.3157 103.141 32.8984 103.117C31.7238 103.733 30.2871 103.841 29.0293 103.412C29.7384 103.308 30.4598 103.403 31.172 103.335Z" fill="#E19A0E"/>
<path d="M70.0757 103.129C70.6676 103.126 71.2349 103.314 71.8237 103.339C72.5297 103.412 73.245 103.292 73.9479 103.425C72.6808 103.841 71.2688 103.717 70.0757 103.129Z" fill="#E19A0E"/>
<path d="M20.4648 108.634C20.9889 108.557 21.51 108.668 22.031 108.693C23.0669 108.739 24.1058 108.699 25.1417 108.64C25.0924 108.936 24.7471 108.967 24.5128 108.991C23.1563 109.019 21.7967 108.887 20.4648 108.634Z" fill="#FCEDD0"/>
<path d="M80.959 108.693C81.48 108.668 81.9979 108.566 82.519 108.628C81.2364 108.896 79.92 108.998 78.6128 108.998C78.3292 108.982 77.9315 108.976 77.8359 108.64C78.8749 108.696 79.9169 108.739 80.959 108.693Z" fill="#FCEDD0"/>
<defs>
<linearGradient id="paint0_linear_54_9660" x1="51.4999" y1="1.53568" x2="51.4999" y2="86.2509" gradientUnits="userSpaceOnUse">
<stop stop-color="#FEEFD0"/>
<stop offset="1" stop-color="#FCD587"/>
</linearGradient>
<linearGradient id="paint1_linear_54_9660" x1="51.4991" y1="8.21643" x2="51.4991" y2="93.3731" gradientUnits="userSpaceOnUse">
<stop stop-color="#FEEFD0"/>
<stop offset="1" stop-color="#FCD587"/>
</linearGradient>
</defs>
</svg>
