<svg xmlns="http://www.w3.org/2000/svg" width="103" height="112" fill="none" viewBox="0 0 103 112"><path fill="#523905" d="M32.858 3.49a51.54 51.54 0 0 1 50.903 7.858c7.4 5.902 13.078 13.92 16.251 22.83 3.264 9.115 3.875 19.154 1.729 28.596-2.192 9.818-7.365 18.936-14.64 25.883-.02.582-.195 1.198-.68 1.568.975.909 1.123 2.369.845 3.607.383-.363.768-.742 1.24-.986.21-.157.573-.037.595.24.022.355.034.71.117 1.06.2-.095.265-.32.376-.496.867-1.5 1.989-2.914 3.52-3.773 1.237-.69 2.73-.95 4.117-.647.888.218 1.735.8 2.118 1.65-.45-.36-1.073-.547-1.616-.286-1.005.463-1.81 1.405-2.068 2.48-.238.97.422 1.802.706 2.677.175.52.009 1.078-.333 1.491 1.005.336 1.683 1.31 1.828 2.338.19 1.319-.256 2.643-.879 3.792-1.19 2.095-3.148 3.626-5.22 4.791-2.678 1.506-5.737 2.098-8.718 2.698-3.453.601-7.038.127-10.319-1.053-3.733-1.35-7.094-3.642-9.84-6.494.126 1.491-.24 3.142-1.419 4.156-1.005.807-2.503 1.287-3.702.637.474-.068 1.079-.277 1.165-.822.093-.964-.9-1.525-1.02-2.431-1.058-.117-1.684-1.155-1.77-2.135a53.3 53.3 0 0 1-9.301-.003c-.09.98-.716 2.024-1.776 2.141-.117.906-1.113 1.467-1.017 2.428.086.542.684.754 1.159.819-.509.336-1.156.33-1.739.262-1.076-.188-2.109-.801-2.682-1.75-.626-.976-.768-2.175-.694-3.308-2.935 3.062-6.588 5.468-10.633 6.771-3.422 1.093-7.146 1.414-10.655.545-2.728-.53-5.484-1.214-7.898-2.637-1.869-1.093-3.62-2.495-4.76-4.359-.69-1.17-1.193-2.535-1.045-3.912.107-1.075.792-2.12 1.843-2.47a1.6 1.6 0 0 1-.271-1.676c.339-.835.903-1.695.616-2.631-.32-1.038-1.11-1.96-2.124-2.375-.53-.22-1.113-.022-1.532.33.36-.842 1.187-1.409 2.047-1.646 1.625-.379 3.394.016 4.748.983 1.236.844 2.158 2.06 2.913 3.333.127.2.198.46.423.582.083-.348.098-.702.12-1.056.015-.275.37-.4.586-.25.478.243.866.626 1.251.992-.277-1.238-.126-2.701.845-3.607a1.7 1.7 0 0 1-.617-1.07c-.046-.243-.006-.538-.237-.698-6.453-6.205-11.219-14.13-13.691-22.728a51.4 51.4 0 0 1-1.354-22.54c1.468-9.094 5.448-17.763 11.383-24.811A51.56 51.56 0 0 1 32.858 3.49m9.252-1.063A50.03 50.03 0 0 0 18.76 13.75 49.95 49.95 0 0 0 4.363 34.914a49.94 49.94 0 0 0-2.297 23.779A49.8 49.8 0 0 0 6.68 73.519c1.847 3.777 4.211 7.292 6.924 10.502.753-.425 1.551-.798 2.414-.93 1.492-.272 3.074.144 4.27 1.068.71.54 1.187 1.3 1.594 2.073.056-.39.111-.81.453-1.06-7.72-6.6-13.013-15.947-14.76-25.943-1.583-8.817-.402-18.098 3.329-26.243a44.6 44.6 0 0 1 16.034-18.733c7.34-4.855 16.146-7.458 24.95-7.36 9.48.06 18.902 3.26 26.458 8.977 7.468 5.582 13.063 13.591 15.792 22.497 2.802 9.035 2.605 18.964-.555 27.882-2.56 7.292-7.048 13.903-12.921 18.933.336.259.388.68.438 1.072.265-.48.505-.977.872-1.39.715-.868 1.745-1.441 2.827-1.709 1.55-.373 3.222.01 4.538.878 4.834-5.542 8.358-12.208 10.319-19.29a49.9 49.9 0 0 0 .157-25.975c-2.337-8.937-7.22-17.196-13.95-23.53C79.634 9.297 71.82 5.043 63.46 2.992a50 50 0 0 0-21.35-.564M31.027 13.366a43.3 43.3 0 0 0-17.104 16.65c-4.326 7.532-6.286 16.388-5.55 25.042.753 9.312 4.647 18.332 10.905 25.272 5.682 6.358 13.294 10.967 21.568 13.043-.163-.45-.366-.952-.826-1.174-.404-.212-.845.004-1.23.139.151-.554.583-.958 1.03-1.29a.74.74 0 0 0-.318-.186c-4.3-1.3-8.382-3.32-12.033-5.939-6.912-4.938-12.217-12.066-14.955-20.103a41.1 41.1 0 0 1-1.837-19.001c1.152-8.465 5.037-16.524 10.935-22.707 5.74-6.062 13.37-10.304 21.556-11.973a41.2 41.2 0 0 1 20.31.927c8.269 2.495 15.711 7.661 20.897 14.568 5.82 7.648 8.817 17.383 8.28 26.976a41.2 41.2 0 0 1-3.418 14.42 41.27 41.27 0 0 1-15.014 17.799c-3.41 2.27-7.178 3.97-11.093 5.172.44.367.913.761 1.067 1.34-.386-.135-.827-.354-1.224-.145-.466.222-.67.73-.836 1.183a43.26 43.26 0 0 0 29.297-25.248c3.438-8.185 4.258-17.439 2.3-26.098-1.939-8.758-6.696-16.863-13.41-22.814C73.282 12.882 64.086 9 54.634 8.339c-8.136-.61-16.427 1.16-23.607 5.027m.913 3.253c-7.581 4.226-13.701 11.003-17.132 18.97a39.93 39.93 0 0 0 3.246 37.764c4.698 7.202 11.795 12.802 19.9 15.698-.93-1.414-1.569-3.136-1.285-4.846.207-1.04.758-2.15 1.803-2.56.444-.153.996-.289 1.422-.018-.53.179-1.055.743-.823 1.334.37.93 1.63.946 2.08 1.817.824-.255 1.69.105 2.304.657-.247-.638-.256-1.377.064-1.99.22-.481.688-.878.66-1.442-.05-.613-.734-.97-1.298-.869.558-.9 1.779-1.149 2.756-.92 1.33.326 2.445 1.296 3.096 2.482.052.025.16.074.212.096.087-1.46 1.166-2.795 2.55-3.229 1.375.444 2.454 1.765 2.54 3.225.053-.024.16-.067.213-.092.65-1.183 1.764-2.156 3.09-2.483.976-.234 2.2.016 2.761.918-.53-.086-1.156.2-1.279.752-.117.533.305.952.543 1.38.404.644.437 1.466.163 2.168.617-.554 1.483-.902 2.31-.656.443-.878 1.713-.884 2.074-1.823.222-.589-.296-1.143-.823-1.322.38-.262.89-.142 1.304-.021 1.11.366 1.705 1.521 1.918 2.6.29 1.712-.364 3.425-1.277 4.848a40.04 40.04 0 0 0 18.282-13.403c5.066-6.626 7.964-14.87 8.148-23.206a39.9 39.9 0 0 0-3.767-17.944c-3.7-7.935-10.109-14.57-17.906-18.563a40 40 0 0 0-14.388-4.236c-8.074-.813-16.386.93-23.461 4.914m17.767 66.034c-.037.296-.142.65.099.893.52.508.437 1.408 1.103 1.778a1.05 1.05 0 0 0 1.162.003c.672-.364.583-1.266 1.104-1.772.244-.25.139-.61.102-.911-.17-.995-.894-1.836-1.785-2.277-.894.444-1.619 1.285-1.785 2.286m-5.593-1.94c.312.175.642.369.793.71.296.564.142 1.242-.182 1.76-.284.505-.802 1.01-.598 1.645.15.339.296.92.789.754q.366.035.734.087c.03-.709-.2-1.451.15-2.126-.092.755.05 1.568.568 2.15.42.453.983.81 1.603.9.466.04.817-.32 1.027-.696.102.807-.084 1.602-.38 2.353.17-.185.343-.363.518-.542l.01-.052c.262-.296.743-.503.706-.962.083-.985-.244-2.033-.962-2.732-.268-.243-.648-.487-1.02-.345-.315.262-.145.696.16.884-.59.12-1.076-.502-.913-1.05.037-.32.34-.493.481-.752-.675-1.214-2.025-2.236-3.484-1.987m11.247 2.03c.293.236.558.566.527.97 0 .49-.475.887-.962.791.32-.166.506-.607.194-.878-.363-.16-.752.09-1.02.33-.814.785-1.122 2-.922 3.099.228.197.447.403.666.613l.01.05q.262.264.511.541c-.29-.751-.48-1.546-.379-2.356.213.373.564.736 1.036.693.53-.068 1.011-.36 1.406-.706.647-.576.885-1.503.743-2.34.382.662.12 1.42.17 2.125q.364-.056.73-.09c.092 0 .277.007.37.007.324-.41.613-.977.37-1.494-.318-.641-.885-1.208-.891-1.966-.028-.597.354-1.155.903-1.383-1.452-.32-2.796.795-3.462 1.993m-17.524 4.204c.598 1.399 1.52 2.68 2.741 3.601.077-.015.228-.046.305-.058q.217-.115.447-.207c-.413-.252-.85-.49-1.18-.856.496.231.968.52 1.495.68-.41-.495-.987-.862-1.252-1.466.441.453 1.1.912 1.748.567.574-.274.54-.976.521-1.512.198.413.367.838.598 1.232.34.66 1.02 1.063 1.693 1.318.382.136.906.194 1.187-.17.342-.415.21-.972.194-1.462.416.579.626 1.26.934 1.894q.078-.17.16-.336l.111-.32c-.148-1.161-.591-2.384-1.603-3.065-.514-.339-1.27-.558-1.803-.145-.463.376-.133 1.282.5 1.155-.432.576-1.219-.034-1.308-.579-.012-.804-.697-1.51-1.461-1.682-.413-.12-1.018.145-.947.644-.015.323.284.496.432.745-.762.047-1.233-.868-.897-1.509.175-.311-.225-.533-.478-.604-.601-.181-1.255-.459-1.55-1.053-.238-.435-.112-.934.02-1.374-1.165 1.201-1.143 3.074-.607 4.562m26.804-3.373c-.18.551-.7.912-1.224 1.1-.33.132-.743.178-.931.523.043.28.206.546.15.841-.049.496-.483.912-.992.894.34-.327.69-.98.148-1.297-.842-.391-1.708.354-2.053 1.087-.01.5-.2 1.038-.685 1.266-.246.139-.54.034-.693-.181.632.123.959-.789.49-1.162-.475-.366-1.138-.222-1.625.043-.86.496-1.409 1.417-1.618 2.372-.059.367-.269.758-.05 1.112q.076.165.151.333c.346-.616.503-1.34.975-1.888-.074.483-.167 1.044.16 1.46.237.32.69.32 1.039.219a3.6 3.6 0 0 0 1.526-.906c.413-.493.626-1.112.913-1.679.006.311-.028.632.055.937.12.43.576.714 1.017.674.494 0 .848-.379 1.19-.68-.271.606-.841.988-1.273 1.469.54-.151 1.017-.45 1.523-.684-.333.366-.777.604-1.19.869.151.058.308.117.462.178.075.025.222.068.297.093a9.03 9.03 0 0 0 2.786-3.743c.49-1.46.475-3.253-.635-4.44.087.389.225.796.087 1.19m-50.126.456c1.224.243 2.41 1.093 2.747 2.335.2.687-.05 1.377-.265 2.027-.17.53.15 1.035.527 1.38.323.003.669.03.946.219.67.403.555 1.497-.003 1.94.142-.582-.397-1.195-.993-1.115-.496.093-.844.536-1.008.99-.274.803-.061 1.678.26 2.436.671 1.522 1.803 2.79 3.045 3.875.5.46 1.1.792 1.69 1.128.453.218.885.502 1.38.613-.748-.703-1.636-1.239-2.4-1.926-1.23-1.007-2.504-2.233-2.723-3.89.355.418.567.951 1.005 1.296.256.21.592.404.934.296.296-.083.401-.462.318-.727-.185-.638-.367-1.297-.272-1.965.078-.675.666-1.137.811-1.79.238-.832-.058-1.67-.13-2.501a8.8 8.8 0 0 1 .7 3.25q.13-.12.263-.238l-.01-.061c.432-.496.953-.9 1.52-1.22q.347-.124.697-.231l.003-.04q.357-.075.719-.136c.299-.634.292-1.383.04-2.03-.281-.767-.87-1.361-1.48-1.876-.105.582-.506 1.023-.83 1.494-.262.358-.277.835-.114 1.239-.625-.111-.709-.835-.524-1.337-.388-.65-.641-1.377-1.107-1.981-.502-.678-1.196-1.226-2.003-1.485-1.212-.385-2.532-.314-3.743.03m68.633.967c-.715.684-1.045 1.63-1.526 2.47.178.5.101 1.227-.525 1.338.145-.373.158-.81-.064-1.156-.32-.51-.774-.96-.879-1.577-.505.435-1.008.906-1.313 1.51-.398.724-.487 1.632-.133 2.393q.361.067.719.142l.003.04c.23.07.465.148.693.231.57.323 1.098.724 1.52 1.23l-.006.045c.083.084.173.167.262.25a8.6 8.6 0 0 1 .715-3.262c-.157 1.062-.496 2.267.185 3.228.481.6.62 1.392.447 2.132-.043.493-.437 1.004-.141 1.485.237.261.656.203.924.021.583-.33.839-.97 1.24-1.47-.102.85-.527 1.633-1.055 2.293-1.159 1.386-2.713 2.353-4.066 3.524.493-.108.922-.392 1.375-.607.592-.336 1.196-.675 1.702-1.134 1.122-.982 2.146-2.11 2.836-3.44.398-.786.694-1.683.543-2.573-.114-.567-.487-1.164-1.089-1.288-.598-.083-1.137.533-.995 1.122-.404-.3-.494-.872-.435-1.34.117-.62.817-.866 1.381-.829.37-.345.69-.841.527-1.368-.203-.625-.456-1.281-.29-1.95.293-1.266 1.477-2.147 2.701-2.409-.45-.218-.971-.228-1.458-.286-1.357-.111-2.84.21-3.798 1.235m-69.2-.613c.684.786 1.39 1.556 2.142 2.277-.09-1.13-.986-2.163-2.142-2.277m72.942 2.304c.762-.733 1.474-1.518 2.17-2.31-1.17.11-2.083 1.158-2.17 2.31m-35.645.278c-1.116.412-1.85 1.42-2.39 2.43-1.134 2.104-1.402 4.605-1.023 6.944.151 1.038.759 1.925 1.388 2.738.57.66 1.4 1.109 2.275 1.155.77-.04 1.492-.4 2.05-.918.08-.095.222-.163.228-.305.706-.785 1.261-1.752 1.4-2.812.302-2.005.123-4.119-.663-5.998-.533-1.18-1.205-2.418-2.39-3.056-.267-.123-.573-.354-.875-.178m-26.46.215c.403.863.514 1.824.443 2.77 1.483.123 2.96 1.096 3.354 2.578.287 1.026-.243 2.153-1.156 2.67 1.84 1.011 3.737 1.923 5.698 2.672.7-.01 1.38-.225 2.053-.404 2.183-.665 4.285-1.552 6.394-2.415-.077-.206-.32-.194-.49-.256-5.886-1.386-11.435-4.041-16.297-7.615m37.124 7.621c-.17.065-.422.04-.487.253 2.392.964 4.77 2.015 7.279 2.646.404.068.82.222 1.233.157 1.933-.754 3.808-1.66 5.636-2.64-.503-.326-.94-.785-1.122-1.364-.29-.838-.019-1.775.527-2.443.66-.866 1.717-1.35 2.784-1.457-.068-.94.03-1.901.444-2.757-4.862 3.57-10.415 6.222-16.294 7.605M5.571 90.08c1.03.511 2.056 1.25 2.534 2.332.432.983.151 2.12-.434 2.973-.417.53-.272 1.33.206 1.768 1.02.172 1.989.983 2.078 2.055-.01.452-.21.995-.653 1.186-.01-.45.018-.918-.148-1.344-.312-.727-1.209-1.198-1.97-.908-.753.286-1.157 1.096-1.24 1.854-.117 1.245.324 2.477.953 3.534.956 1.528 2.364 2.732 3.894 3.662v.047c.508.32 1.042.625 1.612.828a59 59 0 0 1-2.556-2.141c-.737-.668-1.458-1.42-1.8-2.375.367.321.752 1.106 1.332.743-.155-.472-.22-.995-.022-1.467.228-.641.857-.982 1.242-1.509.226-.287.343-.632.475-.968-.003.592-.287 1.137-.666 1.578-.37.403-.777.853-.777 1.438-.009.37.084.928.552.961.386-.129.407-.619.45-.955.065-1.075.706-1.98.978-2.997.194-.992.012-2.005.024-3.007.342 1.01.494 2.074.555 3.136l.228-.314c.398-.56.95-.973 1.486-1.389.327-.142.65-.296.993-.404l.01-.037c.252-.058.508-.117.764-.163a4.2 4.2 0 0 0 .404-1.719c.009-1.14-.604-2.24-1.523-2.898.068.65-.065 1.324-.466 1.85-.394.574-1.165 1.02-1.005 1.83-.548-.341-.296-1.044-.17-1.543-.382-2.023-1.747-3.795-3.477-4.876-1.131-.73-2.54-.983-3.863-.761m87.67.955c-1.575 1.09-2.814 2.766-3.172 4.667.117.505.382 1.198-.166 1.559.154-.814-.614-1.26-1.012-1.84-.4-.526-.53-1.2-.465-1.85a3.73 3.73 0 0 0-1.434 2.11c-.194.837-.058 1.743.32 2.513q.38.067.76.16l.008.037c.34.108.663.262.99.404.537.413 1.085.825 1.483 1.383l.228.314c.065-1.063.21-2.125.558-3.133.003.955-.148 1.916-.006 2.868.191.915.75 1.707.934 2.628.111.456.03.976.336 1.365.188.209.518.03.614-.185.271-.595.09-1.316-.355-1.772-.493-.523-.968-1.158-.959-1.916.164.49.398.962.78 1.319.463.431.978.902 1.045 1.574.102.397-.16.789-.049 1.18.592.04.879-.518 1.252-.863-.333.918-1.014 1.651-1.724 2.298a58 58 0 0 1-2.623 2.212c.558-.219 1.134-.49 1.603-.853 1.52-.958 2.947-2.144 3.9-3.684.629-1.057 1.07-2.289.953-3.534-.084-.758-.49-1.565-1.24-1.848-.761-.293-1.662.182-1.973.909-.166.425-.142.893-.145 1.34-.413-.161-.595-.647-.65-1.054-.013-.909.693-1.707 1.513-2.02.238-.108.583-.069.719-.333.348-.462.416-1.134.05-1.602-.605-.878-.876-2.058-.399-3.053.497-1.02 1.47-1.747 2.473-2.227-1.428-.311-2.963.086-4.147.927m-71.956 3.336c-.114 1.5.558 2.958 1.492 4.097 1.483 1.787 3.681 2.927 5.972 3.244 2.284.32 4.612-.117 6.767-.887 2.312-.835 4.372-2.218 6.302-3.715a3.8 3.8 0 0 1 0-1.346c-.716.51-1.419 1.04-2.177 1.484a19.1 19.1 0 0 1-7.014 2.508c-2.472.339-5.192-.016-7.19-1.614-1.004-.863-1.834-2.126-1.738-3.5.021-.625.456-1.146.986-1.432-.027.9.925 1.734 1.81 1.408.873-.22 1.4-1.331.94-2.11-.548-1.11-1.88-1.649-3.067-1.46-1.637.221-2.969 1.69-3.083 3.323m18.748-2.815c.97.046 1.83.807 1.976 1.77.117.46-.025 1.128.511 1.356.296-.03.595-.15.891-.049.617.151 1.04.804.92 1.43-.278-.423-.732-.94-1.296-.737-.57.265-.582 1.026-.413 1.547.422 1.272 1.597 2.11 2.766 2.655l.03.046q.507.2 1.012.404c-.284-.373-.63-.703-.817-1.137.468.345.912.856 1.538.866.136-.429-.197-.789-.336-1.165-.324-.69-.28-1.463-.3-2.202-.011-.604-.236-1.174-.495-1.71.19.206.376.419.56.631a4 4 0 0 0-.058-.563q-.016-.607.003-1.214c-.465-.727-1.02-1.426-1.8-1.836-1.412-.881-3.231-.8-4.693-.092m17.397.68c-.398.352-.663.81-.971 1.236q.013.609.003 1.223a3 3 0 0 0-.05.551q.273-.316.555-.622c-.136.305-.286.604-.37.927-.271.912.013 1.9-.348 2.797-.13.456-.54.853-.416 1.353.629 0 1.076-.515 1.541-.863-.197.453-.533.82-.9 1.146a15 15 0 0 0 1.381-.533l-.03-.03c1.106-.552 2.2-1.4 2.564-2.632.145-.505.102-1.223-.444-1.466-.567-.194-1.01.317-1.288.74-.133-.675.379-1.371 1.054-1.458.342-.083.774.26 1.017-.117.256-.419.145-.949.309-1.401.228-.86 1.039-1.48 1.917-1.525-.736-.324-1.523-.567-2.334-.555-1.174-.03-2.321.453-3.19 1.23m18.118.278c-.453.788.077 1.897.953 2.113.885.317 1.828-.52 1.803-1.414.435.259.851.647.94 1.17.213 1.042-.246 2.092-.869 2.905-.814 1.079-2.05 1.753-3.317 2.163-1.52.471-3.145.514-4.708.308a19.5 19.5 0 0 1-4.766-1.355c-1.588-.666-3.037-1.611-4.415-2.631.074.443.084.896 0 1.34 1.93 1.497 3.99 2.88 6.302 3.712 2.152.77 4.48 1.207 6.764.89 2.294-.314 4.489-1.457 5.975-3.24.937-1.14 1.606-2.597 1.495-4.098-.111-1.635-1.45-3.105-3.083-3.327-1.193-.19-2.522.355-3.074 1.464M17 96.463a3.76 3.76 0 0 1-.401 1.716c1.079.15 2.105.776 2.648 1.734.583 1.029.564 2.434-.234 3.345.095.309.287.577.53.786.81.724 1.862 1.106 2.901 1.38a13.9 13.9 0 0 0 4.168.373c-1.079-.237-2.17-.761-2.808-1.701-.472-.68-.62-1.611-.271-2.375.083-.212.295-.372.323-.603a11.6 11.6 0 0 1-2.571-1.029C19.633 99.186 18.103 98 17 96.463m68.984 0c-.71 1.001-1.615 1.848-2.602 2.569-1.307.946-2.762 1.725-4.338 2.107.743.718.765 1.935.247 2.788-.61 1.053-1.788 1.626-2.938 1.882 2.035.083 4.134-.145 5.99-1.029.65-.354 1.39-.773 1.628-1.525-.82-.936-.817-2.39-.185-3.422.555-.912 1.554-1.503 2.599-1.651a3.8 3.8 0 0 1-.401-1.72m-46.223 3.25c-1.023.785-2.192 1.352-3.376 1.857-2.426.983-5.096 1.473-7.707 1.119-.503-.084-.987.135-1.317.511.007-.222.053-.437.124-.644-.583.009-1.005.407-1.273.884-.118-.486.138-.927.508-1.223a9 9 0 0 1-.962-.397c-.373-.176-.903-.21-1.156.179-.422.656-.13 1.549.389 2.067.783.742 1.868 1.075 2.922 1.161 2.25.194 4.49-.401 6.536-1.297 2.507-1.112 4.751-2.732 6.798-4.544.37-.35.777-.671 1.082-1.084l-.092-.191q-.092-.18-.179-.357c-.746.674-1.474 1.373-2.297 1.959m21.168-1.96-.176.358-.092.19c.32.435.752.774 1.143 1.14 2.62 2.308 5.596 4.326 8.981 5.305 1.757.493 3.65.727 5.442.278.835-.256 1.723-.675 2.145-1.482.253-.515.342-1.235-.102-1.67-.286-.274-.715-.194-1.045-.058-.311.157-.635.28-.962.397.361.296.623.733.503 1.22-.271-.474-.69-.869-1.27-.881.068.209.117.419.123.641-.33-.37-.81-.589-1.31-.509-3.139.416-6.354-.345-9.147-1.78-1.597-.767-2.948-1.947-4.233-3.148m-23.927 5.579c-2.71 1.741-5.605 3.269-8.759 4.005-2.759.656-5.65.906-8.456.413-.34-.148-.719-.151-1.067-.265-1.175-.314-2.352-.875-3.117-1.848-.777-1.029-.943-2.456-.536-3.666.027 0 .083 0 .114-.003.345.798 1.125 1.475 2.038 1.42 1.01-.136 1.593-1.214 1.56-2.166l-.056-.037c-.151-1.43-1.714-2.418-3.083-2.097-1.837.385-3.206 2.174-3.265 4.026-.098 1.743.848 3.401 2.165 4.491 1.763 1.46 4.023 2.178 6.258 2.501 4.52.604 9.138-.619 13.053-2.867 3.586-2.018 6.573-4.942 9.138-8.12-.133-.149-.262-.296-.395-.441-1.745 1.679-3.483 3.419-5.592 4.654m23.384-4.66-.391.443a39.7 39.7 0 0 0 5 5.216c3.132 2.646 6.857 4.67 10.892 5.504 3.253.684 6.73.583 9.844-.653 1.57-.628 3.07-1.595 4.011-3.031.69-1.047 1.03-2.344.811-3.589a4.4 4.4 0 0 0-2.522-3.268c-.783-.345-1.73-.373-2.482.062-.69.36-1.196 1.053-1.288 1.832l-.056.037c.034.502.096 1.038.438 1.439.345.517 1.002.862 1.625.675.715-.161 1.242-.734 1.538-1.377.191-.053.151.215.213.329.32 1.337-.025 2.877-1.073 3.814-1.024.964-2.42 1.334-3.752 1.639-3.175.548-6.456.185-9.533-.706-3.113-.884-5.922-2.56-8.617-4.309-1.707-1.162-3.172-2.631-4.658-4.057m-15.384 1.762c.336.471.315 1.056.336 1.608a4 4 0 0 0-.17.271c.035-.582-.107-1.34-.73-1.559-.746-.311-1.557.132-2.029.709-.527.64-.64 1.497-.675 2.301-.225-.549-.126-1.152-.15-1.728-.198.234-.288.542-.343.841-.32 1.33-.244 2.871.678 3.955.457.644 1.24.884 1.952 1.134-.349-.45-.57-1.045-.38-1.609.145-.616.734-1.004.855-1.623-.623-.308-.953-1.22-.373-1.728.015.293-.06.699.27.859.562.404 1.33.028 1.588-.551.457-.826.136-1.778-.15-2.6-.235-.099-.457-.188-.679-.28m12.314.274c-.287.825-.61 1.777-.148 2.606.259.576 1.03.946 1.587.542.33-.16.247-.573.265-.866.574.515.256 1.427-.37 1.738.118.622.706 1.01.851 1.623.192.561-.033 1.149-.37 1.605.685-.243 1.443-.465 1.897-1.072.958-1.087 1.054-2.658.724-4.014-.05-.305-.166-.6-.34-.853-.027.579.069 1.189-.153 1.744-.034-.949-.222-2.009-1.008-2.631-.506-.45-1.29-.656-1.893-.28-.472.311-.565.939-.53 1.463l-.176-.262c.018-.555-.004-1.14.333-1.617l-.67.274"/><path fill="#523905" d="M49.556 93.462c.354-1.672 1.137-3.207 1.936-4.704 1.196 2.2 2.324 4.612 2.133 7.181-.132 1.001-.4 2.209-1.4 2.693-.838.452-1.91-.016-2.33-.826-.7-1.33-.657-2.911-.34-4.344m.743 2.086c.07.66.462 1.432 1.193 1.516.549-.044.94-.552 1.094-1.045.296-1.081.16-2.227-.08-3.305-.225-1.038-.694-2.002-.99-3.022-.724 1.851-1.51 3.823-1.217 5.856"/><path fill="url(#a)" d="M42.11 2.427a50 50 0 0 1 21.356.56C71.827 5.04 79.639 9.293 85.87 15.236c6.733 6.333 11.613 14.592 13.95 23.529a49.9 49.9 0 0 1-.157 25.975c-1.96 7.082-5.484 13.748-10.319 19.29-1.316-.872-2.99-1.25-4.538-.878-1.085.268-2.111.84-2.827 1.71-.367.412-.607.908-.872 1.389-.053-.391-.102-.813-.438-1.072 5.873-5.03 10.362-11.645 12.92-18.933 3.16-8.918 3.358-18.847.556-27.882-2.726-8.906-8.324-16.915-15.791-22.497-7.56-5.717-16.978-8.918-26.458-8.977-8.805-.095-17.61 2.505-24.95 7.36C19.98 18.824 14.35 25.398 10.91 32.983 7.18 41.127 6 50.409 7.58 59.225c1.748 10 7.039 19.346 14.761 25.945-.345.25-.397.668-.453 1.06-.41-.777-.888-1.538-1.594-2.074-1.193-.924-2.778-1.337-4.27-1.069-.86.136-1.661.505-2.414.93-2.713-3.212-5.077-6.724-6.924-10.501a49.7 49.7 0 0 1-4.621-14.824 49.9 49.9 0 0 1 2.297-23.775A49.95 49.95 0 0 1 18.76 13.754 50 50 0 0 1 42.11 2.427"/><path fill="#f9dca0" d="M44.114 80.712c1.459-.25 2.809.773 3.487 1.987-.139.259-.44.431-.48.752-.164.548.323 1.17.912 1.05-.306-.188-.475-.622-.16-.884.37-.142.752.102 1.02.345.718.7 1.042 1.747.962 2.733.034.459-.444.665-.706.96.234-1.065.234-2.368-.67-3.135.121.459.42 1.01.075 1.448-.228.283-.63.135-.891-.007-.712-.403-1.32-1.056-1.539-1.857-.194-.64.16-1.325-.117-1.95-.092-.299-.314-.527-.54-.73.09.366.22.73.238 1.112.006.594-.33 1.121-.416 1.7-.034.352.006.706.021 1.06-.19-.474-.336-1.014-.107-1.5.252-.57.456-1.236.117-1.818a3.6 3.6 0 0 1-.441 1.504c-.36.659-.234 1.438.04 2.1-.493.167-.638-.415-.79-.754-.203-.635.315-1.14.599-1.645.323-.518.478-1.196.182-1.76-.154-.341-.484-.535-.796-.71m11.247 2.029c.666-1.198 2.013-2.31 3.46-1.993-.55.228-.932.786-.904 1.383.006.758.573 1.325.89 1.966.241.517-.049 1.084-.37 1.494-.092 0-.277-.007-.37-.007.149-.434.315-.884.26-1.349-.03-.431-.253-.81-.425-1.198-.158-.336-.185-.712-.247-1.072-.29.564-.164 1.198.099 1.744.252.51.138 1.087-.084 1.586.019-.444.102-.9-.028-1.33-.126-.475-.366-.931-.357-1.433.021-.382.148-.743.237-1.112-.228.21-.447.44-.54.742-.27.622.084 1.303-.11 1.938-.228.828-.873 1.512-1.628 1.903-.265.148-.688.21-.854-.11-.265-.444.015-.943.133-1.384-.91.77-.916 2.083-.673 3.155-.218-.21-.437-.416-.666-.613-.197-1.097.108-2.314.922-3.1.265-.24.654-.486 1.02-.329.312.271.127.712-.193.878a.822.822 0 0 0 .961-.791c.025-.401-.24-.73-.533-.968m-17.523 4.205c-.537-1.485-.559-3.358.604-4.562-.133.444-.26.94-.022 1.374.296.594.95.872 1.55 1.053.254.071.651.293.479.604-.336.64.135 1.559.897 1.51-.148-.25-.447-.422-.432-.746-.07-.502.53-.764.947-.644.764.173 1.452.878 1.461 1.682.09.549.876 1.155 1.307.58-.632.126-.962-.78-.5-1.156.534-.413 1.29-.197 1.804.145 1.011.68 1.456 1.904 1.603 3.065l-.11.32c-.389-1.08-1.027-2.116-2.014-2.741-.215-.154-.48-.194-.73-.247.296.293.678.509.906.863.123.49-.45.785-.863.66q-.703-.192-1.415-.327c-.484-.798-.703-1.873-1.647-2.286.18.29.41.551.543.872 0 .499-.561.86-1.02.677-.759-.258-.9-1.198-1.545-1.605-.24-.16-.536-.067-.802-.043-.13-.336-.24-.68-.345-1.023-.04 1.467.833 2.748 1.554 3.962-1.011-.86-1.603-2.092-2.106-3.293.031.742.364 1.42.67 2.082.49 1.042 1.239 1.99 2.26 2.554.002.053.008.16.014.213-.077.015-.228.046-.305.058-1.224-.92-2.145-2.205-2.744-3.6m26.803-3.374c.142-.397 0-.801-.082-1.19 1.11 1.184 1.125 2.977.634 4.44a9.03 9.03 0 0 1-2.786 3.743 11 11 0 0 1-.296-.093c0-.049 0-.148.003-.2 1.239-.671 2.034-1.907 2.546-3.182.197-.46.37-.936.373-1.445-.487 1.202-1.085 2.424-2.093 3.28.727-1.213 1.584-2.497 1.56-3.964-.111.345-.228.69-.36 1.03-.263-.02-.553-.112-.79.042-.595.376-.752 1.168-1.36 1.528-.354.219-.894.151-1.103-.237-.312-.459.243-.847.431-1.23-.943.414-1.165 1.489-1.643 2.287a16 16 0 0 0-1.415.323c-.416.13-.987-.166-.87-.656.232-.354.608-.573.907-.863-.712.074-1.246.604-1.699 1.106-.48.54-.774 1.211-1.045 1.873-.219-.354-.01-.748.05-1.112.206-.955.758-1.876 1.618-2.372.487-.262 1.15-.41 1.625-.043.468.373.142 1.285-.49 1.162.157.215.447.32.693.181.481-.228.672-.764.685-1.266.345-.73 1.214-1.478 2.053-1.087.542.32.194.973-.148 1.297.509.021.943-.398.993-.894.055-.295-.108-.56-.151-.84.184-.346.6-.392.93-.524.53-.182 1.052-.543 1.23-1.094m-50.125.456c1.208-.345 2.53-.413 3.736-.025.808.259 1.502.804 2.004 1.485.466.604.719 1.33 1.107 1.98-.182.5-.102 1.224.524 1.338-.16-.404-.148-.878.114-1.239.324-.47.725-.911.83-1.494.613.515 1.199 1.112 1.48 1.876.252.647.258 1.396-.04 2.03l-.72.136c.14-1.063-.045-2.218-.73-3.071.093.656.484 1.521-.09 2.054-.545.188-1.137.26-1.624.598-.45-1.796-1.597-3.38-3.114-4.43a4.3 4.3 0 0 0-.82-.416c.863.761 1.723 1.556 2.312 2.557.506.81.786 1.818.518 2.757-.305 1.06-1.214 1.784-1.634 2.785-.135.33-.175.69-.246 1.038-.512-.564-.598-1.377-.586-2.107-.537 1.097-.213 2.381.302 3.423.475.991 1.218 1.811 1.918 2.643 0 .043.003.13.006.172-1.243-1.084-2.374-2.353-3.046-3.875-.32-.758-.53-1.636-.26-2.437.164-.453.51-.896 1.009-.989.595-.08 1.135.533.993 1.115.558-.443.675-1.537.003-1.94-.278-.188-.623-.219-.947-.219-.376-.345-.7-.85-.527-1.38.216-.65.466-1.34.265-2.027-.323-1.248-1.513-2.095-2.737-2.338m68.633.967c.959-1.023 2.442-1.343 3.798-1.238.49.058 1.008.068 1.458.286-1.227.262-2.41 1.143-2.7 2.41-.167.665.086 1.324.29 1.95.163.526-.16 1.022-.528 1.367-.56-.037-1.264.21-1.38.829-.06.465.03 1.038.434 1.34-.142-.586.398-1.202.996-1.122.6.124.974.721 1.088 1.288.15.89-.145 1.784-.543 2.572-.69 1.331-1.714 2.459-2.836 3.441-.077-.194.123-.314.219-.45 1.079-1.18 2.075-2.572 2.257-4.201.08-.54-.034-1.085-.247-1.58-.006.726-.08 1.54-.595 2.1-.086-.48-.163-.976-.425-1.395-.534-.952-1.45-1.747-1.545-2.893-.136-1.3.623-2.461 1.43-3.407.432-.548 1.002-.958 1.496-1.442-.938.345-1.68 1.048-2.334 1.778-.777.875-1.304 1.94-1.606 3.068-.487-.342-1.08-.407-1.625-.6-.567-.537-.176-1.396-.09-2.052-.68.856-.86 2.008-.727 3.071q-.361-.074-.718-.142c-.355-.76-.269-1.666.132-2.393.305-.604.808-1.075 1.314-1.51.107.616.558 1.066.878 1.578.222.344.21.779.065 1.155.626-.111.706-.838.524-1.337.475-.841.805-1.79 1.52-2.47"/><path fill="#f9dca0" d="M13.948 84.384c1.156.114 2.05 1.146 2.142 2.277a35 35 0 0 1-2.142-2.277m72.942 2.304c.084-1.152.996-2.199 2.171-2.31a39 39 0 0 1-2.17 2.31M38.987 86.3c.568-.095.826.484 1.1.863.297.468.778.909 1.373.862.391.003.663-.302.916-.557-.044.283-.062.591-.238.831-.324.45-1.045.613-1.489.247-.724-.598-1.28-1.39-1.662-2.246m24.229.407c.167-.268.453-.468.783-.404-.385.857-.94 1.651-1.67 2.25-.448.36-1.163.193-1.487-.254-.175-.243-.194-.548-.237-.828.296.336.7.656 1.18.539.707-.102 1.058-.782 1.431-1.303m-38.432.474c4.859 3.574 10.411 6.229 16.294 7.615.17.059.416.05.49.256-2.109.862-4.212 1.75-6.394 2.415-.672.179-1.354.398-2.053.404-1.958-.749-3.857-1.66-5.698-2.671.913-.518 1.443-1.645 1.156-2.671-.394-1.485-1.871-2.455-3.354-2.578.074-.946-.037-1.907-.44-2.77m37.124 7.622c5.88-1.384 11.432-4.036 16.293-7.61-.413.857-.511 1.818-.444 2.758-1.066.108-2.124.591-2.783 1.457-.546.668-.817 1.605-.528 2.443.182.582.62 1.04 1.123 1.364-1.829.983-3.703 1.889-5.636 2.64-.413.065-.83-.089-1.233-.157-2.51-.631-4.887-1.682-7.28-2.646.066-.21.322-.188.488-.25m-16.805-5.745c.367-.024.61-.32.805-.597.23.379.431.949.052 1.303-.327.308-.783.077-1.113-.093-.465-.268-.974-.483-1.344-.878.558-.055 1.036.392 1.6.265m11.922.703c-.37-.345-.194-.918.055-1.285.204.262.438.555.802.582.561.127 1.039-.305 1.588-.283-.321.41-.827.591-1.258.856-.355.179-.833.46-1.187.13m-35.526.425c.284-.456.873-.444 1.342-.502q.035.347.015.699c-.57.32-1.088.724-1.52 1.22-.046-.472-.157-1.01.164-1.417m58.635-.499c.447.061.996.03 1.298.434.37.41.271.992.21 1.491-.423-.505-.953-.903-1.52-1.23a5 5 0 0 1 .012-.695M5.57 90.08c1.326-.222 2.735.028 3.87.755 1.73 1.078 3.095 2.852 3.478 4.876-.13.5-.383 1.198.17 1.544-.161-.81.61-1.254 1.004-1.83.4-.527.53-1.205.466-1.852.918.66 1.535 1.76 1.523 2.9a4.2 4.2 0 0 1-.404 1.718q-.385.07-.765.163c.349-1.127.496-2.362.01-3.478-.022.87.224 1.926-.47 2.603-.37.404-.936.228-1.408.216-.28-.025-.54.114-.796.207-.391-1.972-1.482-3.771-2.987-5.096-.231-.2-.49-.36-.746-.523 1.233 1.34 2.263 2.917 2.75 4.685.3 1.044.179 2.224-.413 3.145-.413.595-1.011 1.023-1.486 1.565-.537-.286-1.147-.243-1.723-.333-.475-.329-.377-1.047-.031-1.438.203-.271.573-.262.866-.351a.78.78 0 0 0-.89-.077c-.63.345-.843 1.13-.809 1.805.071 1.315.836 2.458 1.662 3.432.706.856 1.542 1.589 2.35 2.347l.002.129c-1.529-.93-2.938-2.134-3.893-3.662-.63-1.057-1.07-2.286-.953-3.534.083-.76.487-1.57 1.24-1.854.76-.293 1.661.181 1.97.909.166.425.141.893.147 1.343.444-.191.645-.734.654-1.186-.09-1.072-1.058-1.88-2.078-2.055-.478-.437-.626-1.239-.207-1.768.586-.854.867-1.99.435-2.973-.48-1.081-1.507-1.82-2.537-2.332m87.671.955c1.183-.841 2.716-1.235 4.146-.93-1.002.48-1.976 1.204-2.473 2.227-.477.995-.206 2.175.398 3.053.37.468.302 1.142-.05 1.602-.135.267-.48.224-.717.332-.82.314-1.527 1.112-1.514 2.021.055.407.237.893.65 1.054.007-.447-.018-.915.145-1.34.312-.727 1.212-1.199 1.973-.91.75.287 1.153 1.091 1.24 1.85.117 1.244-.324 2.476-.953 3.532-.953 1.541-2.38 2.73-3.9 3.685l.012-.151c.568-.564 1.197-1.069 1.733-1.667.925-.995 1.844-2.091 2.177-3.441.175-.73.15-1.586-.349-2.184-.287-.363-.872-.564-1.248-.212.394.068.86.16 1.02.585.287.434.139 1.303-.502 1.254-.487-.031-.94.117-1.397.255-.684-.671-1.526-1.278-1.837-2.224-.34-.893-.284-1.888.018-2.781.524-1.636 1.492-3.096 2.651-4.353-1.168.7-2.044 1.805-2.731 2.963-.49.817-.786 1.729-.999 2.65-.447-.253-.956-.22-1.446-.16-.512.076-.95-.346-1.113-.795-.228-.672-.12-1.39-.095-2.083a4.1 4.1 0 0 0-.333 1.864c-.004.56.222 1.081.323 1.626a17 17 0 0 0-.758-.16c-.38-.77-.518-1.672-.32-2.514a3.73 3.73 0 0 1 1.433-2.11c-.065.65.065 1.325.465 1.852.398.579 1.166 1.026 1.012 1.839.548-.36.283-1.054.166-1.559.36-1.904 1.6-3.58 3.172-4.67"/><path fill="#f9dca0" d="M21.285 94.371c.114-1.632 1.446-3.102 3.08-3.32 1.187-.189 2.522.354 3.068 1.46-.346-.198-.713-.407-1.129-.37.309.24.657.514.574.958-.497.145-.904-.222-1.344-.37a1.37 1.37 0 0 0-1.474.296c-.814.749-.907 2.015-.53 3.003.413 1.085 1.137 2.04 2.013 2.795 1.486 1.266 3.447 1.774 5.34 2.02.758.077 1.535.145 2.287-.018a16 16 0 0 0-.86-.077c.212-.21.357-.555.684-.585 1.19-.148 2.426-.238 3.524-.761-1.282.228-2.593.545-3.9.357a19 19 0 0 0 7.014-2.508c.758-.446 1.461-.973 2.176-1.484a3.8 3.8 0 0 0 0 1.346c-1.93 1.497-3.989 2.88-6.301 3.715-2.155.77-4.483 1.208-6.767.887-2.29-.314-4.49-1.457-5.972-3.244-.928-1.142-1.597-2.6-1.483-4.1m18.748-2.815c1.461-.709 3.28-.789 4.695.08.78.41 1.335 1.109 1.8 1.836q-.017.607-.003 1.213c-.801-1.25-1.997-2.304-3.446-2.717-.327-.101-.672-.083-1.008-.052.946.317 1.865.773 2.59 1.47.332.32.428.813.397 1.256-.068.684-.598 1.248-.57 1.95.009.709.456 1.294.715 1.926-.842-.576-1.292-1.54-1.637-2.468-.006.733.351 1.402.715 2.018.305.533.77.942 1.11 1.45-1.166-.548-2.343-1.386-2.765-2.655-.17-.52-.158-1.281.413-1.546.564-.203 1.02.311 1.294.736.118-.625-.305-1.278-.918-1.43-.296-.1-.595.02-.891.05-.537-.228-.395-.893-.512-1.355-.148-.955-1.008-1.716-1.98-1.762m17.398.68c.866-.776 2.016-1.26 3.19-1.235.812-.012 1.598.231 2.335.555-.88.049-1.693.668-1.918 1.524-.163.453-.05.986-.308 1.402-.244.373-.676.034-1.018.117-.675.086-1.19.786-1.054 1.457.277-.422.721-.933 1.289-.74.545.244.588.962.444 1.467-.364 1.232-1.462 2.08-2.566 2.631l-.083-.092c.805-.925 1.637-1.993 1.684-3.266-.346.928-.802 1.892-1.644 2.47.247-.594.654-1.139.715-1.798.111-.915-.764-1.642-.545-2.566.068-.669.675-1.054 1.178-1.402.545-.382 1.171-.616 1.794-.844-1.1-.15-2.134.444-2.972 1.094a7 7 0 0 0-1.483 1.678c.006-.41.01-.816-.003-1.222.302-.42.57-.878.965-1.23m18.118.278c.549-1.11 1.88-1.651 3.07-1.464 1.638.22 2.973 1.692 3.084 3.327.11 1.5-.558 2.958-1.496 4.098-1.486 1.786-3.68 2.926-5.974 3.24-2.285.321-4.612-.117-6.764-.89-2.313-.835-4.372-2.215-6.302-3.712a3.8 3.8 0 0 0 0-1.34c1.378 1.02 2.827 1.965 4.415 2.63a19.4 19.4 0 0 0 4.766 1.356c-1.267.219-2.522-.185-3.777-.277 1.055.4 2.186.551 3.302.662.383-.015.564.357.793.598-.29.024-.577.049-.864.089 1.295.219 2.62.006 3.894-.271 1.739-.379 3.444-1.192 4.59-2.59.815-1.002 1.564-2.259 1.333-3.602-.124-.835-.753-1.743-1.674-1.743-.666-.025-1.166.637-1.841.477-.093-.447.262-.72.567-.967-.407-.031-.774.181-1.122.379"/><path fill="#f9dca0" d="M25.45 93.256c.496.21 1.02.545 1.569.277-.151.921-1.785.718-1.726-.181.037-.025.117-.074.157-.096m50.508.274c.546.265 1.07-.055 1.56-.27.311.036.166.418.015.563-.428.48-1.427.419-1.575-.293m-30.571.66c.432.51.694 1.204.558 1.876-.117.44-.404.834-.437 1.3-.019.286.009.576.018.865-.345-.382-.496-.896-.607-1.386-.102-.56.271-1.044.419-1.556.12-.357.062-.736.05-1.1M57.007 95.8c-.034-.59.219-1.167.589-1.617-.09.604.028 1.208.308 1.75.398.767.025 1.676-.45 2.317.01-.426.09-.866-.059-1.276-.13-.388-.376-.751-.388-1.174m-44.185 2.397c.512-.098 1.046-.003 1.56-.126-.157.24-.305.487-.471.72-.537.417-1.089.83-1.486 1.39.003-.656-.195-1.513.397-1.984m75.783-.127c.511.127 1.045.029 1.556.127.592.468.398 1.322.398 1.981-.398-.558-.946-.97-1.483-1.383-.17-.234-.317-.48-.471-.724m-51.853 3.986a19.9 19.9 0 0 0 5.482-3.946l.092.191c-.305.413-.709.733-1.082 1.084-2.047 1.809-4.291 3.432-6.798 4.544-2.047.897-4.285 1.491-6.535 1.297-1.055-.086-2.14-.422-2.923-1.161-.515-.518-.811-1.411-.389-2.067.256-.389.783-.355 1.157-.179-.309.277-.685.579-.694 1.035-.062.308.102.579.287.807.046-.453.021-1.134.598-1.238-.102.471-.355 1.029.003 1.454.194.286.56.265.866.274-.074-.287-.182-.783.287-.699 1.36.184 2.654.862 4.057.671 1.998-.249 3.81-1.198 5.592-2.067m24.001-3.946c1.495 1.516 3.222 2.809 5.127 3.764 1.699.857 3.419 1.729 5.287 2.151 1.233.28 2.497.015 3.678-.367.469-.099 1.011-.379 1.45-.059-.053.176-.1.361-.146.543.312-.007.685.021.882-.271.36-.426.105-.986.003-1.458.58.108.552.792.601 1.248.185-.234.346-.508.284-.819-.012-.453-.385-.752-.69-1.029.33-.136.758-.219 1.044.058.444.435.355 1.155.102 1.67-.422.807-1.313 1.226-2.145 1.482-1.792.449-3.688.215-5.442-.278-3.385-.979-6.36-3-8.98-5.304-.392-.37-.824-.709-1.144-1.14z"/><path fill="#f9dca0" d="M37.002 103.332c2.109-1.235 3.847-2.975 5.592-4.66q.195.222.395.44c-2.565 3.182-5.552 6.103-9.138 8.12-3.915 2.252-8.533 3.472-13.053 2.868-2.235-.323-4.495-1.041-6.258-2.501-1.317-1.087-2.263-2.748-2.165-4.491.059-1.852 1.428-3.642 3.265-4.027 1.369-.32 2.935.669 3.083 2.098-.395-.256-.758-.604-1.264-.585.29.209.795.505.521.927-.355.216-.746-.028-1.057-.209-.481-.305-1.036-.632-1.628-.503-.706.355-1.107 1.137-1.209 1.898-.178 1.189.272 2.384.956 3.339a7.56 7.56 0 0 0 3.077 2.416c1.085.458 2.256.665 3.419.813 1.917.191 3.903.262 5.774-.262-.647-.086-1.298.052-1.948.003.36-.641 1.18-.493 1.788-.647 1.113-.24 2.272-.419 3.286-.955-2.827.69-5.762 1.051-8.672.758-.67-.096-1.372-.114-1.982-.425 2.805.493 5.697.243 8.456-.413 3.16-.733 6.055-2.258 8.762-4.002m23.384-4.66c1.486 1.426 2.95 2.895 4.658 4.063 2.698 1.75 5.504 3.425 8.617 4.309 3.08.891 6.358 1.251 9.533.706-.49.262-1.051.296-1.588.379-3.03.369-6.11.018-9.06-.718.662.404 1.442.533 2.185.733.756.2 1.535.281 2.303.422.274.022.429.268.592.459-.654.034-1.307-.074-1.958-.027 1.067.369 2.214.4 3.333.422 1.724-.004 3.462-.182 5.118-.675 1.776-.558 3.391-1.762 4.273-3.419.505-.949.718-2.095.391-3.14-.194-.557-.545-1.109-1.094-1.37-.74-.161-1.35.372-1.964.687-.268.154-.78.194-.808-.219.031-.348.386-.496.62-.693-.506-.009-.882.339-1.276.604.092-.78.595-1.473 1.288-1.833.752-.435 1.699-.407 2.482-.062a4.4 4.4 0 0 1 2.522 3.268c.222 1.245-.117 2.542-.81 3.589-.941 1.436-2.443 2.403-4.012 3.032-3.114 1.235-6.591 1.333-9.844.653-4.032-.838-7.76-2.862-10.892-5.505a40 40 0 0 1-5-5.216c.132-.154.262-.301.391-.45"/><path fill="#f9dca0" d="M28.916 100.159c1.131 0 2.262.114 3.397.062-.083.271-.404.308-.641.354-.937.09-1.853-.203-2.756-.416m42.39.062c.922.056 1.84-.083 2.763-.074-1.098.25-2.344.758-3.422.188.16-.197.437-.098.66-.114m-26.305.213.672.277c.287.822.608 1.771.151 2.6-.259.579-1.026.955-1.587.551-.33-.16-.253-.567-.272-.859-.58.511-.246 1.423.373 1.728-.12.622-.709 1.01-.854 1.623-.19.561.031 1.159.38 1.608-.713-.246-1.496-.489-1.952-1.133-.919-1.088-.999-2.625-.678-3.956.13 1.273.379 2.711 1.452 3.549-.34-.745-.629-1.522-.7-2.344.271-.077.58-.093.798-.29.414-.397.515-1.019.95-1.398.228-.194.614-.308.851-.071.336.308.059.77.006 1.137.549-.219.86-.844.743-1.417-.018-.549.003-1.134-.333-1.605m12.313.274c.222-.093.447-.182.67-.277-.337.474-.315 1.062-.334 1.617-.114.567.191 1.189.74 1.402-.043-.346-.286-.74-.055-1.057.188-.293.607-.243.85-.052.49.363.583 1.035 1.018 1.447.216.201.524.213.792.287-.061.822-.36 1.596-.69 2.344 1.067-.841 1.316-2.273 1.443-3.546.33 1.353.237 2.927-.725 4.014-.456.607-1.211.832-1.896 1.072.336-.456.561-1.044.37-1.605-.145-.616-.737-1.001-.85-1.623.628-.311.946-1.223.37-1.737-.02.292.06.705-.266.865-.558.404-1.326.034-1.588-.542-.46-.832-.138-1.784.151-2.609m-41.53 1.097c-.086-.33.311-.432.54-.29.53.262 1.079.631 1.701.453-.468.872-1.914.745-2.241-.163"/><path fill="#f9dca0" d="M42.958 101.629c.497-.364 1.323-.404 1.696.16-.373-.031-.783-.074-1.1.166-.494.305-.679.878-1.015 1.316-.136.182-.373.225-.549.08.148-.65.42-1.312.968-1.722m15.366.163c.37-.564 1.196-.53 1.695-.166.543.403.824 1.056.965 1.703-.055.037-.163.114-.219.151-.607-.271-.675-1.047-1.199-1.423-.33-.32-.81-.326-1.242-.265m28.338-.277c.225-.142.62-.046.543.283-.327.912-1.779 1.048-2.238.167.62.185 1.165-.194 1.695-.45m-79.217.308c.42.136.864.139 1.286.259.256.058.166.329.102.505-.145.422-.111.872-.108 1.309-.512-.631-.987-1.309-1.28-2.073m86.607.357c.46-.24 1-.194 1.486-.354-.287.767-.774 1.436-1.273 2.079a4.8 4.8 0 0 0-.213-1.725"/><path fill="url(#b)" d="M31.027 13.366c7.18-3.866 15.47-5.638 23.606-5.034 9.45.662 18.65 4.544 25.69 10.88 6.718 5.952 11.472 14.057 13.412 22.815 1.957 8.66 1.137 17.913-2.3 26.098a43.25 43.25 0 0 1-29.297 25.248c.166-.453.37-.961.835-1.183.4-.21.838.006 1.224.145-.154-.58-.626-.973-1.067-1.34 3.915-1.198 7.68-2.902 11.092-5.172a41.23 41.23 0 0 0 15.015-17.8 41 41 0 0 0 3.419-14.42c.536-9.595-2.46-19.327-8.281-26.976-5.186-6.906-12.628-12.07-20.897-14.567a41.2 41.2 0 0 0-20.31-.928c-8.185 1.67-15.816 5.912-21.556 11.974-5.898 6.183-9.782 14.245-10.935 22.707a41.1 41.1 0 0 0 1.837 19c2.738 8.038 8.046 15.169 14.955 20.104a41.2 41.2 0 0 0 12.033 5.94.74.74 0 0 1 .318.184c-.447.333-.876.736-1.03 1.29.388-.135.826-.353 1.23-.138.456.222.66.724.826 1.174-8.274-2.076-15.886-6.685-21.568-13.043-6.258-6.94-10.15-15.96-10.905-25.273-.736-8.653 1.224-17.51 5.55-25.041a43.34 43.34 0 0 1 17.104-16.644"/><path fill="#f5c35f" d="M50.299 95.548c-.29-2.033.493-4.002 1.214-5.856.296 1.02.765 1.98.99 3.022.24 1.078.376 2.224.08 3.305-.15.493-.545 1.001-1.094 1.045-.728-.084-1.122-.857-1.19-1.516"/><path fill="#f9dca0" d="M49.707 82.653c.166-1.001.89-1.842 1.782-2.289.894.44 1.615 1.282 1.785 2.277.037.304.145.662-.102.911a2.85 2.85 0 0 0-1.156-1.87c.225.401.533.777.598 1.245.01.296-.278.558-.57.453a2.2 2.2 0 0 0-1.107 0c-.293.102-.58-.16-.57-.456.061-.468.37-.844.597-1.242-.625.432-1.026 1.119-1.159 1.861-.24-.243-.135-.594-.098-.89m.712 1.087c.364.17.718-.009 1.073-.101.354.095.706.27 1.07.101-.151.496-.497 1.03-1.073 1.05-.57-.024-.919-.554-1.07-1.05m.826 3.226c.3-.173.608.058.879.178 1.18.635 1.856 1.876 2.39 3.056.785 1.88.964 3.992.662 5.998-.139 1.06-.694 2.027-1.4 2.813.078-.456.312-.863.404-1.313.296-1.177.24-2.409.003-3.589.118-1.18.54-2.446 0-3.588-.351-.805-1.233-1.103-1.84-1.66-.34-.306-.595-.682-.848-1.054-.342.532-.743 1.047-1.28 1.398-.536.358-1.14.706-1.408 1.325-.466 1.016-.22 2.165-.028 3.216.096.437-.077.866-.12 1.297-.102.952-.053 1.928.203 2.852.102.398.318.767.364 1.183-.632-.81-1.236-1.697-1.387-2.738-.38-2.339-.111-4.84 1.023-6.944.537-1.01 1.27-2.018 2.383-2.43"/><path fill="#f9dca0" d="M49.13 90.863c.225-.697.903-1.073 1.47-1.458-.65 1.128-1.118 2.342-1.52 3.577-.08-.7-.172-1.436.05-2.12m3.253-1.46c.53.373 1.168.712 1.427 1.343.287.712.173 1.5.093 2.243-.395-1.241-.87-2.455-1.52-3.586m-2.606 9.125c.965.795 2.451.81 3.416.006-.345.598-.986 1.066-1.692 1.078-.722-.003-1.357-.493-1.724-1.084"/><path fill="#f5c35f" d="M45.468 81.427c.225.203.447.431.54.73.274.625-.08 1.31.117 1.95.219.8.826 1.457 1.538 1.858.262.141.666.289.891.006.346-.438.046-.99-.074-1.448.904.764.904 2.07.67 3.136l-.01.052q-.264.269-.518.542c.296-.748.481-1.543.38-2.353-.21.372-.562.733-1.027.696-.62-.09-1.181-.447-1.604-.9-.517-.582-.66-1.395-.567-2.15-.348.672-.117 1.417-.15 2.126q-.367-.053-.735-.086c-.274-.666-.4-1.442-.04-2.101.26-.466.404-.977.441-1.504.336.583.136 1.248-.117 1.818-.228.49-.083 1.029.108 1.5-.016-.354-.056-.709-.022-1.06.087-.579.423-1.106.417-1.7-.022-.385-.148-.746-.238-1.112m11.506.739c.092-.302.314-.533.539-.742-.086.366-.213.73-.237 1.112-.01.502.23.958.357 1.432.133.435.05.89.028 1.331.222-.499.336-1.075.083-1.586-.262-.546-.388-1.18-.098-1.744.061.36.089.733.246 1.072.173.388.398.764.426 1.198.055.465-.111.915-.26 1.35a11 11 0 0 0-.73.089c-.046-.706.213-1.463-.17-2.126.145.838-.092 1.765-.742 2.342-.395.345-.876.637-1.406.705-.472.043-.823-.32-1.036-.693-.105.81.086 1.605.379 2.356a14 14 0 0 0-.512-.542l-.01-.049c-.243-1.072-.236-2.384.673-3.154-.117.44-.398.94-.133 1.383.167.323.59.258.854.11.756-.39 1.397-1.071 1.628-1.903.207-.638-.148-1.319.12-1.94M17.182 84.85c.283.116.567.24.82.415 1.517 1.05 2.663 2.637 3.114 4.43.487-.339 1.079-.41 1.624-.598.574-.533.182-1.398.09-2.054.684.853.869 2.008.73 3.07l-.003.041q-.35.106-.697.231.021-.352-.015-.7c-.469.06-1.06.044-1.341.503-.32.403-.21.946-.163 1.42l.009.062a10 10 0 0 0-.262.237 8.8 8.8 0 0 0-.7-3.25c.07.829.364 1.67.13 2.501-.149.65-.734 1.115-.811 1.79-.096.669.086 1.33.27 1.965.084.265-.018.644-.317.727-.342.111-.678-.086-.934-.295-.438-.345-.65-.878-1.005-1.297.219 1.657 1.492 2.883 2.722 3.89.765.687 1.653 1.223 2.402 1.926-.496-.111-.928-.395-1.381-.613-.589-.336-1.19-.669-1.69-1.128a3 3 0 0 1-.006-.172c-.7-.835-1.443-1.651-1.917-2.643-.515-1.042-.839-2.326-.302-3.423-.013.73.073 1.544.585 2.107.071-.348.111-.705.247-1.038.42-1.001 1.332-1.728 1.634-2.785.268-.942-.012-1.947-.518-2.757-.595-1.007-1.452-1.799-2.315-2.563m1.83 9.81c.087.216.167.472.414.558-.222-.751-.293-1.525-.277-2.307-.358.505-.346 1.186-.136 1.75m64.465-8.033c.653-.73 1.396-1.433 2.333-1.778-.493.484-1.063.894-1.495 1.442-.808.943-1.563 2.107-1.43 3.407.095 1.146 1.01 1.944 1.544 2.893.262.422.336.918.426 1.395.515-.564.589-1.374.595-2.1.216.495.33 1.037.246 1.58-.178 1.63-1.177 3.025-2.256 4.201-.096.136-.296.253-.22.45-.505.462-1.11.798-1.701 1.134-.45.218-.879.502-1.375.607 1.35-1.174 2.907-2.138 4.066-3.525.528-.659.953-1.441 1.055-2.291-.404.495-.66 1.14-1.24 1.469-.271.182-.687.243-.925-.022-.296-.477.1-.988.142-1.484.173-.743.034-1.534-.447-2.132-.681-.961-.339-2.166-.185-3.229a8.6 8.6 0 0 0-.715 3.263c-.086-.083-.176-.17-.262-.25l.006-.046c.059-.499.16-1.081-.21-1.49-.299-.404-.85-.374-1.298-.435a5 5 0 0 0-.012.699q-.346-.124-.694-.231l-.002-.04c-.133-1.063.046-2.215.727-3.071-.086.656-.478 1.515.09 2.051.545.194 1.137.259 1.624.601.305-1.124.836-2.19 1.613-3.068m.363 6.296a8.2 8.2 0 0 1-.277 2.32c.287-.148.37-.477.469-.758.135-.511.144-1.124-.192-1.562M40.045 88.93c-.721-1.213-1.593-2.494-1.553-3.96.108.341.219.686.345 1.022.265-.021.561-.117.801.043.645.407.787 1.346 1.545 1.605.46.182 1.02-.178 1.02-.677-.132-.32-.363-.583-.542-.872.943.416 1.162 1.49 1.646 2.285q.713.134 1.415.327c.413.126.987-.17.864-.66-.229-.354-.61-.57-.907-.862.253.053.515.093.73.247.987.625 1.626 1.66 2.014 2.741q-.083.166-.16.336c-.309-.631-.518-1.315-.934-1.894.015.49.148 1.047-.195 1.463-.28.363-.804.305-1.187.17-.672-.256-1.353-.657-1.692-1.32-.235-.394-.401-.822-.598-1.231.021.536.052 1.238-.521 1.512-.648.342-1.308-.114-1.748-.567.268.601.844.97 1.251 1.467-.527-.16-.999-.447-1.495-.681.33.363.768.6 1.18.856q-.227.092-.446.207a5 5 0 0 0-.016-.213c-1.02-.564-1.766-1.513-2.26-2.554-.305-.662-.638-1.34-.668-2.082.508 1.201 1.1 2.433 2.111 3.293m-1.057-2.63c.382.857.937 1.645 1.665 2.246.444.363 1.165.203 1.489-.247.176-.24.194-.548.237-.831-.253.252-.524.557-.915.557-.595.046-1.076-.394-1.372-.862-.278-.38-.537-.958-1.104-.863m6.117 2.757c-.561.13-1.042-.32-1.597-.268.37.398.878.613 1.344.878.33.173.786.4 1.113.093.379-.355.178-.928-.053-1.303-.2.28-.44.573-.807.6m19.397-4.098c.022 1.467-.832 2.754-1.56 3.965 1.008-.853 1.606-2.076 2.093-3.281-.006.505-.175.986-.373 1.445-.512 1.275-1.307 2.514-2.546 3.182l-.003.2q-.232-.094-.463-.178c.413-.265.857-.503 1.19-.87-.505.235-.983.53-1.523.685.432-.48 1.005-.863 1.273-1.47-.342.3-.7.681-1.19.681-.44.043-.897-.243-1.017-.675-.083-.305-.05-.625-.055-.936-.287.567-.5 1.183-.913 1.679a3.64 3.64 0 0 1-1.526.906c-.352.101-.805.101-1.039-.22-.33-.418-.237-.976-.16-1.46-.472.549-.63 1.273-.974 1.889l-.151-.333c.27-.662.56-1.334 1.045-1.873.453-.505.986-1.035 1.698-1.106-.299.29-.675.509-.906.863-.12.49.453.786.87.656.465-.126.937-.237 1.414-.323.481-.801.7-1.873 1.644-2.286-.188.379-.746.77-.432 1.23.21.387.75.455 1.104.236.607-.36.764-1.155 1.36-1.528.237-.15.526-.061.788-.043q.186-.517.352-1.035m-1.286 1.747c-.373.52-.724 1.201-1.427 1.306-.481.117-.885-.206-1.18-.54.042.281.06.586.237.83.32.446 1.039.613 1.486.252.727-.598 1.285-1.392 1.67-2.249-.332-.067-.62.133-.786.4m-6.19 3.053c.354.33.835.049 1.187-.133.431-.262.937-.447 1.258-.856-.552-.022-1.03.41-1.588.283-.36-.025-.598-.317-.802-.582-.25.37-.428.943-.055 1.288M42.07 91.92c.336-.032.682-.05 1.008.052 1.45.412 2.646 1.466 3.447 2.717.034.184.05.372.059.563q-.276-.32-.561-.631c.259.536.484 1.106.496 1.71.019.739-.025 1.512.3 2.202.135.379.468.736.335 1.164-.626-.009-1.07-.52-1.538-.865.188.434.536.764.817 1.137q-.505-.204-1.011-.404l-.031-.046c-.336-.509-.805-.918-1.11-1.451-.364-.616-.722-1.285-.715-2.018.345.927.798 1.889 1.637 2.468-.26-.632-.706-1.217-.716-1.926-.027-.702.503-1.266.57-1.95.032-.443-.064-.94-.397-1.257-.728-.693-1.643-1.149-2.59-1.466m3.318 2.27c.012.363.07.742-.05 1.096-.148.515-.518.995-.419 1.556.111.49.262 1.004.607 1.386-.009-.29-.037-.58-.018-.866.034-.465.32-.86.438-1.3.135-.668-.127-1.364-.558-1.873m12.557-1.175c.838-.65 1.87-1.245 2.971-1.094-.622.228-1.248.462-1.794.844-.502.348-1.106.733-1.177 1.402-.22.927.656 1.651.545 2.566-.058.656-.465 1.204-.715 1.799.845-.58 1.298-1.543 1.643-2.47-.05 1.272-.878 2.34-1.683 3.265l.083.092.031.03c-.456.195-.91.386-1.381.534.367-.324.703-.693.9-1.146-.465.351-.913.863-1.541.863-.124-.5.286-.9.416-1.353.36-.896.077-1.885.348-2.797.083-.323.237-.625.37-.927-.188.203-.37.413-.555.622q0-.28.05-.551a7.2 7.2 0 0 1 1.489-1.68m-.938 2.788c.013.422.262.782.389 1.173.15.41.07.85.058 1.276.475-.641.848-1.55.45-2.317a2.88 2.88 0 0 1-.308-1.75c-.37.453-.623 1.026-.589 1.618"/><path fill="#f5c35f" d="M26.305 92.14c.413-.036.78.173 1.128.37.456.783-.068 1.895-.94 2.11-.885.327-1.838-.508-1.81-1.407-.53.286-.965.807-.987 1.432-.095 1.374.731 2.634 1.74 3.5 1.997 1.599 4.72 1.953 7.189 1.614 1.307.188 2.617-.132 3.9-.357-1.098.523-2.334.613-3.524.761-.327.03-.472.375-.685.585q.43.027.86.077c-.752.163-1.529.095-2.287.018-1.896-.246-3.857-.757-5.34-2.02-.878-.755-1.6-1.713-2.013-2.794-.376-.99-.284-2.255.53-3.004.38-.376.978-.505 1.474-.296.44.151.848.515 1.344.37.077-.444-.271-.718-.58-.958m-.854 1.116c-.04.025-.118.07-.158.096-.058.899 1.576 1.102 1.727.181-.552.268-1.073-.067-1.57-.277m3.465 6.903c.903.216 1.819.509 2.756.416.237-.046.558-.083.641-.354-1.134.052-2.266-.062-3.397-.062m46.635-7.646c.348-.197.712-.407 1.128-.376-.305.246-.66.52-.567.967.675.16 1.174-.502 1.84-.477.922 0 1.55.905 1.674 1.743.228 1.343-.52 2.597-1.332 3.601-1.147 1.399-2.851 2.212-4.59 2.591-1.273.277-2.6.487-3.894.271q.43-.054.863-.089c-.228-.24-.41-.616-.792-.598-1.12-.111-2.248-.262-3.302-.662 1.258.092 2.513.496 3.777.277 1.566.204 3.19.163 4.707-.308 1.268-.41 2.504-1.084 3.318-2.162.622-.817 1.085-1.864.87-2.905-.093-.524-.506-.912-.941-1.171.024.893-.919 1.731-1.804 1.414-.875-.219-1.409-1.328-.955-2.116m.41 1.016c.148.709 1.143.773 1.575.29.151-.145.296-.527-.015-.564-.49.219-1.012.54-1.56.274m-4.653 6.691c-.218.016-.496-.083-.656.117 1.079.57 2.321.062 3.422-.188-.925-.012-1.844.127-2.766.071M8.512 92.286c.256.163.515.323.747.523 1.501 1.325 2.595 3.124 2.987 5.096.256-.093.515-.235.795-.207.472.013 1.04.185 1.41-.215.693-.678.446-1.738.468-2.604.487 1.113.339 2.35-.01 3.478l-.009.037c-.342.108-.665.262-.992.404.166-.234.314-.48.471-.72-.511.122-1.048.027-1.56.125-.592.472-.394 1.325-.397 1.984-.077.102-.151.21-.229.314-.058-1.062-.212-2.125-.554-3.136-.016 1.002.17 2.015-.025 3.007-.271 1.017-.913 1.922-.977 2.997-.043.336-.068.826-.45.955-.47-.034-.565-.588-.552-.961 0-.585.407-1.032.777-1.438.379-.438.662-.986.665-1.578-.132.333-.25.681-.474.968-.386.526-1.015.871-1.243 1.509-.197.468-.132.992.022 1.466-.58.364-.965-.422-1.332-.742.34.955 1.064 1.707 1.8 2.375.836.733 1.68 1.457 2.556 2.141-.57-.203-1.103-.505-1.612-.829v-.046l-.003-.129c-.808-.758-1.643-1.491-2.35-2.347-.826-.974-1.59-2.12-1.661-3.432-.034-.672.176-1.457.808-1.805a.78.78 0 0 1 .89.077c-.292.089-.665.08-.866.35-.345.392-.444 1.11.031 1.439.577.093 1.187.047 1.723.333.475-.542 1.073-.97 1.486-1.565.595-.92.713-2.1.414-3.145-.49-1.762-1.52-3.34-2.754-4.68m-1.066 9.537c.293.764.764 1.442 1.28 2.073-.004-.437-.038-.89.107-1.309.065-.176.154-.447-.102-.505-.419-.12-.866-.123-1.285-.259m84.291-6.57c.688-1.158 1.563-2.26 2.732-2.963-1.157 1.257-2.128 2.717-2.652 4.352-.302.894-.357 1.889-.018 2.782.311.946 1.153 1.553 1.837 2.224.456-.138.91-.286 1.397-.255.64.049.789-.817.502-1.254-.16-.425-.626-.518-1.02-.585.379-.352.962-.151 1.248.212.5.601.524 1.457.349 2.184-.333 1.35-1.252 2.446-2.177 3.441-.54.598-1.165 1.1-1.733 1.667l-.012.151c-.468.363-1.045.634-1.603.853a56 56 0 0 0 2.624-2.212c.709-.647 1.393-1.383 1.723-2.298-.373.345-.663.903-1.252.863-.11-.392.154-.783.05-1.18-.068-.672-.583-1.143-1.045-1.574-.383-.358-.617-.829-.78-1.319-.01.758.465 1.393.958 1.916.444.459.626 1.18.355 1.772-.096.218-.425.397-.614.184-.308-.388-.225-.911-.336-1.364-.185-.918-.743-1.713-.934-2.628-.142-.952.01-1.913.006-2.868-.348 1.008-.493 2.073-.558 3.133l-.228-.314c.003-.66.198-1.51-.397-1.981-.512-.099-1.046-.003-1.557-.126.154.24.302.49.468.724-.33-.142-.65-.296-.99-.404l-.009-.037c-.101-.545-.326-1.066-.323-1.626a4.1 4.1 0 0 1 .333-1.864c-.025.693-.13 1.41.095 2.082.164.45.598.872 1.113.795.49-.058.996-.092 1.446.16.216-.915.512-1.826 1.002-2.643m2.315 6.928c.18.558.244 1.137.213 1.722.5-.643.987-1.309 1.273-2.079-.487.163-1.023.117-1.486.357"/><path fill="#f5c35f" d="M39.762 99.713c.823-.582 1.55-1.282 2.293-1.96q.087.177.18.358a19.9 19.9 0 0 1-5.482 3.946c-1.782.869-3.595 1.818-5.587 2.064-1.402.191-2.7-.487-4.057-.671-.472-.084-.364.412-.287.699-.305-.009-.672.015-.866-.274-.358-.425-.105-.986-.003-1.454-.577.104-.555.785-.598 1.238-.188-.228-.352-.499-.287-.807.01-.456.385-.755.694-1.035.311.157.635.283.962.397-.37.296-.626.736-.509 1.223.271-.477.69-.875 1.273-.884-.07.206-.117.422-.123.644.33-.376.814-.595 1.316-.511 2.612.354 5.281-.136 7.708-1.119 1.18-.505 2.349-1.069 3.372-1.854m-8.59 3.623c-.712.067-1.433-.028-2.142.077a4.98 4.98 0 0 0 3.869-.296c-.583.028-1.147.188-1.727.219m29.759-5.582c1.285 1.201 2.635 2.381 4.235 3.151 2.793 1.439 6.009 2.199 9.147 1.781.5-.081.98.138 1.31.508a2.3 2.3 0 0 0-.123-.641c.58.012 1 .407 1.27.881.12-.484-.141-.921-.502-1.22a9 9 0 0 0 .962-.397c.305.28.675.576.69 1.029.062.311-.098.585-.283.819-.05-.456-.022-1.137-.602-1.247.102.471.355 1.028-.003 1.457-.197.292-.573.265-.881.271.05-.182.092-.367.145-.542-.438-.321-.98-.041-1.45.058-1.18.382-2.444.647-3.677.367-1.869-.422-3.589-1.297-5.288-2.151-1.905-.955-3.631-2.251-5.127-3.764l.176-.36m9.146 5.375c1.19.589 2.605.712 3.873.296-.7-.133-1.419-.012-2.125-.086-.588-.025-1.156-.213-1.748-.21M17.46 100.6c.502-.015.869.33 1.263.585l.056.037c.034.949-.552 2.03-1.56 2.166-.913.058-1.693-.622-2.038-1.42l-.114.003c-.407 1.21-.24 2.637.536 3.666.765.976 1.943 1.534 3.117 1.848.349.111.728.117 1.067.265.614.311 1.316.33 1.982.425 2.908.296 5.843-.068 8.673-.758-1.015.539-2.177.715-3.287.955-.607.154-1.43.006-1.788.647.65.049 1.298-.089 1.948-.003-1.87.527-3.856.453-5.774.262-1.162-.151-2.334-.354-3.419-.813a7.53 7.53 0 0 1-3.077-2.416c-.684-.958-1.134-2.15-.955-3.339.101-.758.505-1.543 1.208-1.897.592-.127 1.147.197 1.628.502.311.181.703.422 1.057.209.275-.419-.23-.715-.524-.924m-1.675 1.204c.33.912 1.773 1.039 2.242.164-.623.178-1.172-.191-1.702-.453-.231-.142-.626-.043-.54.289m4.68 6.83c1.332.253 2.692.382 4.048.354.237-.024.583-.055.63-.351-1.037.059-2.076.099-3.112.052-.52-.021-1.042-.132-1.566-.055m21.943-7.174c.472-.577 1.282-1.02 2.029-.709.625.219.764.977.73 1.559q.083-.138.17-.271c.117.573-.194 1.195-.743 1.417.049-.37.33-.832-.007-1.137-.237-.237-.625-.126-.85.071-.435.379-.54 1.001-.95 1.398-.219.198-.527.213-.798.29.07.822.36 1.596.7 2.344-1.073-.838-1.323-2.276-1.453-3.549.056-.295.145-.606.343-.841.024.573-.074 1.18.15 1.729.04-.804.152-1.661.679-2.301m.552.169c-.549.41-.823 1.072-.968 1.719.175.145.413.102.548-.08.337-.438.524-1.011 1.015-1.316.317-.24.727-.194 1.1-.166-.37-.561-1.196-.521-1.695-.157m15.396-.783c.607-.375 1.387-.169 1.893.281.786.625.977 1.685 1.008 2.631.219-.555.126-1.165.154-1.744.173.253.29.548.339.853-.127 1.273-.38 2.705-1.443 3.546.33-.749.629-1.519.69-2.344-.27-.074-.579-.087-.792-.287-.434-.413-.524-1.084-1.017-1.448-.243-.191-.663-.237-.85.053-.232.317.011.711.055 1.056-.55-.215-.851-.834-.74-1.401q.087.126.175.262c-.037-.518.056-1.146.528-1.458m-.031.946c.431-.058.912-.055 1.245.265.524.376.592 1.152 1.2 1.423l.218-.151c-.141-.643-.422-1.297-.965-1.703-.502-.364-1.325-.398-1.698.166m25.936-.601c.395-.261.768-.613 1.277-.603-.234.197-.589.345-.62.693.028.413.54.376.808.219.614-.315 1.224-.851 1.964-.687.549.261.9.813 1.094 1.37.324 1.045.114 2.191-.391 3.139-.882 1.658-2.497 2.862-4.273 3.42-1.656.493-3.394.671-5.118.674-1.119-.021-2.263-.052-3.333-.422.654-.043 1.304.062 1.958.028-.163-.191-.314-.437-.592-.459-.768-.142-1.547-.222-2.303-.422-.743-.2-1.52-.329-2.186-.733 2.95.736 6.03 1.087 9.061.718.537-.083 1.098-.117 1.588-.379 1.332-.305 2.728-.675 3.752-1.639 1.048-.936 1.39-2.477 1.073-3.814-.062-.114-.025-.382-.213-.329-.296.644-.826 1.213-1.538 1.377-.623.185-1.28-.161-1.625-.675-.34-.4-.404-.936-.438-1.439zm2.402.324c-.53.256-1.076.635-1.695.447.456.884 1.911.748 2.238-.167.077-.326-.318-.422-.543-.28m-5.703 7.178c-1.042.049-2.084.006-3.123-.05.095.336.493.342.777.358 1.307 0 2.623-.105 3.906-.37-.521-.068-1.042.034-1.56.062"/><path fill="#e19a0e" d="M49.805 83.546c.136-.742.534-1.43 1.16-1.86-.226.397-.534.773-.599 1.241-.009.293.278.558.57.456a2.1 2.1 0 0 1 1.107 0c.293.105.58-.16.57-.453-.064-.468-.372-.844-.597-1.244a2.85 2.85 0 0 1 1.156 1.87c-.521.508-.432 1.407-1.104 1.77a1.05 1.05 0 0 1-1.162-.002c-.663-.37-.58-1.27-1.1-1.778m.614.194c.15.496.496 1.026 1.073 1.048.573-.022.921-.552 1.072-1.05-.363.169-.715-.007-1.07-.102-.357.095-.708.274-1.075.104m-.208 5.462c.54-.351.938-.863 1.28-1.399.253.373.508.752.848 1.054.607.558 1.489.856 1.84 1.66.54 1.143.12 2.41 0 3.59.237 1.179.293 2.411-.003 3.588-.093.45-.327.86-.404 1.312-.006.139-.148.207-.228.305-.558.518-1.28.878-2.05.918-.879-.046-1.705-.496-2.276-1.155-.046-.416-.261-.785-.363-1.183-.256-.927-.306-1.9-.204-2.852.043-.432.216-.863.12-1.297-.19-1.05-.437-2.2.028-3.216.272-.62.876-.968 1.412-1.325m-.656 4.26c-.321 1.433-.361 3.013.339 4.347.419.807 1.492 1.278 2.33.826 1-.484 1.267-1.692 1.4-2.693.188-2.569-.94-4.981-2.133-7.18-.796 1.493-1.582 3.028-1.936 4.7m-.426-2.6c-.225.684-.13 1.42-.05 2.12.398-1.236.87-2.45 1.52-3.577-.567.385-1.245.761-1.47 1.457m3.253-1.46c.65 1.13 1.125 2.344 1.52 3.586.083-.742.194-1.531-.093-2.243-.259-.631-.894-.97-1.427-1.343m-2.605 9.125c.366.591 1.002 1.081 1.723 1.084.706-.012 1.35-.48 1.693-1.078-.966.804-2.452.788-3.416-.006"/><path fill="#fcedd0" d="M19.013 94.66c-.21-.563-.222-1.244.136-1.749-.016.78.055 1.556.277 2.307-.246-.086-.326-.345-.413-.557m64.828-1.738c.337.438.327 1.05.192 1.562-.1.277-.185.607-.469.758a8.3 8.3 0 0 0 .277-2.32"/><path fill="#e19a0e" d="M31.172 103.335c.58-.03 1.144-.194 1.726-.218a4.98 4.98 0 0 1-3.869.295c.71-.104 1.43-.009 2.143-.077m38.904-.206c.592-.003 1.159.185 1.748.21.706.073 1.421-.047 2.124.086-1.267.416-2.68.292-3.872-.296"/><path fill="#fcedd0" d="M20.465 108.634c.524-.077 1.045.034 1.566.059 1.036.046 2.075.006 3.11-.053-.049.296-.394.327-.628.351a19.6 19.6 0 0 1-4.048-.357m60.494.059c.521-.025 1.039-.127 1.56-.065-1.283.268-2.599.37-3.906.37-.284-.016-.681-.022-.777-.358 1.039.056 2.08.099 3.123.053"/><defs><linearGradient id="a" x1="51.5" x2="51.5" y1="1.536" y2="86.251" gradientUnits="userSpaceOnUse"><stop stop-color="#feefd0"/><stop offset="1" stop-color="#fcd587"/></linearGradient><linearGradient id="b" x1="51.499" x2="51.499" y1="8.216" y2="93.373" gradientUnits="userSpaceOnUse"><stop stop-color="#feefd0"/><stop offset="1" stop-color="#fcd587"/></linearGradient></defs></svg>