<svg width="335" height="51" viewBox="0 0 335 51" fill="none" xmlns="http://www.w3.org/2000/svg">
<g filter="url(#filter0_ii_127_33115)">
<g clip-path="url(#clip0_127_33115)">
<rect width="335" height="51" rx="3" fill="url(#paint0_radial_127_33115)"/>
<g filter="url(#filter1_df_127_33115)">
<path d="M141.4 46.0919C140.902 46.8511 140.304 47.2306 140.085 46.9387C139.865 46.6175 140.085 45.7415 140.603 44.9823C141.101 44.2232 141.699 43.8436 141.918 44.1356C142.138 44.4275 141.898 45.3035 141.4 46.0919Z" fill="#F9DCA0"/>
</g>
<g filter="url(#filter2_df_127_33115)">
<path d="M180.171 42.6413C181.624 43.8447 182.792 45.3688 182.755 46.0277C182.717 46.6866 181.472 46.1997 179.987 44.9458C178.534 43.7424 177.366 42.2183 177.403 41.5594C177.473 40.9511 178.718 41.4379 180.171 42.6413Z" fill="#F9DCA0"/>
</g>
<g filter="url(#filter3_df_127_33115)">
<path d="M163.684 39.601C163.905 40.4981 163.778 41.1807 163.403 41.1627C163.042 41.1299 162.544 40.3616 162.323 39.4645C162.102 38.5674 162.229 37.8847 162.604 37.9027C162.973 37.9698 163.45 38.7186 163.684 39.601Z" fill="#F9DCA0"/>
</g>
<g filter="url(#filter4_df_127_33115)">
<path d="M128.117 49.2354C125.394 50.2641 124.227 50.3109 125.54 49.329C126.853 48.3938 130.16 46.8039 132.883 45.822C135.606 44.84 136.773 44.7465 135.46 45.7285C134.196 46.6637 130.889 48.2535 128.117 49.2354Z" fill="#F9DCA0"/>
</g>
<g filter="url(#filter5_df_127_33115)">
<circle cx="150.5" cy="32.5371" r="1.5" fill="#F9DCA0"/>
</g>
<g filter="url(#filter6_df_127_33115)">
<circle cx="201.5" cy="41.5371" r="0.5" fill="#F9DCA0"/>
</g>
<g filter="url(#filter7_df_127_33115)">
<circle cx="205.5" cy="45.5371" r="0.5" fill="#F9DCA0"/>
</g>
<g filter="url(#filter8_df_127_33115)">
<circle cx="210.5" cy="47.5371" r="0.5" fill="#F9DCA0"/>
</g>
<g filter="url(#filter9_df_127_33115)">
<circle cx="209.5" cy="43.5371" r="0.5" fill="#F9DCA0"/>
</g>
<g filter="url(#filter10_df_127_33115)">
<ellipse cx="199" cy="49.0371" rx="2" ry="1" fill="#F9DCA0"/>
</g>
<g filter="url(#filter11_df_127_33115)">
<ellipse cx="169" cy="45.5371" rx="3" ry="0.5" fill="#F9DCA0"/>
</g>
<path d="M329.353 25.8618C332.311 25.8618 334.694 28.2887 334.694 31.3013C334.694 33.7282 332.804 35.653 330.421 35.653C328.531 35.653 326.97 34.0629 326.97 32.1382C326.97 30.6319 328.203 29.3766 329.682 29.3766C330.914 29.3766 331.9 30.3808 331.9 31.6361C331.9 32.6403 331.079 33.3935 330.175 33.3935" stroke="#F9DCA0" stroke-miterlimit="10"/>
<path d="M329.353 25.8619C332.311 25.8619 334.694 23.4351 334.694 20.4224C334.694 17.9956 332.804 16.0708 330.421 16.0708C328.531 16.0708 326.97 17.6608 326.97 19.5856C326.97 21.0919 328.203 22.3472 329.682 22.3472C330.914 22.3472 331.9 21.343 331.9 20.0877C331.9 19.0835 331.079 18.3303 330.175 18.3303" stroke="#F9DCA0" stroke-miterlimit="10"/>
<path d="M330.01 25.8618H325.573" stroke="#F9DCA0" stroke-miterlimit="10"/>
<path d="M327.381 25.8618L323.191 23.686L319 25.8618L323.191 27.954L327.381 25.8618Z" fill="#F9DCA0"/>
<path d="M331.9 8.03711C334.119 10.2966 334.119 13.8114 331.9 16.0709" stroke="#F9DCA0" stroke-miterlimit="10"/>
<path d="M331.9 35.6533C334.119 37.9128 334.119 41.4276 331.9 43.6871" stroke="#F9DCA0" stroke-miterlimit="10"/>
<path d="M5.64694 25.8618C2.68894 25.8618 0.306097 28.2887 0.306097 31.3013C0.306097 33.7282 2.19594 35.653 4.57878 35.653C6.46861 35.653 8.02979 34.0629 8.02979 32.1382C8.02979 30.6319 6.79728 29.3766 5.31828 29.3766C4.08577 29.3766 3.09977 30.3808 3.09977 31.6361C3.09977 32.6403 3.92144 33.3935 4.82528 33.3935" stroke="#F9DCA0" stroke-miterlimit="10"/>
<path d="M5.64694 25.8619C2.68894 25.8619 0.306097 23.4351 0.306097 20.4224C0.306097 17.9956 2.19594 16.0708 4.57878 16.0708C6.46861 16.0708 8.02979 17.6608 8.02979 19.5856C8.02979 21.0919 6.79728 22.3472 5.31828 22.3472C4.08577 22.3472 3.09977 21.343 3.09977 20.0877C3.09977 19.0835 3.92144 18.3303 4.82528 18.3303" stroke="#F9DCA0" stroke-miterlimit="10"/>
<path d="M4.98975 25.8618H9.42676" stroke="#F9DCA0" stroke-miterlimit="10"/>
<path d="M7.61898 25.8618L11.8095 23.686L16 25.8618L11.8095 27.954L7.61898 25.8618Z" fill="#F9DCA0"/>
<path d="M3.09961 8.03711C0.881103 10.2966 0.881103 13.8114 3.09961 16.0709" stroke="#F9DCA0" stroke-miterlimit="10"/>
<path d="M3.09961 35.6533C0.881103 37.9128 0.881103 41.4276 3.09961 43.6871" stroke="#F9DCA0" stroke-miterlimit="10"/>
</g>
<rect x="0.5" y="0.5" width="334" height="50" rx="2.5" stroke="#F9DCA0"/>
</g>
<defs>
<filter id="filter0_ii_127_33115" x="0" y="0" width="335" height="51" filterUnits="userSpaceOnUse" color-interpolation-filters="sRGB">
<feFlood flood-opacity="0" result="BackgroundImageFix"/>
<feBlend mode="normal" in="SourceGraphic" in2="BackgroundImageFix" result="shape"/>
<feColorMatrix in="SourceAlpha" type="matrix" values="0 0 0 0 0 0 0 0 0 0 0 0 0 0 0 0 0 0 127 0" result="hardAlpha"/>
<feOffset/>
<feGaussianBlur stdDeviation="7.8"/>
<feComposite in2="hardAlpha" operator="arithmetic" k2="-1" k3="1"/>
<feColorMatrix type="matrix" values="0 0 0 0 0.658824 0 0 0 0 0.490196 0 0 0 0 0.376471 0 0 0 1 0"/>
<feBlend mode="normal" in2="shape" result="effect1_innerShadow_127_33115"/>
<feColorMatrix in="SourceAlpha" type="matrix" values="0 0 0 0 0 0 0 0 0 0 0 0 0 0 0 0 0 0 127 0" result="hardAlpha"/>
<feOffset/>
<feGaussianBlur stdDeviation="4.55"/>
<feComposite in2="hardAlpha" operator="arithmetic" k2="-1" k3="1"/>
<feColorMatrix type="matrix" values="0 0 0 0 1 0 0 0 0 0.607083 0 0 0 0 0.145833 0 0 0 0.44 0"/>
<feBlend mode="normal" in2="effect1_innerShadow_127_33115" result="effect2_innerShadow_127_33115"/>
</filter>
<filter id="filter1_df_127_33115" x="135.9" y="39.9371" width="10.2" height="11.2" filterUnits="userSpaceOnUse" color-interpolation-filters="sRGB">
<feFlood flood-opacity="0" result="BackgroundImageFix"/>
<feColorMatrix in="SourceAlpha" type="matrix" values="0 0 0 0 0 0 0 0 0 0 0 0 0 0 0 0 0 0 127 0" result="hardAlpha"/>
<feOffset/>
<feGaussianBlur stdDeviation="2.05"/>
<feComposite in2="hardAlpha" operator="out"/>
<feColorMatrix type="matrix" values="0 0 0 0 0.988235 0 0 0 0 0.368627 0 0 0 0 0.176471 0 0 0 1 0"/>
<feBlend mode="normal" in2="BackgroundImageFix" result="effect1_dropShadow_127_33115"/>
<feBlend mode="normal" in="SourceGraphic" in2="effect1_dropShadow_127_33115" result="shape"/>
<feGaussianBlur stdDeviation="0.55" result="effect2_foregroundBlur_127_33115"/>
</filter>
<filter id="filter2_df_127_33115" x="173.302" y="37.1974" width="13.553" height="13.2244" filterUnits="userSpaceOnUse" color-interpolation-filters="sRGB">
<feFlood flood-opacity="0" result="BackgroundImageFix"/>
<feColorMatrix in="SourceAlpha" type="matrix" values="0 0 0 0 0 0 0 0 0 0 0 0 0 0 0 0 0 0 127 0" result="hardAlpha"/>
<feOffset/>
<feGaussianBlur stdDeviation="2.05"/>
<feComposite in2="hardAlpha" operator="out"/>
<feColorMatrix type="matrix" values="0 0 0 0 0.988235 0 0 0 0 0.368627 0 0 0 0 0.176471 0 0 0 1 0"/>
<feBlend mode="normal" in2="BackgroundImageFix" result="effect1_dropShadow_127_33115"/>
<feBlend mode="normal" in="SourceGraphic" in2="effect1_dropShadow_127_33115" result="shape"/>
<feGaussianBlur stdDeviation="0.55" result="effect2_foregroundBlur_127_33115"/>
</filter>
<filter id="filter3_df_127_33115" x="158.114" y="33.8023" width="9.77861" height="11.4607" filterUnits="userSpaceOnUse" color-interpolation-filters="sRGB">
<feFlood flood-opacity="0" result="BackgroundImageFix"/>
<feColorMatrix in="SourceAlpha" type="matrix" values="0 0 0 0 0 0 0 0 0 0 0 0 0 0 0 0 0 0 127 0" result="hardAlpha"/>
<feOffset/>
<feGaussianBlur stdDeviation="2.05"/>
<feComposite in2="hardAlpha" operator="out"/>
<feColorMatrix type="matrix" values="0 0 0 0 0.988235 0 0 0 0 0.368627 0 0 0 0 0.176471 0 0 0 1 0"/>
<feBlend mode="normal" in2="BackgroundImageFix" result="effect1_dropShadow_127_33115"/>
<feBlend mode="normal" in="SourceGraphic" in2="effect1_dropShadow_127_33115" result="shape"/>
<feGaussianBlur stdDeviation="0.55" result="effect2_foregroundBlur_127_33115"/>
</filter>
<filter id="filter4_df_127_33115" x="120.9" y="40.9371" width="19.2" height="13.2" filterUnits="userSpaceOnUse" color-interpolation-filters="sRGB">
<feFlood flood-opacity="0" result="BackgroundImageFix"/>
<feColorMatrix in="SourceAlpha" type="matrix" values="0 0 0 0 0 0 0 0 0 0 0 0 0 0 0 0 0 0 127 0" result="hardAlpha"/>
<feOffset/>
<feGaussianBlur stdDeviation="2.05"/>
<feComposite in2="hardAlpha" operator="out"/>
<feColorMatrix type="matrix" values="0 0 0 0 0.988235 0 0 0 0 0.368627 0 0 0 0 0.176471 0 0 0 1 0"/>
<feBlend mode="normal" in2="BackgroundImageFix" result="effect1_dropShadow_127_33115"/>
<feBlend mode="normal" in="SourceGraphic" in2="effect1_dropShadow_127_33115" result="shape"/>
<feGaussianBlur stdDeviation="0.55" result="effect2_foregroundBlur_127_33115"/>
</filter>
<filter id="filter5_df_127_33115" x="144.9" y="26.9371" width="11.2" height="11.2" filterUnits="userSpaceOnUse" color-interpolation-filters="sRGB">
<feFlood flood-opacity="0" result="BackgroundImageFix"/>
<feColorMatrix in="SourceAlpha" type="matrix" values="0 0 0 0 0 0 0 0 0 0 0 0 0 0 0 0 0 0 127 0" result="hardAlpha"/>
<feOffset/>
<feGaussianBlur stdDeviation="2.05"/>
<feComposite in2="hardAlpha" operator="out"/>
<feColorMatrix type="matrix" values="0 0 0 0 0.988235 0 0 0 0 0.368627 0 0 0 0 0.176471 0 0 0 1 0"/>
<feBlend mode="normal" in2="BackgroundImageFix" result="effect1_dropShadow_127_33115"/>
<feBlend mode="normal" in="SourceGraphic" in2="effect1_dropShadow_127_33115" result="shape"/>
<feGaussianBlur stdDeviation="0.55" result="effect2_foregroundBlur_127_33115"/>
</filter>
<filter id="filter6_df_127_33115" x="196.9" y="36.9371" width="9.2" height="9.2" filterUnits="userSpaceOnUse" color-interpolation-filters="sRGB">
<feFlood flood-opacity="0" result="BackgroundImageFix"/>
<feColorMatrix in="SourceAlpha" type="matrix" values="0 0 0 0 0 0 0 0 0 0 0 0 0 0 0 0 0 0 127 0" result="hardAlpha"/>
<feOffset/>
<feGaussianBlur stdDeviation="2.05"/>
<feComposite in2="hardAlpha" operator="out"/>
<feColorMatrix type="matrix" values="0 0 0 0 0.988235 0 0 0 0 0.368627 0 0 0 0 0.176471 0 0 0 1 0"/>
<feBlend mode="normal" in2="BackgroundImageFix" result="effect1_dropShadow_127_33115"/>
<feBlend mode="normal" in="SourceGraphic" in2="effect1_dropShadow_127_33115" result="shape"/>
<feGaussianBlur stdDeviation="0.55" result="effect2_foregroundBlur_127_33115"/>
</filter>
<filter id="filter7_df_127_33115" x="200.9" y="40.9371" width="9.2" height="9.2" filterUnits="userSpaceOnUse" color-interpolation-filters="sRGB">
<feFlood flood-opacity="0" result="BackgroundImageFix"/>
<feColorMatrix in="SourceAlpha" type="matrix" values="0 0 0 0 0 0 0 0 0 0 0 0 0 0 0 0 0 0 127 0" result="hardAlpha"/>
<feOffset/>
<feGaussianBlur stdDeviation="2.05"/>
<feComposite in2="hardAlpha" operator="out"/>
<feColorMatrix type="matrix" values="0 0 0 0 0.988235 0 0 0 0 0.368627 0 0 0 0 0.176471 0 0 0 1 0"/>
<feBlend mode="normal" in2="BackgroundImageFix" result="effect1_dropShadow_127_33115"/>
<feBlend mode="normal" in="SourceGraphic" in2="effect1_dropShadow_127_33115" result="shape"/>
<feGaussianBlur stdDeviation="0.55" result="effect2_foregroundBlur_127_33115"/>
</filter>
<filter id="filter8_df_127_33115" x="205.9" y="42.9371" width="9.2" height="9.2" filterUnits="userSpaceOnUse" color-interpolation-filters="sRGB">
<feFlood flood-opacity="0" result="BackgroundImageFix"/>
<feColorMatrix in="SourceAlpha" type="matrix" values="0 0 0 0 0 0 0 0 0 0 0 0 0 0 0 0 0 0 127 0" result="hardAlpha"/>
<feOffset/>
<feGaussianBlur stdDeviation="2.05"/>
<feComposite in2="hardAlpha" operator="out"/>
<feColorMatrix type="matrix" values="0 0 0 0 0.988235 0 0 0 0 0.368627 0 0 0 0 0.176471 0 0 0 1 0"/>
<feBlend mode="normal" in2="BackgroundImageFix" result="effect1_dropShadow_127_33115"/>
<feBlend mode="normal" in="SourceGraphic" in2="effect1_dropShadow_127_33115" result="shape"/>
<feGaussianBlur stdDeviation="0.55" result="effect2_foregroundBlur_127_33115"/>
</filter>
<filter id="filter9_df_127_33115" x="204.9" y="38.9371" width="9.2" height="9.2" filterUnits="userSpaceOnUse" color-interpolation-filters="sRGB">
<feFlood flood-opacity="0" result="BackgroundImageFix"/>
<feColorMatrix in="SourceAlpha" type="matrix" values="0 0 0 0 0 0 0 0 0 0 0 0 0 0 0 0 0 0 127 0" result="hardAlpha"/>
<feOffset/>
<feGaussianBlur stdDeviation="2.05"/>
<feComposite in2="hardAlpha" operator="out"/>
<feColorMatrix type="matrix" values="0 0 0 0 0.988235 0 0 0 0 0.368627 0 0 0 0 0.176471 0 0 0 1 0"/>
<feBlend mode="normal" in2="BackgroundImageFix" result="effect1_dropShadow_127_33115"/>
<feBlend mode="normal" in="SourceGraphic" in2="effect1_dropShadow_127_33115" result="shape"/>
<feGaussianBlur stdDeviation="0.55" result="effect2_foregroundBlur_127_33115"/>
</filter>
<filter id="filter10_df_127_33115" x="192.9" y="43.9371" width="12.2" height="10.2" filterUnits="userSpaceOnUse" color-interpolation-filters="sRGB">
<feFlood flood-opacity="0" result="BackgroundImageFix"/>
<feColorMatrix in="SourceAlpha" type="matrix" values="0 0 0 0 0 0 0 0 0 0 0 0 0 0 0 0 0 0 127 0" result="hardAlpha"/>
<feOffset/>
<feGaussianBlur stdDeviation="2.05"/>
<feComposite in2="hardAlpha" operator="out"/>
<feColorMatrix type="matrix" values="0 0 0 0 0.988235 0 0 0 0 0.368627 0 0 0 0 0.176471 0 0 0 1 0"/>
<feBlend mode="normal" in2="BackgroundImageFix" result="effect1_dropShadow_127_33115"/>
<feBlend mode="normal" in="SourceGraphic" in2="effect1_dropShadow_127_33115" result="shape"/>
<feGaussianBlur stdDeviation="0.55" result="effect2_foregroundBlur_127_33115"/>
</filter>
<filter id="filter11_df_127_33115" x="161.9" y="40.9371" width="14.2" height="9.2" filterUnits="userSpaceOnUse" color-interpolation-filters="sRGB">
<feFlood flood-opacity="0" result="BackgroundImageFix"/>
<feColorMatrix in="SourceAlpha" type="matrix" values="0 0 0 0 0 0 0 0 0 0 0 0 0 0 0 0 0 0 127 0" result="hardAlpha"/>
<feOffset/>
<feGaussianBlur stdDeviation="2.05"/>
<feComposite in2="hardAlpha" operator="out"/>
<feColorMatrix type="matrix" values="0 0 0 0 0.988235 0 0 0 0 0.368627 0 0 0 0 0.176471 0 0 0 1 0"/>
<feBlend mode="normal" in2="BackgroundImageFix" result="effect1_dropShadow_127_33115"/>
<feBlend mode="normal" in="SourceGraphic" in2="effect1_dropShadow_127_33115" result="shape"/>
<feGaussianBlur stdDeviation="0.55" result="effect2_foregroundBlur_127_33115"/>
</filter>
<radialGradient id="paint0_radial_127_33115" cx="0" cy="0" r="1" gradientUnits="userSpaceOnUse" gradientTransform="translate(167.5 25.5) rotate(90) scale(25.5 167.5)">
<stop stop-color="#B38971"/>
<stop offset="1" stop-color="#5F5553"/>
</radialGradient>
<clipPath id="clip0_127_33115">
<rect width="335" height="51" rx="3" fill="white"/>
</clipPath>
</defs>
</svg>
