<svg width="61" height="61" viewBox="0 0 61 61" fill="none" xmlns="http://www.w3.org/2000/svg">
<path d="M60.0779 30.1223L30.1274 0.176758L0.176964 30.1223L30.1274 60.0678L60.0779 30.1223Z" stroke="#B57D0B" stroke-width="0.25" stroke-miterlimit="10"/>
<path d="M58.6894 30.1222L30.1274 1.56494L1.56545 30.1222L30.1274 58.6794L58.6894 30.1222Z" stroke="#B57D0B" stroke-width="0.25" stroke-miterlimit="10"/>
<path d="M29.8345 6.05638C42.9914 6.05638 53.6604 16.7254 53.6604 29.8823C53.6604 43.0392 42.9914 53.7083 29.8345 53.7083C16.6776 53.7083 6.00854 43.0392 6.00854 29.8823C6.00854 16.7254 16.6776 6.05638 29.8345 6.05638ZM29.8345 4.88232C26.4614 4.88232 23.1815 5.54389 20.1066 6.8484C17.1248 8.10632 14.4599 9.914 12.1584 12.2062C9.86616 14.4984 8.05848 17.1727 6.80056 20.1544C5.49605 23.2386 4.83447 26.5092 4.83447 29.8823C4.83447 33.2554 5.49605 36.5353 6.80056 39.6102C8.05848 42.592 9.86616 45.2569 12.1584 47.5584C14.4506 49.8506 17.1248 51.6583 20.1066 52.9162C23.1908 54.2208 26.4614 54.8823 29.8345 54.8823C33.2076 54.8823 36.4875 54.2208 39.5624 52.9162C42.5441 51.6583 45.209 49.8506 47.5106 47.5584C49.8028 45.2662 51.6105 42.592 52.8684 39.6102C54.1729 36.526 54.8345 33.2554 54.8345 29.8823C54.8345 26.5092 54.1729 23.2293 52.8684 20.1544C51.6105 17.1727 49.8028 14.5077 47.5106 12.2062C45.2184 9.914 42.5441 8.10632 39.5624 6.8484C36.4875 5.54389 33.2076 4.88232 29.8345 4.88232Z" fill="#F9DCA0"/>
<path d="M29.8347 53.708C42.9934 53.708 53.6607 43.0408 53.6607 29.8821C53.6607 16.7234 42.9934 6.05615 29.8347 6.05615C16.676 6.05615 6.00879 16.7234 6.00879 29.8821C6.00879 43.0408 16.676 53.708 29.8347 53.708Z" fill="url(#paint0_linear_57_22083)"/>
<path opacity="0.3" d="M29.8347 43.356C18.765 43.356 9.40983 36.0414 6.33492 25.978C6.12992 27.2453 6.00879 28.5498 6.00879 29.8822C6.00879 43.0392 16.6778 53.7082 29.8347 53.7082C42.9916 53.7082 53.6607 43.0392 53.6607 29.8822C53.6607 28.5498 53.5488 27.2546 53.3345 25.978C50.2596 36.0414 40.9044 43.356 29.8347 43.356Z" fill="#F9DCA0"/>
<path d="M29.8345 12.2808C20.1159 12.2808 12.2329 20.1637 12.2329 29.8823C12.2329 39.6009 20.1159 47.4839 29.8345 47.4839C39.5531 47.4839 47.436 39.6009 47.436 29.8823C47.436 20.1637 39.5531 12.2808 29.8345 12.2808ZM28.9306 25.0836L25.2221 27.2267V32.5566L28.9306 34.6997V41.1011L19.6779 35.7619V24.0214L28.9306 18.6822V25.0836ZM39.991 35.7526L30.7383 41.0918V34.6904L34.4468 32.5473V27.2174L30.7383 25.0743V18.6729L39.991 24.012V35.7526Z" fill="url(#paint1_linear_57_22083)"/>
<path opacity="0.5" d="M29.8347 6.86726C42.8612 6.86726 53.437 17.322 53.6513 30.2925C53.6513 30.1528 53.6607 30.0223 53.6607 29.8919C53.6607 16.7349 42.9916 6.06592 29.8347 6.06592C16.6778 6.06592 6.00879 16.7349 6.00879 29.8919C6.00879 30.0316 6.0181 30.1621 6.0181 30.2925C6.23242 17.322 16.8083 6.86726 29.8347 6.86726Z" fill="white"/>
<path opacity="0.5" d="M29.8347 52.3107C16.9108 52.3107 6.40014 42.0237 6.02742 29.1836C6.0181 29.4165 6.00879 29.6495 6.00879 29.8824C6.00879 43.0394 16.6778 53.7084 29.8347 53.7084C42.9916 53.7084 53.6607 43.0394 53.6607 29.8824C53.6607 29.6495 53.6513 29.4165 53.642 29.1836C53.2693 42.0144 42.7587 52.3107 29.8347 52.3107Z" fill="#FFEFCF"/>
<g style="mix-blend-mode:soft-light">
<path d="M19.7903 19.7657C22.2901 17.2658 23.4524 14.375 22.3862 13.3088C21.32 12.2426 18.4292 13.4048 15.9293 15.9047C13.4294 18.4046 12.2671 21.2955 13.3333 22.3616C14.3995 23.4278 17.2904 22.2656 19.7903 19.7657Z" fill="white"/>
</g>
<g style="mix-blend-mode:soft-light">
<path d="M26.8116 12.8785C26.9795 12.1674 26.5391 11.4547 25.8279 11.2868C25.1168 11.1189 24.4041 11.5593 24.2362 12.2704C24.0683 12.9816 24.5086 13.6942 25.2198 13.8622C25.931 14.0301 26.6436 13.5897 26.8116 12.8785Z" fill="white"/>
</g>
<g style="mix-blend-mode:soft-light">
<path d="M40.7316 45.1607C41.2483 44.644 41.2483 43.8062 40.7316 43.2895C40.2149 42.7728 39.3771 42.7728 38.8604 43.2895C38.3437 43.8062 38.3437 44.644 38.8604 45.1607C39.3771 45.6774 40.2149 45.6774 40.7316 45.1607Z" fill="white"/>
</g>
<g style="mix-blend-mode:soft-light">
<path d="M42.3951 43.0676C42.8429 43.0676 43.2058 42.7047 43.2058 42.2569C43.2058 41.8092 42.8429 41.4463 42.3951 41.4463C41.9474 41.4463 41.5845 41.8092 41.5845 42.2569C41.5845 42.7047 41.9474 43.0676 42.3951 43.0676Z" fill="white"/>
</g>
<defs>
<linearGradient id="paint0_linear_57_22083" x1="29.8353" y1="53.7129" x2="29.8353" y2="6.05948" gradientUnits="userSpaceOnUse">
<stop stop-color="#63433B"/>
<stop offset="0.1588" stop-color="#755546"/>
<stop offset="0.4791" stop-color="#A58464"/>
<stop offset="0.9281" stop-color="#F2CE94"/>
<stop offset="1" stop-color="#FFDB9C"/>
</linearGradient>
<linearGradient id="paint1_linear_57_22083" x1="21.0329" y1="45.1323" x2="38.6374" y2="14.6405" gradientUnits="userSpaceOnUse">
<stop stop-color="#FFD9AA"/>
<stop offset="1" stop-color="#FFD9AA"/>
</linearGradient>
</defs>
</svg>
