<svg width="56" height="61" viewBox="0 0 56 61" fill="none" xmlns="http://www.w3.org/2000/svg">
<path d="M55.1497 30.1223L25.1992 0.176758L-4.75126 30.1223L25.1992 60.0678L55.1497 30.1223Z" stroke="#B57D0B" stroke-width="0.25" stroke-miterlimit="10"/>
<path d="M53.7612 30.1222L25.1992 1.56494L-3.36278 30.1222L25.1992 58.6794L53.7612 30.1222Z" stroke="#B57D0B" stroke-width="0.25" stroke-miterlimit="10"/>
<path d="M24.9998 53.753C38.1585 53.753 48.8257 43.0857 48.8257 29.927C48.8257 16.7683 38.1585 6.10107 24.9998 6.10107C11.8411 6.10107 1.17383 16.7683 1.17383 29.927C1.17383 43.0857 11.8411 53.753 24.9998 53.753Z" fill="url(#paint0_linear_57_23317)"/>
<path d="M25 6.10131C38.1662 6.10131 48.8259 16.7703 48.8259 29.9272C48.8259 43.0842 38.1662 53.7532 25 53.7532C11.8338 53.7532 1.17406 43.0935 1.17406 29.9272C1.17406 16.761 11.8431 6.10131 25 6.10131ZM25 4.92725C21.6269 4.92725 18.3563 5.58882 15.2721 6.89333C12.2903 8.15125 9.62542 9.95893 7.32389 12.2511C5.02236 14.5433 3.224 17.2176 1.96608 20.1993C0.661573 23.2836 0 26.5542 0 29.9272C0 33.3003 0.661573 36.5802 1.96608 39.6552C3.224 42.6369 5.03168 45.3018 7.32389 47.6034C9.6161 49.8956 12.2903 51.7032 15.2721 52.9612C18.3563 54.2657 21.6269 54.9272 25 54.9272C28.3731 54.9272 31.653 54.2657 34.7279 52.9612C37.7097 51.7032 40.3746 49.8956 42.6761 47.6034C44.9683 45.3111 46.776 42.6369 48.0339 39.6552C49.3384 36.5709 50 33.3003 50 29.9272C50 26.5542 49.3384 23.2742 48.0339 20.1993C46.776 17.2176 44.9683 14.5527 42.6761 12.2511C40.3839 9.94961 37.7097 8.15125 34.7279 6.89333C31.653 5.58882 28.3731 4.92725 25 4.92725Z" fill="#F9DCA0"/>
<path opacity="0.3" d="M24.9998 43.4009C13.9301 43.4009 4.57487 36.0863 1.49996 26.0229C1.29496 27.2902 1.17383 28.5947 1.17383 29.9272C1.17383 43.0934 11.8429 53.7531 24.9998 53.7531C38.1567 53.7531 48.8257 43.0934 48.8257 29.9272C48.8257 28.5947 48.7139 27.2995 48.4996 26.0229C45.4247 36.0863 36.0695 43.4009 24.9998 43.4009Z" fill="#F9DCA0"/>
<path d="M25 12.3257C15.2814 12.3257 7.39844 20.2087 7.39844 29.9272C7.39844 39.6458 15.2814 47.5288 25 47.5288C34.7186 47.5288 42.6016 39.6458 42.6016 29.9272C42.6016 20.2087 34.7279 12.3257 25 12.3257ZM27.4413 41.3603C26.6959 41.7703 25.8573 41.9753 25 41.9753C24.1521 41.9753 23.3041 41.7703 22.5587 41.3603C19.2136 39.5154 17.0052 35.9373 15.0391 32.5735C16.5673 33.5147 18.1793 34.3067 19.8658 34.9403C18.0395 33.6172 17.5084 31.1013 17.6575 28.8464C17.8066 26.5914 18.4961 24.3924 18.5054 22.1375C19.5024 24.411 20.779 26.5635 22.2978 28.5202C23.6396 25.1006 24.5527 21.5132 25.0093 17.8792C25.4659 21.5225 26.3697 25.1099 27.7208 28.5202C29.2397 26.5635 30.5255 24.411 31.5132 22.1375C31.5226 24.3924 32.2028 26.5914 32.3612 28.8464C32.5103 31.1013 31.9791 33.6172 30.1528 34.9403C31.8301 34.3067 33.4514 33.5147 34.9795 32.5735C32.9948 35.9466 30.7864 39.5154 27.4413 41.3603Z" fill="url(#paint1_linear_57_23317)"/>
<path opacity="0.5" d="M25.0003 6.91218C38.0267 6.91218 48.6026 17.3669 48.8169 30.3375C48.8169 30.1977 48.8262 30.0672 48.8262 29.9368C48.8262 16.7799 38.1572 6.11084 25.0003 6.11084C11.8433 6.11084 1.17432 16.7799 1.17432 29.9368C1.17432 30.0766 1.18363 30.207 1.18363 30.3375C1.40726 17.3669 11.9831 6.91218 25.0003 6.91218Z" fill="white"/>
<path opacity="0.5" d="M25.0003 52.3556C12.0763 52.3556 1.56567 42.0593 1.19295 29.2285C1.18363 29.4615 1.17432 29.6944 1.17432 29.9274C1.17432 43.0936 11.8433 53.7533 25.0003 53.7533C38.1665 53.7533 48.8262 43.0936 48.8262 29.9274C48.8262 29.6944 48.8169 29.4615 48.8076 29.2285C48.4442 42.0593 37.9242 52.3556 25.0003 52.3556Z" fill="#FFC3A6"/>
<g style="mix-blend-mode:soft-light">
<path d="M14.9587 19.8111C17.4586 17.3112 18.6208 14.4204 17.5547 13.3542C16.4885 12.288 13.5976 13.4502 11.0977 15.9501C8.59785 18.45 7.4356 21.3409 8.50178 22.4071C9.56796 23.4732 12.4588 22.311 14.9587 19.8111Z" fill="white"/>
</g>
<g style="mix-blend-mode:soft-light">
<path d="M21.6291 13.5381C22.1458 13.0214 22.1458 12.1837 21.6291 11.6669C21.1123 11.1502 20.2746 11.1502 19.7579 11.6669C19.2411 12.1837 19.2411 13.0214 19.7579 13.5381C20.2746 14.0549 21.1123 14.0549 21.6291 13.5381Z" fill="white"/>
</g>
<g style="mix-blend-mode:soft-light">
<path d="M36.2579 44.5692C36.4269 43.8582 35.9875 43.1449 35.2766 42.976C34.5656 42.807 33.8523 43.2464 33.6834 43.9573C33.5144 44.6683 33.9538 45.3816 34.6647 45.5505C35.3757 45.7195 36.089 45.2801 36.2579 44.5692Z" fill="white"/>
</g>
<g style="mix-blend-mode:soft-light">
<path d="M37.5607 43.1125C38.0084 43.1125 38.3713 42.7496 38.3713 42.3019C38.3713 41.8542 38.0084 41.4912 37.5607 41.4912C37.1129 41.4912 36.75 41.8542 36.75 42.3019C36.75 42.7496 37.1129 43.1125 37.5607 43.1125Z" fill="white"/>
</g>
<defs>
<linearGradient id="paint0_linear_57_23317" x1="25.0023" y1="53.7562" x2="25.0023" y2="6.10285" gradientUnits="userSpaceOnUse">
<stop stop-color="#921D00"/>
<stop offset="0.2242" stop-color="#A62B13"/>
<stop offset="0.6785" stop-color="#D84E43"/>
<stop offset="1" stop-color="#FF6969"/>
</linearGradient>
<linearGradient id="paint1_linear_57_23317" x1="16.2003" y1="45.1757" x2="33.8048" y2="14.6838" gradientUnits="userSpaceOnUse">
<stop stop-color="#FFC69F"/>
<stop offset="1" stop-color="#FFC69F"/>
</linearGradient>
</defs>
</svg>
