<svg width="61" height="61" viewBox="0 0 61 61" fill="none" xmlns="http://www.w3.org/2000/svg">
<path d="M60.0779 30.1223L30.1274 0.176758L0.176959 30.1223L30.1274 60.0678L60.0779 30.1223Z" stroke="#B57D0B" stroke-width="0.25" stroke-miterlimit="10"/>
<path d="M58.6894 30.1222L30.1274 1.56494L1.56545 30.1222L30.1274 58.6794L58.6894 30.1222Z" stroke="#B57D0B" stroke-width="0.25" stroke-miterlimit="10"/>
<path d="M29.9382 53.753C43.0969 53.753 53.7642 43.0857 53.7642 29.927C53.7642 16.7683 43.0969 6.10107 29.9382 6.10107C16.7795 6.10107 6.1123 16.7683 6.1123 29.927C6.1123 43.0857 16.7795 53.753 29.9382 53.753Z" fill="url(#paint0_linear_57_23427)"/>
<path d="M29.9385 6.10131C43.0954 6.10131 53.7644 16.7703 53.7644 29.9272C53.7644 43.0842 43.1047 53.7532 29.9385 53.7532C16.7722 53.7532 6.11253 43.0842 6.11253 29.9272C6.11253 16.7703 16.7816 6.10131 29.9385 6.10131ZM29.9385 4.92725C26.5654 4.92725 23.2855 5.58882 20.2106 6.89333C17.2288 8.15125 14.5639 9.95893 12.2624 12.2511C9.97016 14.5433 8.16248 17.2176 6.90456 20.1993C5.60005 23.2836 4.93848 26.5542 4.93848 29.9272C4.93848 33.3003 5.60005 36.5802 6.90456 39.6552C8.16248 42.6369 9.97016 45.3018 12.2624 47.6034C14.5546 49.8956 17.2288 51.7032 20.2106 52.9612C23.2948 54.2657 26.5654 54.9272 29.9385 54.9272C33.3116 54.9272 36.5915 54.2657 39.6664 52.9612C42.6481 51.7032 45.3131 49.8956 47.6146 47.6034C49.9068 45.3111 51.7145 42.6369 52.9724 39.6552C54.2769 36.5709 54.9385 33.3003 54.9385 29.9272C54.9385 26.5542 54.2769 23.2742 52.9724 20.1993C51.7145 17.2176 49.9068 14.5527 47.6146 12.2511C45.3224 9.95893 42.6481 8.15125 39.6664 6.89333C36.5915 5.58882 33.3209 4.92725 29.9385 4.92725Z" fill="#F9DCA0"/>
<path opacity="0.3" d="M29.9382 43.4009C18.8685 43.4009 9.51335 36.0863 6.43843 26.0229C6.23344 27.2902 6.1123 28.5947 6.1123 29.9272C6.1123 43.0841 16.7813 53.7531 29.9382 53.7531C43.0952 53.7531 53.7735 43.0934 53.7735 29.9272C53.7735 28.5947 53.6617 27.2995 53.4474 26.0229C50.3631 36.0863 41.0079 43.4009 29.9382 43.4009Z" fill="#F9DCA0"/>
<path d="M29.9385 12.3257C20.2199 12.3257 12.3369 20.2086 12.3369 29.9272C12.3369 39.6458 20.2199 47.5288 29.9385 47.5288C39.6571 47.5288 47.54 39.6458 47.54 29.9272C47.54 20.2086 39.6664 12.3257 29.9385 12.3257ZM33.1997 39.2172L29.9385 42.4785L26.6772 39.2172C21.5523 34.0924 21.5523 25.7901 26.6772 20.6745L29.9385 17.4133L33.1997 20.6745C38.3246 25.7994 38.3246 34.1017 33.1997 39.2172Z" fill="url(#paint1_linear_57_23427)"/>
<path d="M29.9385 20.7305C29.6962 20.7305 29.4912 20.9261 29.4912 21.1777V37.8195C29.4912 38.0618 29.6869 38.2668 29.9385 38.2668C30.19 38.2668 30.3857 38.0711 30.3857 37.8195V21.1777C30.3857 20.9355 30.19 20.7305 29.9385 20.7305Z" fill="url(#paint2_linear_57_23427)"/>
<path opacity="0.5" d="M29.9387 6.93074C42.9652 6.93074 53.541 17.3855 53.7554 30.356C53.7554 30.2162 53.7647 30.0858 53.7647 29.9553C53.7647 16.7984 43.0956 6.12939 29.9387 6.12939C16.7818 6.12939 6.11279 16.7984 6.11279 29.9553C6.11279 30.0951 6.12211 30.2256 6.12211 30.356C6.34574 17.3855 16.9216 6.93074 29.9387 6.93074Z" fill="white"/>
<path opacity="0.5" d="M29.9387 52.3742C17.0148 52.3742 6.50414 42.0872 6.13142 29.2471C6.12211 29.48 6.11279 29.713 6.11279 29.9459C6.11279 43.1028 16.7818 53.7719 29.9387 53.7719C43.0956 53.7719 53.7647 43.1028 53.7647 29.9459C53.7647 29.713 53.7554 29.48 53.746 29.2471C53.3826 42.0779 42.8627 52.3742 29.9387 52.3742Z" fill="#E5FFCC"/>
<g style="mix-blend-mode:soft-light">
<path d="M26.9253 12.9318C27.0933 12.2206 26.6529 11.508 25.9417 11.34C25.2305 11.1721 24.5179 11.6125 24.35 12.3236C24.182 13.0348 24.6224 13.7475 25.3336 13.9154C26.0448 14.0833 26.7574 13.6429 26.9253 12.9318Z" fill="white"/>
</g>
<g style="mix-blend-mode:soft-light">
<path d="M40.8449 45.2198C41.3616 44.7031 41.3616 43.8653 40.8449 43.3486C40.3282 42.8319 39.4904 42.8319 38.9737 43.3486C38.457 43.8653 38.457 44.7031 38.9737 45.2198C39.4904 45.7365 40.3282 45.7365 40.8449 45.2198Z" fill="white"/>
</g>
<g style="mix-blend-mode:soft-light">
<path d="M42.4991 43.1311C42.9468 43.1311 43.3098 42.7681 43.3098 42.3204C43.3098 41.8727 42.9468 41.5098 42.4991 41.5098C42.0514 41.5098 41.6885 41.8727 41.6885 42.3204C41.6885 42.7681 42.0514 43.1311 42.4991 43.1311Z" fill="white"/>
</g>
<g style="mix-blend-mode:soft-light">
<path d="M19.8972 19.8311C22.3971 17.3312 23.5593 14.4404 22.4931 13.3742C21.427 12.308 18.5361 13.4703 16.0362 15.9701C13.5363 18.47 12.3741 21.3609 13.4403 22.4271C14.5064 23.4933 17.3973 22.331 19.8972 19.8311Z" fill="white"/>
</g>
<defs>
<linearGradient id="paint0_linear_57_23427" x1="29.9423" y1="53.7562" x2="29.9423" y2="6.10285" gradientUnits="userSpaceOnUse">
<stop stop-color="#5C8800"/>
<stop offset="0.2004" stop-color="#6D9A06"/>
<stop offset="0.6019" stop-color="#99CA16"/>
<stop offset="1" stop-color="#C9FF28"/>
</linearGradient>
<linearGradient id="paint1_linear_57_23427" x1="21.1404" y1="45.1757" x2="38.7449" y2="14.6838" gradientUnits="userSpaceOnUse">
<stop stop-color="#E0FFB7"/>
<stop offset="1" stop-color="#E0FFB7"/>
</linearGradient>
<linearGradient id="paint2_linear_57_23427" x1="26.1168" y1="36.1255" x2="33.7684" y2="22.8727" gradientUnits="userSpaceOnUse">
<stop stop-color="#E0FFB7"/>
<stop offset="1" stop-color="#E0FFB7"/>
</linearGradient>
</defs>
</svg>
