<svg width="61" height="61" viewBox="0 0 61 61" fill="none" xmlns="http://www.w3.org/2000/svg">
<path d="M60.0779 30.1223L30.1274 0.176758L0.176959 30.1223L30.1274 60.0678L60.0779 30.1223Z" stroke="#B57D0B" stroke-width="0.25" stroke-miterlimit="10"/>
<path d="M58.6894 30.1222L30.1274 1.56494L1.56545 30.1222L30.1274 58.6794L58.6894 30.1222Z" stroke="#B57D0B" stroke-width="0.25" stroke-miterlimit="10"/>
<path d="M29.9378 53.708C43.0965 53.708 53.7637 43.0408 53.7637 29.8821C53.7637 16.7234 43.0965 6.05615 29.9378 6.05615C16.7791 6.05615 6.11182 16.7234 6.11182 29.8821C6.11182 43.0408 16.7791 53.708 29.9378 53.708Z" fill="url(#paint0_linear_57_23321)"/>
<path d="M29.938 6.05638C43.0949 6.05638 53.7639 16.7254 53.7639 29.8823C53.7639 43.0392 43.0949 53.7083 29.938 53.7083C16.7811 53.7083 6.11204 43.0486 6.11204 29.8823C6.11204 16.7161 16.7811 6.05638 29.938 6.05638ZM29.938 4.88232C26.5649 4.88232 23.285 5.54389 20.2101 6.8484C17.2283 8.10632 14.5634 9.914 12.2619 12.2062C9.96967 14.4984 8.16199 17.1727 6.90407 20.1544C5.59956 23.2386 4.93799 26.5092 4.93799 29.8823C4.93799 33.2554 5.59956 36.5353 6.90407 39.6102C8.16199 42.592 9.96967 45.2569 12.2619 47.5584C14.5541 49.8506 17.2283 51.6583 20.2101 52.9162C23.2943 54.2208 26.5649 54.8823 29.938 54.8823C33.3111 54.8823 36.591 54.2208 39.6659 52.9162C42.6476 51.6583 45.3126 49.8506 47.6141 47.5584C49.9063 45.2662 51.714 42.592 52.9719 39.6102C54.2764 36.526 54.938 33.2554 54.938 29.8823C54.938 26.5092 54.2764 23.2293 52.9719 20.1544C51.714 17.1727 49.9063 14.5077 47.6141 12.2062C45.3219 9.914 42.6476 8.10632 39.6659 6.8484C36.5817 5.54389 33.3111 4.88232 29.938 4.88232Z" fill="#F9DCA0"/>
<path opacity="0.3" d="M29.9378 43.356C18.8681 43.356 9.51286 36.0414 6.43794 25.978C6.23295 27.2453 6.11182 28.5498 6.11182 29.8822C6.11182 43.0392 16.7808 53.7082 29.9378 53.7082C43.0947 53.7082 53.7637 43.0392 53.7637 29.8822C53.7637 28.5498 53.6519 27.2546 53.4376 25.978C50.3627 36.0414 41.0075 43.356 29.9378 43.356Z" fill="#F9DCA0"/>
<path d="M29.938 12.2808C20.2194 12.2808 12.3364 20.1637 12.3364 29.8823C12.3364 39.6009 20.2194 47.4839 29.938 47.4839C39.6566 47.4839 47.5396 39.6009 47.5396 29.8823C47.5396 20.1637 39.6566 12.2808 29.938 12.2808ZM33.6838 22.8287L35.1188 19.9121L36.5537 22.8287L39.7684 23.2946L37.4389 25.5588L37.9887 28.7549L35.1188 27.2454L32.2488 28.7549L32.7986 25.5588L30.4691 23.2946L33.6838 22.8287ZM29.938 41.3154C23.6298 41.3154 18.5142 36.1999 18.5142 29.8916C18.5142 23.5834 23.6298 18.4679 29.938 18.4679C29.9473 18.4679 29.9566 18.4679 29.9753 18.4679C28.326 19.9308 27.2824 22.0553 27.2824 24.4313C27.2824 28.8294 30.8511 32.3888 35.2399 32.3888C37.6998 32.3888 39.8989 31.2707 41.3524 29.5282C41.3524 29.6494 41.3618 29.7705 41.3618 29.8916C41.3618 36.1999 36.2462 41.3154 29.938 41.3154Z" fill="url(#paint1_linear_57_23321)"/>
<path opacity="0.5" d="M29.9378 6.86726C42.9642 6.86726 53.5401 17.322 53.7544 30.2925C53.7544 30.1528 53.7637 30.0223 53.7637 29.8919C53.7637 16.7349 43.0947 6.06592 29.9378 6.06592C16.7808 6.06592 6.11182 16.7349 6.11182 29.8919C6.11182 30.0316 6.12114 30.1621 6.12114 30.2925C6.33545 17.322 16.9113 6.86726 29.9378 6.86726Z" fill="white"/>
<path opacity="0.5" d="M29.9378 52.3107C17.0138 52.3107 6.50317 42.0237 6.13045 29.1836C6.12114 29.4165 6.11182 29.6495 6.11182 29.8824C6.11182 43.0394 16.7808 53.7084 29.9378 53.7084C43.0947 53.7084 53.7637 43.0394 53.7637 29.8824C53.7637 29.6495 53.7544 29.4165 53.7451 29.1836C53.3724 42.0144 42.8617 52.3107 29.9378 52.3107Z" fill="#DFC8FF"/>
<g style="mix-blend-mode:soft-light">
<path d="M19.8933 19.7637C22.3932 17.2639 23.5554 14.373 22.4892 13.3068C21.4231 12.2406 18.5322 13.4029 16.0323 15.9028C13.5324 18.4026 12.3702 21.2935 13.4364 22.3597C14.5025 23.4259 17.3934 22.2636 19.8933 19.7637Z" fill="white"/>
</g>
<g style="mix-blend-mode:soft-light">
<path d="M26.8932 12.9433C27.1015 12.2428 26.7026 11.5061 26.0022 11.2978C25.3018 11.0894 24.5651 11.4884 24.3567 12.1888C24.1484 12.8892 24.5473 13.6259 25.2477 13.8343C25.9482 14.0426 26.6849 13.6437 26.8932 12.9433Z" fill="white"/>
</g>
<g style="mix-blend-mode:soft-light">
<path d="M40.8341 45.1587C41.3509 44.642 41.3508 43.8043 40.8341 43.2875C40.3174 42.7708 39.4797 42.7708 38.9629 43.2875C38.4462 43.8043 38.4462 44.642 38.9629 45.1587C39.4797 45.6755 40.3174 45.6755 40.8341 45.1587Z" fill="white"/>
</g>
<g style="mix-blend-mode:soft-light">
<path d="M42.4889 43.0676C42.9366 43.0676 43.2995 42.7047 43.2995 42.2569C43.2995 41.8092 42.9366 41.4463 42.4889 41.4463C42.0412 41.4463 41.6782 41.8092 41.6782 42.2569C41.6782 42.7047 42.0412 43.0676 42.4889 43.0676Z" fill="white"/>
</g>
<defs>
<linearGradient id="paint0_linear_57_23321" x1="29.9364" y1="53.7129" x2="29.9364" y2="6.05948" gradientUnits="userSpaceOnUse">
<stop stop-color="#410081"/>
<stop offset="0.1358" stop-color="#51128D"/>
<stop offset="0.4101" stop-color="#7B43AE"/>
<stop offset="0.7939" stop-color="#BE8FE1"/>
<stop offset="1" stop-color="#E5BBFF"/>
</linearGradient>
<linearGradient id="paint1_linear_57_23321" x1="21.1344" y1="45.1323" x2="38.7389" y2="14.6405" gradientUnits="userSpaceOnUse">
<stop stop-color="#D3A6FF"/>
<stop offset="1" stop-color="#D3A6FF"/>
</linearGradient>
</defs>
</svg>
