<svg width="53" height="53" viewBox="0 0 53 53" fill="none" xmlns="http://www.w3.org/2000/svg">
<path d="M49 26.5058C49 26.9609 48.9883 27.4159 48.9533 27.8592C48.9183 28.3959 48.8716 28.9209 48.8016 29.4343C48.6615 30.496 48.4514 31.546 48.1712 32.5611C47.9611 33.2961 47.7276 34.0078 47.4475 34.7078C46.5953 36.8896 45.4047 38.908 43.9455 40.693C42.9767 41.8831 41.8794 42.9798 40.6887 43.9481C38.9027 45.4065 36.8833 46.5966 34.7004 47.4483C34 47.7283 33.2763 47.9616 32.5525 48.1716C31.537 48.4516 30.4981 48.6733 29.4241 48.8133C28.8988 48.8833 28.3735 48.93 27.8366 48.965C27.393 48.9883 26.9377 49 26.4825 49C26.0973 49 25.7121 48.9883 25.3385 48.965C24.8949 48.9417 24.4514 48.9067 24.0078 48.86C23.284 48.7783 22.5603 48.6617 21.8599 48.5217C21.463 48.44 21.0778 48.3466 20.7043 48.2533C20.0623 48.0783 19.4319 47.88 18.8132 47.6583C18.463 47.5299 18.1245 47.4016 17.786 47.2499C17.2023 47.0049 16.642 46.7483 16.0934 46.4566C15.7782 46.2932 15.4747 46.1299 15.1712 45.9432C14.6459 45.6399 14.144 45.3132 13.6537 44.9748C13.3735 44.7765 13.0934 44.5782 12.8249 44.3682C12.358 44.0065 11.9027 43.6331 11.4591 43.2364C11.2023 43.0148 10.9572 42.7814 10.7237 42.5481C10.3035 42.1397 9.90662 41.7081 9.5214 41.2647C9.29961 41.008 9.07782 40.7514 8.8677 40.483C8.49416 40.0163 8.14397 39.538 7.81712 39.048C7.61868 38.7563 7.43191 38.4646 7.25681 38.1729C6.94163 37.6479 6.63813 37.1229 6.36965 36.5745C6.20623 36.2595 6.05447 35.9329 5.9144 35.6062C5.65759 35.0228 5.42412 34.4278 5.21401 33.8211C5.0856 33.4594 4.98054 33.0977 4.87549 32.7361C4.68872 32.0827 4.52529 31.406 4.39689 30.7293C4.31517 30.321 4.25681 29.9126 4.19844 29.4926C4.09338 28.7342 4.03502 27.9642 4.01167 27.1942C4 26.9608 4 26.7275 4 26.4942C4 26.2492 4 26.0041 4.01167 25.7591C4.04669 24.8258 4.12841 23.9157 4.26848 23.0174C4.36187 22.4107 4.4786 21.8157 4.61868 21.2323C4.93385 19.9373 5.35409 18.6889 5.87938 17.4872C6.3463 16.4138 6.89494 15.3871 7.51362 14.4187C9.28794 11.6419 11.6459 9.2852 14.4125 7.52346C15.3463 6.92844 16.3152 6.40342 17.3307 5.94841C20.1323 4.70003 23.2374 4 26.4942 4C29.7626 4 32.8677 4.70003 35.6576 5.94841C35.9728 6.08841 36.2763 6.22842 36.5798 6.38009C37.1284 6.6601 37.6654 6.95178 38.179 7.26679C38.4708 7.44179 38.7626 7.62847 39.0545 7.82681C39.5447 8.16515 40.0233 8.51517 40.4903 8.87685C40.7588 9.08686 41.0156 9.30853 41.2724 9.5302C41.716 9.91522 42.1479 10.3236 42.5564 10.7319C42.7899 10.9769 43.0233 11.2219 43.2451 11.4669C43.642 11.9103 44.0156 12.3536 44.3774 12.832C44.5875 13.1003 44.786 13.3803 44.9844 13.6604C45.323 14.1504 45.6498 14.6637 45.9533 15.1771C46.1284 15.4804 46.3035 15.7838 46.4669 16.0988C46.7588 16.6471 47.0272 17.2188 47.2607 17.7905C47.4008 18.1289 47.5409 18.4789 47.6693 18.8172C47.891 19.4356 48.0895 20.0656 48.2646 20.7073C48.3697 21.0923 48.463 21.4773 48.5331 21.8623C48.6848 22.5624 48.7899 23.2857 48.8716 24.0091C48.9183 24.4524 48.9533 24.8841 48.9767 25.3391C48.9883 25.7358 49 26.1208 49 26.5058Z" fill="url(#paint0_linear_127_32892)"/>
<g opacity="0.1">
<path d="M26.7831 25.9863C26.7831 25.9863 26.6023 25.9863 26.3764 25.9863C26.1505 25.9863 25.9697 25.9863 25.9697 25.9863C25.9697 25.9863 26.1505 25.9863 26.3764 25.9863C26.6023 25.9863 26.7831 25.9863 26.7831 25.9863Z" stroke="black" stroke-miterlimit="10"/>
<path d="M26.5622 26.5451C26.8867 26.2625 26.9208 25.7703 26.6382 25.4458C26.3556 25.1212 25.8635 25.0871 25.5389 25.3697C25.2143 25.6523 25.1802 26.1445 25.4628 26.469C25.7454 26.7936 26.2376 26.8277 26.5622 26.5451Z" stroke="black" stroke-miterlimit="10"/>
<path d="M26.4699 27.0619C27.0791 26.8316 27.3862 26.151 27.1559 25.5418C26.9255 24.9326 26.2449 24.6255 25.6357 24.8559C25.0266 25.0862 24.7194 25.7668 24.9498 26.376C25.1801 26.9852 25.8607 27.2923 26.4699 27.0619Z" stroke="black" stroke-miterlimit="10"/>
<path d="M27.1182 27.1696C27.7869 26.5804 27.8513 25.5608 27.2621 24.8921C26.673 24.2234 25.6533 24.159 24.9846 24.7482C24.316 25.3373 24.2515 26.357 24.8407 27.0257C25.4299 27.6943 26.4495 27.7588 27.1182 27.1696Z" stroke="black" stroke-miterlimit="10"/>
<path d="M28.1882 26.3203C28.387 25.1411 27.5923 24.0239 26.413 23.825C25.2338 23.6261 24.1166 24.4209 23.9177 25.6001C23.7188 26.7794 24.5136 27.8966 25.6928 28.0954C26.8721 28.2943 27.9893 27.4996 28.1882 26.3203Z" stroke="black" stroke-miterlimit="10"/>
<path d="M30.0639 26.6314C30.4342 24.4151 28.9378 22.3183 26.7215 21.948C24.5053 21.5777 22.4085 23.0741 22.0382 25.2904C21.6679 27.5066 23.1643 29.6034 25.3805 29.9737C27.5968 30.344 29.6936 28.8476 30.0639 26.6314Z" stroke="black" stroke-miterlimit="10"/>
<path d="M30.7597 26.7453C31.1927 24.1456 29.4363 21.6872 26.8367 21.2542C24.237 20.8211 21.7786 22.5775 21.3456 25.1772C20.9125 27.7768 22.669 30.2353 25.2686 30.6683C27.8683 31.1013 30.3267 29.3449 30.7597 26.7453Z" stroke="black" stroke-miterlimit="10"/>
<path d="M29.9619 29.8696C32.1217 27.7098 32.1217 24.2081 29.9619 22.0483C27.8021 19.8886 24.3004 19.8886 22.1406 22.0483C19.9808 24.2081 19.9808 27.7098 22.1406 29.8696C24.3004 32.0294 27.8021 32.0294 29.9619 29.8696Z" stroke="black" stroke-miterlimit="10"/>
<path d="M30.5517 30.4596C33.0374 27.974 33.0374 23.944 30.5517 21.4583C28.0661 18.9727 24.0361 18.9727 21.5505 21.4583C19.0648 23.944 19.0648 27.974 21.5505 30.4596C24.0361 32.9453 28.0661 32.9453 30.5517 30.4596Z" stroke="black" stroke-miterlimit="10"/>
<path d="M31.1319 31.0399C33.938 28.2338 33.938 23.6842 31.1319 20.8781C28.3258 18.072 23.7762 18.072 20.9701 20.8781C18.164 23.6842 18.164 28.2338 20.9701 31.0399C23.7762 33.846 28.3258 33.846 31.1319 31.0399Z" stroke="black" stroke-miterlimit="10"/>
<path d="M31.7514 31.6592C34.8995 28.511 34.8995 23.4069 31.7514 20.2588C28.6033 17.1107 23.4992 17.1107 20.351 20.2588C17.2029 23.4069 17.2029 28.511 20.351 31.6592C23.4992 34.8073 28.6033 34.8073 31.7514 31.6592Z" stroke="black" stroke-miterlimit="10"/>
<path d="M32.3904 32.2979C35.8912 28.797 35.8912 23.1209 32.3904 19.62C28.8895 16.1191 23.2134 16.1191 19.7125 19.62C16.2116 23.1209 16.2116 28.797 19.7125 32.2979C23.2134 35.7988 28.8895 35.7988 32.3904 32.2979Z" stroke="black" stroke-miterlimit="10"/>
<path d="M33.058 32.9659C36.9278 29.0961 36.9278 22.8219 33.058 18.952C29.1882 15.0822 22.9139 15.0822 19.0441 18.952C15.1742 22.8219 15.1742 29.0961 19.0441 32.9659C22.9139 36.8358 29.1882 36.8358 33.058 32.9659Z" stroke="black" stroke-miterlimit="10"/>
<path d="M33.7456 33.6535C37.9951 29.4039 37.9951 22.514 33.7456 18.2645C29.496 14.0149 22.6062 14.0149 18.3566 18.2645C14.1071 22.514 14.1071 29.4039 18.3566 33.6535C22.6062 37.903 29.496 37.903 33.7456 33.6535Z" stroke="black" stroke-miterlimit="10"/>
<path d="M34.5159 34.4239C39.1909 29.7489 39.1909 22.1691 34.5159 17.4941C29.8408 12.819 22.2611 12.819 17.586 17.4941C12.911 22.1691 12.911 29.7489 17.586 34.4239C22.2611 39.099 29.8408 39.099 34.5159 34.4239Z" stroke="black" stroke-miterlimit="10"/>
<path d="M35.3887 35.2967C40.5458 30.1396 40.5458 21.7783 35.3887 16.6212C30.2316 11.4641 21.8703 11.4641 16.7132 16.6212C11.5561 21.7783 11.5561 30.1396 16.7132 35.2967C21.8703 40.4538 30.2316 40.4538 35.3887 35.2967Z" stroke="black" stroke-miterlimit="10"/>
<path d="M36.3982 36.3061C42.1128 30.5915 42.1128 21.3264 36.3982 15.6119C30.6837 9.89734 21.4186 9.89734 15.704 15.6119C9.98949 21.3264 9.98949 30.5915 15.704 36.3061C21.4186 42.0206 30.6837 42.0206 36.3982 36.3061Z" stroke="black" stroke-miterlimit="10"/>
<path d="M37.4515 37.3593C43.7477 31.0631 43.7477 20.8549 37.4515 14.5586C31.1553 8.26242 20.9471 8.26242 14.6508 14.5586C8.35459 20.8549 8.35459 31.0631 14.6508 37.3593C20.9471 43.6556 31.1553 43.6556 37.4515 37.3593Z" stroke="black" stroke-miterlimit="10"/>
<path d="M25.9699 43.8797C35.8521 43.8797 43.8631 35.8687 43.8631 25.9865C43.8631 16.1043 35.8521 8.09326 25.9699 8.09326C16.0877 8.09326 8.07666 16.1043 8.07666 25.9865C8.07666 35.8687 16.0877 43.8797 25.9699 43.8797Z" stroke="black" stroke-miterlimit="10"/>
<path d="M25.9701 45.5061C36.7506 45.5061 45.49 36.7668 45.49 25.9862C45.49 15.2057 36.7506 6.46631 25.9701 6.46631C15.1896 6.46631 6.4502 15.2057 6.4502 25.9862C6.4502 36.7668 15.1896 45.5061 25.9701 45.5061Z" stroke="black" stroke-miterlimit="10"/>
<path d="M25.9698 47.133C37.6487 47.133 47.1164 37.6653 47.1164 25.9864C47.1164 14.3075 37.6487 4.83984 25.9698 4.83984C14.2909 4.83984 4.82324 14.3075 4.82324 25.9864C4.82324 37.6653 14.2909 47.133 25.9698 47.133Z" stroke="black" stroke-miterlimit="10"/>
<path d="M25.9701 29.2395C27.7669 29.2395 29.2234 27.783 29.2234 25.9862C29.2234 24.1895 27.7669 22.7329 25.9701 22.7329C24.1734 22.7329 22.7168 24.1895 22.7168 25.9862C22.7168 27.783 24.1734 29.2395 25.9701 29.2395Z" stroke="black" stroke-miterlimit="10"/>
<path d="M27.0468 28.5526C28.4796 28.0023 29.195 26.3948 28.6447 24.962C28.0945 23.5293 26.487 22.8138 25.0542 23.3641C23.6214 23.9143 22.906 25.5218 23.4563 26.9546C24.0065 28.3874 25.614 29.1028 27.0468 28.5526Z" stroke="black" stroke-miterlimit="10"/>
</g>
<path fill-rule="evenodd" clip-rule="evenodd" d="M4.34427 22.1895L4.81211 22.9246L1.20303 26.5337H0L4.34427 22.1895Z" fill="url(#paint1_linear_127_32892)"/>
<path fill-rule="evenodd" clip-rule="evenodd" d="M4.81221 22.9243L5.28005 23.5927L2.40615 26.5334H1.20312L4.81221 22.9243Z" fill="url(#paint2_linear_127_32892)"/>
<path fill-rule="evenodd" clip-rule="evenodd" d="M3.14143 22.8574L2.40625 23.3921L5.54749 26.5333H6.75052L3.14143 22.8574Z" fill="url(#paint3_linear_127_32892)"/>
<path fill-rule="evenodd" clip-rule="evenodd" d="M2.40614 23.3926L1.73779 23.9273L4.34435 26.5338H5.54738L2.40614 23.3926Z" fill="url(#paint4_linear_127_32892)"/>
<path fill-rule="evenodd" clip-rule="evenodd" d="M3.0746 30.1428L2.40625 29.6081L5.54749 26.5337H6.75052L3.0746 30.1428Z" fill="url(#paint5_linear_127_32892)"/>
<path fill-rule="evenodd" clip-rule="evenodd" d="M2.40614 29.6081L1.73779 29.0734L4.34435 26.5337H5.54738L2.40614 29.6081Z" fill="url(#paint6_linear_127_32892)"/>
<path fill-rule="evenodd" clip-rule="evenodd" d="M4.34427 30.8111L4.81211 30.0759L1.20303 26.5337H0L4.34427 30.8111Z" fill="url(#paint7_linear_127_32892)"/>
<path fill-rule="evenodd" clip-rule="evenodd" d="M4.81221 30.0759L5.28005 29.4076L2.40615 26.5337H1.20312L4.81221 30.0759Z" fill="url(#paint8_linear_127_32892)"/>
<path fill-rule="evenodd" clip-rule="evenodd" d="M26.4667 1.6709C39.299 1.6709 49.8589 11.4288 51.1288 23.9269L50.4604 23.3922C48.9232 11.4956 38.7643 2.27241 26.4667 2.27241C14.1022 2.27241 3.94334 11.4956 2.40614 23.3922L1.73779 23.9269C3.07449 11.4288 13.6344 1.6709 26.4667 1.6709ZM26.4667 50.7277C14.1691 50.7277 3.94334 41.5045 2.47298 29.6079L1.80463 29.0732C3.07449 41.5713 13.6344 51.3292 26.4667 51.3292C39.299 51.3292 49.8589 41.5713 51.1288 29.0732L50.4604 29.6079C48.9232 41.5045 38.7643 50.7277 26.4667 50.7277Z" fill="url(#paint9_linear_127_32892)"/>
<path fill-rule="evenodd" clip-rule="evenodd" d="M26.4668 50.1263C38.2966 50.1263 48.0545 41.4377 49.7922 30.1426L50.4605 29.6079C48.9233 41.5045 38.7644 50.7278 26.4668 50.7278C14.1692 50.7278 3.94345 41.5045 2.47309 29.6079L3.14143 30.1426C4.87914 41.4377 14.637 50.1263 26.4668 50.1263ZM26.4668 2.27246C14.1024 2.27246 3.94345 11.4957 2.40625 23.3923L3.0746 22.8576C4.87914 11.5625 14.637 2.87398 26.4668 2.87398C38.2966 2.87398 48.0545 11.5625 49.7922 22.8576L50.4605 23.3923C48.9233 11.4957 38.7644 2.27246 26.4668 2.27246Z" fill="url(#paint10_linear_127_32892)"/>
<path fill-rule="evenodd" clip-rule="evenodd" d="M26.4666 48.4554C37.2938 48.4554 46.3834 40.502 48.1211 30.0758L48.5889 30.811C46.5839 41.1704 37.4275 49.0569 26.4666 49.0569C15.5057 49.0569 6.34929 41.2372 4.34424 30.811L4.81208 30.0758C6.54979 40.502 15.5725 48.4554 26.4666 48.4554ZM26.4666 3.94336C15.5057 3.94336 6.34929 11.8299 4.34424 22.1893L4.81208 22.9245C6.54979 12.4982 15.5725 4.54487 26.4666 4.54487C37.3607 4.54487 46.3834 12.4982 48.1211 22.8576L48.5889 22.1225C46.5839 11.8299 37.4275 3.94336 26.4666 3.94336Z" fill="url(#paint11_linear_127_32892)"/>
<path fill-rule="evenodd" clip-rule="evenodd" d="M26.4665 47.8539C37.2269 47.8539 46.1828 39.8338 47.5863 29.4075L48.121 30.0759C46.3833 40.4353 37.3606 48.3886 26.4665 48.3886C15.5724 48.4555 6.54972 40.5021 4.81201 30.0759L5.34669 29.4075C6.75022 39.8338 15.6393 47.8539 26.4665 47.8539ZM26.4665 4.54492C15.5724 4.54492 6.54972 12.4983 4.81201 22.9245L5.34669 23.5929C6.75022 13.1666 15.6393 5.14644 26.4665 5.14644C37.2938 5.14644 46.1828 13.1666 47.5863 23.5929L48.121 22.9245C46.3833 12.4983 37.3606 4.54492 26.4665 4.54492Z" fill="url(#paint12_linear_127_32892)"/>
<path fill-rule="evenodd" clip-rule="evenodd" d="M48.5889 22.1895L48.1211 22.9246L51.6633 26.5337H52.8664L48.5889 22.1895Z" fill="url(#paint13_linear_127_32892)"/>
<path fill-rule="evenodd" clip-rule="evenodd" d="M48.1211 22.9243L47.5864 23.5927L50.5272 26.5334H51.6634L48.1211 22.9243Z" fill="url(#paint14_linear_127_32892)"/>
<path fill-rule="evenodd" clip-rule="evenodd" d="M49.7917 22.8574L50.4601 23.3921L47.3856 26.5333H46.1826L49.7917 22.8574Z" fill="url(#paint15_linear_127_32892)"/>
<path fill-rule="evenodd" clip-rule="evenodd" d="M50.4601 23.3926L51.1285 23.9273L48.5219 26.5338H47.3857L50.4601 23.3926Z" fill="url(#paint16_linear_127_32892)"/>
<path fill-rule="evenodd" clip-rule="evenodd" d="M49.7917 30.1428L50.4601 29.6081L47.3856 26.5337H46.1826L49.7917 30.1428Z" fill="url(#paint17_linear_127_32892)"/>
<path fill-rule="evenodd" clip-rule="evenodd" d="M50.4601 29.6081L51.1285 29.0734L48.5219 26.5337H47.3857L50.4601 29.6081Z" fill="url(#paint18_linear_127_32892)"/>
<path fill-rule="evenodd" clip-rule="evenodd" d="M48.5889 30.8111L48.1211 30.0759L51.6633 26.5337H52.8664L48.5889 30.8111Z" fill="url(#paint19_linear_127_32892)"/>
<path fill-rule="evenodd" clip-rule="evenodd" d="M48.1211 30.0759L47.5864 29.4076L50.5272 26.5337H51.6634L48.1211 30.0759Z" fill="url(#paint20_linear_127_32892)"/>
<path fill-rule="evenodd" clip-rule="evenodd" d="M26.4667 0L28.7391 2.27239L26.4667 4.54477L24.1943 2.27239L26.4667 0ZM26.4667 0.868854L25.0632 2.27239L26.4667 3.67592L27.8703 2.27239L26.4667 0.868854Z" fill="#F9DCA0"/>
<path fill-rule="evenodd" clip-rule="evenodd" d="M24.5953 2.27239L26.4667 0.401009V0L24.1943 2.27239H24.5953Z" fill="url(#paint21_linear_127_32892)"/>
<path fill-rule="evenodd" clip-rule="evenodd" d="M26.4671 0.401367L24.5957 2.27274H24.9967L26.4671 0.869211V0.401367Z" fill="url(#paint22_linear_127_32892)"/>
<path fill-rule="evenodd" clip-rule="evenodd" d="M28.2713 2.27239L26.4668 0.401009V0L28.7392 2.27239H28.2713Z" fill="url(#paint23_linear_127_32892)"/>
<path fill-rule="evenodd" clip-rule="evenodd" d="M26.4668 0.401367L28.2713 2.27274H27.8703L26.4668 0.869211V0.401367Z" fill="url(#paint24_linear_127_32892)"/>
<path fill-rule="evenodd" clip-rule="evenodd" d="M24.5953 2.27246L26.4667 4.14384V4.54485L24.1943 2.27246H24.5953Z" fill="url(#paint25_linear_127_32892)"/>
<path fill-rule="evenodd" clip-rule="evenodd" d="M26.4671 4.14384L24.5957 2.27246H24.9967L26.4671 3.74283V4.14384Z" fill="url(#paint26_linear_127_32892)"/>
<path fill-rule="evenodd" clip-rule="evenodd" d="M28.2713 2.27246L26.4668 4.14384V4.54485L28.7392 2.27246H28.2713Z" fill="url(#paint27_linear_127_32892)"/>
<path fill-rule="evenodd" clip-rule="evenodd" d="M26.4668 4.14384L28.2713 2.27246H27.8703L26.4668 3.74283V4.14384Z" fill="url(#paint28_linear_127_32892)"/>
<path fill-rule="evenodd" clip-rule="evenodd" d="M24.9966 2.27267L26.4669 0.869141L27.8705 2.27267L26.4669 3.74304L24.9966 2.27267Z" fill="#F9DCA0"/>
<path fill-rule="evenodd" clip-rule="evenodd" d="M25.5312 2.2726L26.4669 1.33691L27.3358 2.2726L26.4669 3.20829L25.5312 2.2726Z" fill="url(#paint29_linear_127_32892)"/>
<path fill-rule="evenodd" clip-rule="evenodd" d="M25.5313 2.27267L26.4669 1.33698V0.869141L24.9966 2.27267H25.5313Z" fill="url(#paint30_linear_127_32892)"/>
<path fill-rule="evenodd" clip-rule="evenodd" d="M27.3357 2.27267L26.4668 1.33698V0.869141L27.8703 2.27267H27.3357Z" fill="url(#paint31_linear_127_32892)"/>
<path fill-rule="evenodd" clip-rule="evenodd" d="M25.5313 2.27246L26.4669 3.20815V3.74283L24.9966 2.27246H25.5313Z" fill="url(#paint32_linear_127_32892)"/>
<path fill-rule="evenodd" clip-rule="evenodd" d="M27.3357 2.27246L26.4668 3.20815V3.74283L27.8703 2.27246H27.3357Z" fill="url(#paint33_linear_127_32892)"/>
<path fill-rule="evenodd" clip-rule="evenodd" d="M26.4667 48.4551L28.7391 50.7275L26.4667 52.9999L24.1943 50.7275L26.4667 48.4551ZM26.4667 49.3239L25.0632 50.7275L26.4667 52.131L27.8703 50.7275L26.4667 49.3239Z" fill="#F9DCA0"/>
<path fill-rule="evenodd" clip-rule="evenodd" d="M24.5953 50.7275L26.4667 48.8561V48.4551L24.1943 50.7275H24.5953Z" fill="url(#paint34_linear_127_32892)"/>
<path fill-rule="evenodd" clip-rule="evenodd" d="M26.4671 48.856L24.5957 50.7273H24.9967L26.4671 49.3238V48.856Z" fill="url(#paint35_linear_127_32892)"/>
<path fill-rule="evenodd" clip-rule="evenodd" d="M28.2713 50.7275L26.4668 48.8561V48.4551L28.7392 50.7275H28.2713Z" fill="url(#paint36_linear_127_32892)"/>
<path fill-rule="evenodd" clip-rule="evenodd" d="M26.4668 48.856L28.2713 50.7273H27.8703L26.4668 49.3238V48.856Z" fill="url(#paint37_linear_127_32892)"/>
<path fill-rule="evenodd" clip-rule="evenodd" d="M24.5953 50.7275L26.4667 52.5989V52.9999L24.1943 50.7275H24.5953Z" fill="url(#paint38_linear_127_32892)"/>
<path fill-rule="evenodd" clip-rule="evenodd" d="M26.4671 52.5989L24.5957 50.7275H24.9967L26.4671 52.1311V52.5989Z" fill="url(#paint39_linear_127_32892)"/>
<path fill-rule="evenodd" clip-rule="evenodd" d="M28.2713 50.7275L26.4668 52.5989V52.9999L28.7392 50.7275H28.2713Z" fill="url(#paint40_linear_127_32892)"/>
<path fill-rule="evenodd" clip-rule="evenodd" d="M26.4668 52.5989L28.2713 50.7275H27.8703L26.4668 52.1311V52.5989Z" fill="url(#paint41_linear_127_32892)"/>
<path fill-rule="evenodd" clip-rule="evenodd" d="M24.9966 50.7273L26.4669 49.3237L27.8705 50.7273L26.4669 52.1308L24.9966 50.7273Z" fill="#F9DCA0"/>
<path fill-rule="evenodd" clip-rule="evenodd" d="M25.5312 50.7272L26.4669 49.7915L27.3358 50.7272L26.4669 51.6629L25.5312 50.7272Z" fill="url(#paint42_linear_127_32892)"/>
<path fill-rule="evenodd" clip-rule="evenodd" d="M25.5313 50.7273L26.4669 49.7916V49.3237L24.9966 50.7273H25.5313Z" fill="url(#paint43_linear_127_32892)"/>
<path fill-rule="evenodd" clip-rule="evenodd" d="M27.3357 50.7273L26.4668 49.7916V49.3237L27.8703 50.7273H27.3357Z" fill="url(#paint44_linear_127_32892)"/>
<path fill-rule="evenodd" clip-rule="evenodd" d="M25.5313 50.7275L26.4669 51.6632V52.1311L24.9966 50.7275H25.5313Z" fill="url(#paint45_linear_127_32892)"/>
<path fill-rule="evenodd" clip-rule="evenodd" d="M27.3357 50.7275L26.4668 51.6632V52.1311L27.8703 50.7275H27.3357Z" fill="url(#paint46_linear_127_32892)"/>
<path d="M27.9531 28.3532L30.7484 31.1484L31.3897 30.5075C30.8757 29.9219 30.5509 29.1945 30.4578 28.4209L29.1563 27.0166C28.7519 27.4461 28.3488 27.8918 27.9531 28.3532Z" fill="url(#paint47_linear_127_32892)"/>
<path d="M17.5813 28.2275C18.5262 28.8609 19.8403 28.4283 21.4883 26.9444L18.6699 24.3291C17.8066 25.111 17.2837 26.1999 17.2132 27.3625C17.1914 27.693 17.3281 28.0141 17.5813 28.2275Z" fill="url(#paint48_linear_127_32892)"/>
<path d="M27.2995 27.9054C27.8137 27.3014 28.344 26.7156 28.8743 26.1641C32.7168 22.159 35.1676 21.5472 37.0565 21.4767L37.0475 16C32.5717 16.6676 28.5666 19.1443 25.9696 22.8503C25.9641 22.86 25.9581 22.8693 25.9515 22.8783C25.355 23.7213 24.78 24.4809 24.2267 25.157C24.222 25.1617 24.2204 25.1684 24.2157 25.1731L24.2106 25.1767C23.6293 25.899 23.0042 26.5851 22.339 27.231C20.2429 29.2317 18.4949 29.7876 17.1422 28.8845C16.6649 28.5368 16.3946 27.9723 16.4229 27.3825C16.4652 26.2751 16.8677 25.2117 17.5693 24.3538C16.3449 24.9302 15.0005 26.1208 15.0005 28.555C14.9798 29.704 15.6403 30.7566 16.6839 31.2376C18.5737 32.2089 22.1197 32.0219 25.2476 29.7857C26.0048 29.2438 26.6938 28.6125 27.2995 27.9054Z" fill="url(#paint49_linear_127_32892)"/>
<path d="M22.0589 26.4C22.4872 25.972 22.9356 25.4777 23.4041 24.9174L21.0211 22.5343C20.8719 22.3799 20.874 22.1343 21.0259 21.9824C21.1778 21.8306 21.4233 21.8284 21.5778 21.9776L23.9037 24.3032C24.2994 23.8048 24.7085 23.2583 25.1274 22.6741L20.5683 17.7623C20.5198 17.7101 20.4581 17.672 20.3896 17.6521L15.8715 16.3403C15.7337 16.3003 15.585 16.3385 15.4835 16.44C15.382 16.5415 15.3438 16.6902 15.3838 16.8281L16.6956 21.3465C16.7154 21.415 16.7535 21.4768 16.8058 21.5253L22.0589 26.4ZM17.0841 18.0407C17.2379 17.887 17.4871 17.887 17.6408 18.0407L20.003 20.4029C20.1053 20.5017 20.1464 20.6481 20.1104 20.7857C20.0743 20.9234 19.9668 21.0309 19.8292 21.0669C19.6915 21.1029 19.5452 21.0619 19.4463 20.9595L17.0841 18.5974C16.9304 18.4436 16.9304 18.1944 17.0841 18.0407Z" fill="url(#paint50_linear_127_32892)"/>
<path d="M36.6536 35.5459C36.5492 35.5456 36.4489 35.5872 36.3753 35.6613L34.7044 37.3321C34.551 37.4858 34.551 37.7347 34.7044 37.8884C34.8601 38.0373 35.1054 38.0373 35.2611 37.8884L36.9316 36.2179C37.0441 36.1054 37.0778 35.9362 37.0169 35.7891C36.9561 35.6421 36.8128 35.5461 36.6536 35.5459Z" fill="url(#paint51_linear_127_32892)"/>
<path d="M30.1922 31.7047L27.4245 28.937C27.0078 29.3681 26.5604 29.7685 26.0859 30.135L27.4639 31.4141C28.2374 31.5073 28.9648 31.8322 29.5505 32.346L30.1922 31.7047Z" fill="url(#paint52_linear_127_32892)"/>
<path d="M33.9733 32.3487L33.695 32.0703L30.9111 34.8541L31.1895 35.1325C31.2633 35.2064 31.3635 35.2479 31.468 35.2479C31.5725 35.2479 31.6727 35.2064 31.7466 35.1325L33.9733 32.9053C34.127 32.7516 34.127 32.5024 33.9733 32.3487Z" fill="url(#paint53_linear_127_32892)"/>
<path d="M34.0744 33.918L32.9614 35.0309L34.4252 36.4979L35.5413 35.3817L34.0744 33.918Z" fill="url(#paint54_linear_127_32892)"/>
<path d="M33.8505 30.803L33.4174 31.2361L30.0749 34.5746L29.8466 34.8069C29.7727 34.8811 29.6723 34.9228 29.5676 34.9228C29.463 34.9228 29.3626 34.8811 29.2887 34.8069L29.0245 34.5404C28.8714 34.3867 28.8714 34.1381 29.0245 33.9845L33.0316 29.9802C33.1851 29.8276 33.4331 29.8276 33.5867 29.9802L33.8505 30.244C34.004 30.3987 34.004 30.6483 33.8505 30.803Z" fill="url(#paint55_linear_127_32892)"/>
<defs>
<linearGradient id="paint0_linear_127_32892" x1="26.5099" y1="49.0044" x2="26.5099" y2="3.99512" gradientUnits="userSpaceOnUse">
<stop stop-color="#29272E"/>
<stop offset="1" stop-color="#1C191C"/>
</linearGradient>
<linearGradient id="paint1_linear_127_32892" x1="2.39977" y1="26.5007" x2="2.39977" y2="22.1866" gradientUnits="userSpaceOnUse">
<stop stop-color="#FFE56B"/>
<stop offset="1" stop-color="#D19C37"/>
</linearGradient>
<linearGradient id="paint2_linear_127_32892" x1="3.25161" y1="26.5004" x2="3.25161" y2="22.8978" gradientUnits="userSpaceOnUse">
<stop stop-color="#AB671C"/>
<stop offset="1" stop-color="#784C00"/>
</linearGradient>
<linearGradient id="paint3_linear_127_32892" x1="4.58386" y1="26.5003" x2="4.58386" y2="22.8745" gradientUnits="userSpaceOnUse">
<stop stop-color="#FFE56B"/>
<stop offset="1" stop-color="#A17C37"/>
</linearGradient>
<linearGradient id="paint4_linear_127_32892" x1="3.65094" y1="26.5008" x2="3.65094" y2="23.3899" gradientUnits="userSpaceOnUse">
<stop stop-color="#AB671C"/>
<stop offset="1" stop-color="#784C00"/>
</linearGradient>
<linearGradient id="paint5_linear_127_32892" x1="4.58166" y1="30.1307" x2="4.58166" y2="26.5007" gradientUnits="userSpaceOnUse">
<stop stop-color="#784C00"/>
<stop offset="1" stop-color="#AB671C"/>
</linearGradient>
<linearGradient id="paint6_linear_127_32892" x1="3.6486" y1="29.6158" x2="3.6486" y2="26.5007" gradientUnits="userSpaceOnUse">
<stop stop-color="#915A1A"/>
<stop offset="1" stop-color="#FFE56B"/>
</linearGradient>
<linearGradient id="paint7_linear_127_32892" x1="2.40265" y1="30.8208" x2="2.40265" y2="26.5007" gradientUnits="userSpaceOnUse">
<stop stop-color="#6E4500"/>
<stop offset="1" stop-color="#CF9353"/>
</linearGradient>
<linearGradient id="paint8_linear_127_32892" x1="3.25429" y1="30.109" x2="3.25429" y2="26.5007" gradientUnits="userSpaceOnUse">
<stop stop-color="#BD851B"/>
<stop offset="1" stop-color="#FFE56B"/>
</linearGradient>
<linearGradient id="paint9_linear_127_32892" x1="26.4468" y1="50.2712" x2="26.4468" y2="2.91062" gradientUnits="userSpaceOnUse">
<stop offset="0.1227" stop-color="#9C5E00"/>
<stop offset="1" stop-color="#FFEA8A"/>
</linearGradient>
<linearGradient id="paint10_linear_127_32892" x1="26.4469" y1="50.7224" x2="26.4469" y2="2.28349" gradientUnits="userSpaceOnUse">
<stop stop-color="#FFD36E"/>
<stop offset="1" stop-color="#6E4500"/>
</linearGradient>
<linearGradient id="paint11_linear_127_32892" x1="26.4467" y1="49.0427" x2="26.4467" y2="3.96321" gradientUnits="userSpaceOnUse">
<stop offset="0.29" stop-color="#9C5E00"/>
<stop offset="1" stop-color="#FFEA8A"/>
</linearGradient>
<linearGradient id="paint12_linear_127_32892" x1="26.4465" y1="48.4393" x2="26.4465" y2="4.56671" gradientUnits="userSpaceOnUse">
<stop stop-color="#FFD36E"/>
<stop offset="1" stop-color="#6E4500"/>
</linearGradient>
<linearGradient id="paint13_linear_127_32892" x1="50.4911" y1="26.5056" x2="50.4911" y2="22.1915" gradientUnits="userSpaceOnUse">
<stop stop-color="#FFE56B"/>
<stop offset="1" stop-color="#D19C37"/>
</linearGradient>
<linearGradient id="paint14_linear_127_32892" x1="49.6419" y1="26.5004" x2="49.6419" y2="22.8978" gradientUnits="userSpaceOnUse">
<stop stop-color="#AB671C"/>
<stop offset="1" stop-color="#784C00"/>
</linearGradient>
<linearGradient id="paint15_linear_127_32892" x1="48.3094" y1="26.5003" x2="48.3094" y2="22.8745" gradientUnits="userSpaceOnUse">
<stop stop-color="#FFE56B"/>
<stop offset="1" stop-color="#A17C37"/>
</linearGradient>
<linearGradient id="paint16_linear_127_32892" x1="49.2472" y1="26.5057" x2="49.2472" y2="23.3948" gradientUnits="userSpaceOnUse">
<stop stop-color="#AB671C"/>
<stop offset="1" stop-color="#784C00"/>
</linearGradient>
<linearGradient id="paint17_linear_127_32892" x1="48.3117" y1="30.1307" x2="48.3117" y2="26.5007" gradientUnits="userSpaceOnUse">
<stop stop-color="#784C00"/>
<stop offset="1" stop-color="#AB671C"/>
</linearGradient>
<linearGradient id="paint18_linear_127_32892" x1="49.2446" y1="29.6158" x2="49.2446" y2="26.5007" gradientUnits="userSpaceOnUse">
<stop stop-color="#915A1A"/>
<stop offset="1" stop-color="#FFE56B"/>
</linearGradient>
<linearGradient id="paint19_linear_127_32892" x1="50.4907" y1="30.8208" x2="50.4907" y2="26.5007" gradientUnits="userSpaceOnUse">
<stop stop-color="#6E4500"/>
<stop offset="1" stop-color="#CF9353"/>
</linearGradient>
<linearGradient id="paint20_linear_127_32892" x1="49.6393" y1="30.109" x2="49.6393" y2="26.5007" gradientUnits="userSpaceOnUse">
<stop stop-color="#CF9D3E"/>
<stop offset="1" stop-color="#E3D17F"/>
</linearGradient>
<linearGradient id="paint21_linear_127_32892" x1="24.1634" y1="1.14174" x2="26.4467" y2="1.14174" gradientUnits="userSpaceOnUse">
<stop stop-color="#FFF18F"/>
<stop offset="1" stop-color="#FFFAE3"/>
</linearGradient>
<linearGradient id="paint22_linear_127_32892" x1="24.5907" y1="1.35544" x2="26.4471" y2="1.35544" gradientUnits="userSpaceOnUse">
<stop stop-color="#AB5F0B"/>
<stop offset="1" stop-color="#753C00"/>
</linearGradient>
<linearGradient id="paint23_linear_127_32892" x1="26.4468" y1="1.14174" x2="28.7303" y2="1.14174" gradientUnits="userSpaceOnUse">
<stop stop-color="#EDA85F"/>
<stop offset="1" stop-color="#A36700"/>
</linearGradient>
<linearGradient id="paint24_linear_127_32892" x1="26.4468" y1="1.35544" x2="28.3034" y2="1.35544" gradientUnits="userSpaceOnUse">
<stop stop-color="#A15900"/>
<stop offset="1" stop-color="#E39644"/>
</linearGradient>
<linearGradient id="paint25_linear_127_32892" x1="24.1635" y1="3.42516" x2="26.4469" y2="3.42516" gradientUnits="userSpaceOnUse">
<stop stop-color="#EDA85F"/>
<stop offset="1" stop-color="#A36700"/>
</linearGradient>
<linearGradient id="paint26_linear_127_32892" x1="24.5908" y1="3.21176" x2="26.4473" y2="3.21176" gradientUnits="userSpaceOnUse">
<stop stop-color="#6E4500"/>
<stop offset="1" stop-color="#CF9353"/>
</linearGradient>
<linearGradient id="paint27_linear_127_32892" x1="26.447" y1="3.42516" x2="28.7304" y2="3.42516" gradientUnits="userSpaceOnUse">
<stop stop-color="#AB5F0B"/>
<stop offset="1" stop-color="#753C00"/>
</linearGradient>
<linearGradient id="paint28_linear_127_32892" x1="26.447" y1="3.21176" x2="28.3034" y2="3.21176" gradientUnits="userSpaceOnUse">
<stop stop-color="#FFBE45"/>
<stop offset="1" stop-color="#FFF0AB"/>
</linearGradient>
<linearGradient id="paint29_linear_127_32892" x1="26.447" y1="3.20475" x2="26.447" y2="1.36258" gradientUnits="userSpaceOnUse">
<stop stop-color="#97742B"/>
<stop offset="1" stop-color="#F5C35F"/>
</linearGradient>
<linearGradient id="paint30_linear_127_32892" x1="25.9865" y1="1.82314" x2="25.7322" y2="1.56877" gradientUnits="userSpaceOnUse">
<stop stop-color="#FEF9C2"/>
<stop offset="1" stop-color="#F5C35F"/>
</linearGradient>
<linearGradient id="paint31_linear_127_32892" x1="26.4469" y1="1.56877" x2="27.8767" y2="1.56877" gradientUnits="userSpaceOnUse">
<stop stop-color="#F5C35F"/>
<stop offset="1" stop-color="#97742B"/>
</linearGradient>
<linearGradient id="paint32_linear_127_32892" x1="25.0173" y1="2.99628" x2="26.447" y2="2.99628" gradientUnits="userSpaceOnUse">
<stop stop-color="#F5C35F"/>
<stop offset="1" stop-color="#F5C35F"/>
</linearGradient>
<linearGradient id="paint33_linear_127_32892" x1="27.1618" y1="2.99628" x2="26.9074" y2="2.74184" gradientUnits="userSpaceOnUse">
<stop stop-color="#FEF9C2"/>
<stop offset="1" stop-color="#F5C35F"/>
</linearGradient>
<linearGradient id="paint34_linear_127_32892" x1="24.1634" y1="49.5803" x2="26.4467" y2="49.5803" gradientUnits="userSpaceOnUse">
<stop stop-color="#FFF18F"/>
<stop offset="1" stop-color="#FFFAE3"/>
</linearGradient>
<linearGradient id="paint35_linear_127_32892" x1="24.5907" y1="49.7936" x2="26.4471" y2="49.7936" gradientUnits="userSpaceOnUse">
<stop stop-color="#AB5F0B"/>
<stop offset="1" stop-color="#753C00"/>
</linearGradient>
<linearGradient id="paint36_linear_127_32892" x1="26.4468" y1="49.5803" x2="28.7303" y2="49.5803" gradientUnits="userSpaceOnUse">
<stop stop-color="#EDA85F"/>
<stop offset="1" stop-color="#A36700"/>
</linearGradient>
<linearGradient id="paint37_linear_127_32892" x1="26.4468" y1="49.7936" x2="28.3034" y2="49.7936" gradientUnits="userSpaceOnUse">
<stop stop-color="#A15900"/>
<stop offset="1" stop-color="#E39644"/>
</linearGradient>
<linearGradient id="paint38_linear_127_32892" x1="24.1635" y1="51.8638" x2="26.4469" y2="51.8638" gradientUnits="userSpaceOnUse">
<stop stop-color="#EDA85F"/>
<stop offset="1" stop-color="#A36700"/>
</linearGradient>
<linearGradient id="paint39_linear_127_32892" x1="24.5908" y1="51.6505" x2="26.4473" y2="51.6505" gradientUnits="userSpaceOnUse">
<stop stop-color="#6E4500"/>
<stop offset="1" stop-color="#CF9353"/>
</linearGradient>
<linearGradient id="paint40_linear_127_32892" x1="26.447" y1="51.8638" x2="28.7304" y2="51.8638" gradientUnits="userSpaceOnUse">
<stop stop-color="#AB5F0B"/>
<stop offset="1" stop-color="#753C00"/>
</linearGradient>
<linearGradient id="paint41_linear_127_32892" x1="26.447" y1="51.6505" x2="28.3034" y2="51.6505" gradientUnits="userSpaceOnUse">
<stop stop-color="#FFBE45"/>
<stop offset="1" stop-color="#FFF0AB"/>
</linearGradient>
<linearGradient id="paint42_linear_127_32892" x1="26.447" y1="51.6429" x2="26.447" y2="49.8007" gradientUnits="userSpaceOnUse">
<stop stop-color="#97742B"/>
<stop offset="1" stop-color="#F5C35F"/>
</linearGradient>
<linearGradient id="paint43_linear_127_32892" x1="25.9865" y1="50.2613" x2="25.7322" y2="50.0069" gradientUnits="userSpaceOnUse">
<stop stop-color="#EAC594"/>
<stop offset="1" stop-color="#F5C35F"/>
</linearGradient>
<linearGradient id="paint44_linear_127_32892" x1="26.4469" y1="50.007" x2="27.8767" y2="50.007" gradientUnits="userSpaceOnUse">
<stop stop-color="#FEF9C2"/>
<stop offset="1" stop-color="#F5C35F"/>
</linearGradient>
<linearGradient id="paint45_linear_127_32892" x1="25.0173" y1="51.4349" x2="26.447" y2="51.4349" gradientUnits="userSpaceOnUse">
<stop stop-color="#F5C35F"/>
<stop offset="1" stop-color="#97742B"/>
</linearGradient>
<linearGradient id="paint46_linear_127_32892" x1="27.1618" y1="51.4349" x2="26.9074" y2="51.1805" gradientUnits="userSpaceOnUse">
<stop stop-color="#F5C35F"/>
<stop offset="1" stop-color="#97742B"/>
</linearGradient>
<linearGradient id="paint47_linear_127_32892" x1="29.6714" y1="27.0166" x2="29.6714" y2="31.1484" gradientUnits="userSpaceOnUse">
<stop stop-color="#FEEFD0"/>
<stop offset="1" stop-color="#FCD587"/>
</linearGradient>
<linearGradient id="paint48_linear_127_32892" x1="19.3496" y1="24.3291" x2="19.3496" y2="28.5102" gradientUnits="userSpaceOnUse">
<stop stop-color="#FEEFD0"/>
<stop offset="1" stop-color="#FCD587"/>
</linearGradient>
<linearGradient id="paint49_linear_127_32892" x1="26.0283" y1="16" x2="26.0283" y2="31.7949" gradientUnits="userSpaceOnUse">
<stop stop-color="#FEEFD0"/>
<stop offset="1" stop-color="#FCD587"/>
</linearGradient>
<linearGradient id="paint50_linear_127_32892" x1="20.2478" y1="16.3247" x2="20.2478" y2="26.4" gradientUnits="userSpaceOnUse">
<stop stop-color="#FEEFD0"/>
<stop offset="1" stop-color="#FCD587"/>
</linearGradient>
<linearGradient id="paint51_linear_127_32892" x1="35.8181" y1="35.5459" x2="35.8181" y2="38.0001" gradientUnits="userSpaceOnUse">
<stop stop-color="#FEEFD0"/>
<stop offset="1" stop-color="#FCD587"/>
</linearGradient>
<linearGradient id="paint52_linear_127_32892" x1="28.1391" y1="28.937" x2="28.1391" y2="32.346" gradientUnits="userSpaceOnUse">
<stop stop-color="#FEEFD0"/>
<stop offset="1" stop-color="#FCD587"/>
</linearGradient>
<linearGradient id="paint53_linear_127_32892" x1="32.4999" y1="32.0703" x2="32.4999" y2="35.2479" gradientUnits="userSpaceOnUse">
<stop stop-color="#FEEFD0"/>
<stop offset="1" stop-color="#FCD587"/>
</linearGradient>
<linearGradient id="paint54_linear_127_32892" x1="34.2514" y1="33.918" x2="34.2514" y2="36.4979" gradientUnits="userSpaceOnUse">
<stop stop-color="#FEEFD0"/>
<stop offset="1" stop-color="#FCD587"/>
</linearGradient>
<linearGradient id="paint55_linear_127_32892" x1="31.4376" y1="29.8657" x2="31.4376" y2="34.9228" gradientUnits="userSpaceOnUse">
<stop stop-color="#FEEFD0"/>
<stop offset="1" stop-color="#FCD587"/>
</linearGradient>
</defs>
</svg>
