<svg width="61" height="61" viewBox="0 0 61 61" fill="none" xmlns="http://www.w3.org/2000/svg">
<path d="M60.0779 30.1223L30.1274 0.176758L0.176959 30.1223L30.1274 60.0678L60.0779 30.1223Z" stroke="#B57D0B" stroke-width="0.25" stroke-miterlimit="10"/>
<path d="M58.6894 30.1222L30.1274 1.56494L1.56545 30.1222L30.1274 58.6794L58.6894 30.1222Z" stroke="#B57D0B" stroke-width="0.25" stroke-miterlimit="10"/>
<path d="M29.928 53.7642C43.0867 53.7642 53.7539 43.097 53.7539 29.9382C53.7539 16.7795 43.0867 6.1123 29.928 6.1123C16.7693 6.1123 6.10205 16.7795 6.10205 29.9382C6.10205 43.097 16.7693 53.7642 29.928 53.7642Z" fill="url(#paint0_linear_57_23426)"/>
<path d="M29.9282 6.11253C43.0851 6.11253 53.7542 16.7816 53.7542 29.9385C53.7542 43.0954 43.0945 53.7644 29.9282 53.7644C16.762 53.7644 6.10228 43.0954 6.10228 29.9385C6.10228 16.7816 16.7713 6.11253 29.9282 6.11253ZM29.9282 4.93848C26.5551 4.93848 23.2752 5.60005 20.2003 6.90456C17.2186 8.16248 14.5536 9.97016 12.2521 12.2624C9.95059 14.5546 8.15223 17.2288 6.89431 20.2106C5.5898 23.2948 4.92822 26.5654 4.92822 29.9385C4.92822 33.3116 5.5898 36.5915 6.89431 39.6664C8.15223 42.6481 9.9599 45.3131 12.2521 47.6146C14.5443 49.9068 17.2186 51.7145 20.2003 52.9724C23.2845 54.2769 26.5551 54.9385 29.9282 54.9385C33.3013 54.9385 36.5812 54.2769 39.6561 52.9724C42.6379 51.7145 45.3028 49.9068 47.6043 47.6146C49.8965 45.3224 51.7042 42.6481 52.9621 39.6664C54.2667 36.5822 54.9282 33.3116 54.9282 29.9385C54.9282 26.5654 54.2667 23.2855 52.9621 20.2106C51.7042 17.2288 49.8965 14.5639 47.6043 12.2624C45.3121 9.96084 42.6379 8.16248 39.6561 6.90456C36.5812 5.60005 33.3013 4.93848 29.9282 4.93848Z" fill="#F9DCA0"/>
<path opacity="0.3" d="M29.928 43.4121C18.8583 43.4121 9.50309 36.0975 6.42818 26.0342C6.22318 27.3014 6.10205 28.6059 6.10205 29.9384C6.10205 43.0953 16.7711 53.7643 29.928 53.7643C43.0849 53.7643 53.7539 43.0953 53.7539 29.9384C53.7539 28.6059 53.6421 27.3107 53.4278 26.0342C50.3529 36.0975 40.9977 43.4121 29.928 43.4121Z" fill="#F9DCA0"/>
<path d="M29.9282 12.3369C20.2096 12.3369 12.3267 20.2199 12.3267 29.9385C12.3267 39.6571 20.2096 47.54 29.9282 47.54C39.6468 47.54 47.5298 39.6571 47.5298 29.9385C47.5298 20.2199 39.6561 12.3369 29.9282 12.3369ZM35.3606 21.5058L39.4046 20.4715L38.3703 24.5154C38.0907 25.6056 37.103 26.3697 35.9756 26.3697C34.6152 26.3697 33.5063 25.2609 33.5063 23.9005C33.5063 22.773 34.2704 21.7853 35.3606 21.5058ZM27.8037 20.1453L29.9282 16.5579L32.0527 20.1453C32.6304 21.1144 32.472 22.3537 31.6707 23.1457C30.7109 24.1055 29.1455 24.1055 28.1765 23.1457C27.3844 22.3444 27.2353 21.1144 27.8037 20.1453ZM24.5052 21.5058C25.5954 21.7853 26.3595 22.773 26.3595 23.9005C26.3595 25.2609 25.2506 26.3697 23.8902 26.3697C22.7627 26.3697 21.775 25.6056 21.4955 24.5154L20.4612 20.4715L24.5052 21.5058ZM16.5384 29.9385L20.1258 27.814C21.0948 27.2363 22.3341 27.3947 23.1261 28.196C24.0859 29.1558 24.0859 30.7212 23.1261 31.6902C22.3248 32.4916 21.0948 32.6407 20.1258 32.0723L16.5384 29.9385ZM24.5052 38.3712L20.4612 39.4055L21.4955 35.3615C21.775 34.2713 22.7627 33.5072 23.8902 33.5072C25.2506 33.5072 26.3595 34.6161 26.3595 35.9765C26.3595 37.104 25.5954 38.0917 24.5052 38.3712ZM32.0527 39.7409L29.9282 43.3283L27.8037 39.7409C27.226 38.7719 27.3844 37.5326 28.1858 36.7406C29.1455 35.7808 30.7109 35.7808 31.68 36.7406C32.472 37.5326 32.6304 38.7719 32.0527 39.7409ZM29.9282 34.234C27.5894 34.234 25.6886 32.3332 25.6886 29.9944C25.6886 27.6556 27.5894 25.7547 29.9282 25.7547C32.267 25.7547 34.1679 27.6556 34.1679 29.9944C34.1679 32.3332 32.2763 34.234 29.9282 34.234ZM35.3606 38.3712C34.2704 38.0917 33.5063 37.104 33.5063 35.9765C33.5063 34.6161 34.6152 33.5072 35.9756 33.5072C37.103 33.5072 38.0907 34.2713 38.3703 35.3615L39.4046 39.4055L35.3606 38.3712ZM39.7307 32.063C38.7616 32.6407 37.5223 32.4823 36.7303 31.6809C35.7706 30.7212 35.7706 29.1558 36.7303 28.1867C37.5317 27.3854 38.7616 27.2363 39.7307 27.8047L43.3181 29.9292L39.7307 32.063Z" fill="url(#paint1_linear_57_23426)"/>
<path opacity="0.5" d="M29.928 6.92341C42.9545 6.92341 53.5303 17.3781 53.7446 30.3487C53.7446 30.2089 53.7539 30.0785 53.7539 29.948C53.7539 16.7911 43.0849 6.12207 29.928 6.12207C16.7711 6.12207 6.10205 16.7911 6.10205 29.948C6.10205 30.0878 6.11137 30.2182 6.11137 30.3487C6.335 17.3688 16.9108 6.92341 29.928 6.92341Z" fill="white"/>
<path opacity="0.5" d="M29.928 52.3668C17.004 52.3668 6.4934 42.0799 6.12069 29.2397C6.11137 29.4727 6.10205 29.7056 6.10205 29.9386C6.10205 43.0955 16.7711 53.7645 29.928 53.7645C43.0849 53.7645 53.7539 43.0955 53.7539 29.9386C53.7539 29.7056 53.7446 29.4727 53.7353 29.2397C53.3719 42.0705 42.852 52.3668 29.928 52.3668Z" fill="#FFFEBE"/>
<g style="mix-blend-mode:soft-light">
<path d="M19.8864 19.8214C22.3863 17.3215 23.5486 14.4306 22.4824 13.3644C21.4162 12.2982 18.5254 13.4605 16.0255 15.9604C13.5256 18.4603 12.3633 21.3511 13.4295 22.4173C14.4957 23.4835 17.3866 22.3212 19.8864 19.8214Z" fill="white"/>
</g>
<g style="mix-blend-mode:soft-light">
<path d="M26.5573 13.5484C27.074 13.0317 27.074 12.1939 26.5573 11.6772C26.0406 11.1605 25.2028 11.1605 24.6861 11.6772C24.1694 12.1939 24.1694 13.0317 24.6861 13.5484C25.2028 14.0651 26.0406 14.0651 26.5573 13.5484Z" fill="white"/>
</g>
<g style="mix-blend-mode:soft-light">
<path d="M41.1857 44.5823C41.3546 43.8714 40.9152 43.1581 40.2043 42.9891C39.4933 42.8202 38.78 43.2596 38.6111 43.9705C38.4421 44.6815 38.8815 45.3948 39.5925 45.5637C40.3034 45.7327 41.0167 45.2933 41.1857 44.5823Z" fill="white"/>
</g>
<g style="mix-blend-mode:soft-light">
<path d="M42.8004 43.0598C43.2145 42.8893 43.4119 42.4155 43.2414 42.0015C43.071 41.5875 42.5972 41.3901 42.1832 41.5605C41.7692 41.731 41.5718 42.2048 41.7422 42.6188C41.9127 43.0328 42.3864 43.2302 42.8004 43.0598Z" fill="white"/>
</g>
<defs>
<linearGradient id="paint0_linear_57_23426" x1="29.9305" y1="53.7667" x2="29.9305" y2="6.11337" gradientUnits="userSpaceOnUse">
<stop stop-color="#F19920"/>
<stop offset="0.3613" stop-color="#F5A932"/>
<stop offset="1" stop-color="#FECC5C"/>
</linearGradient>
<linearGradient id="paint1_linear_57_23426" x1="21.1285" y1="45.1862" x2="38.733" y2="14.6943" gradientUnits="userSpaceOnUse">
<stop stop-color="#FFDF8B"/>
<stop offset="1" stop-color="#FFDF8B"/>
</linearGradient>
</defs>
</svg>
