<svg width="61" height="61" viewBox="0 0 61 61" fill="none" xmlns="http://www.w3.org/2000/svg">
<path d="M60.0779 30.1223L30.1274 0.176758L0.176959 30.1223L30.1274 60.0678L60.0779 30.1223Z" stroke="#B57D0B" stroke-width="0.25" stroke-miterlimit="10"/>
<path d="M58.6894 30.1222L30.1274 1.56494L1.56545 30.1222L30.1274 58.6794L58.6894 30.1222Z" stroke="#B57D0B" stroke-width="0.25" stroke-miterlimit="10"/>
<path d="M29.9378 53.753C43.0965 53.753 53.7637 43.0857 53.7637 29.927C53.7637 16.7683 43.0965 6.10107 29.9378 6.10107C16.7791 6.10107 6.11182 16.7683 6.11182 29.927C6.11182 43.0857 16.7791 53.753 29.9378 53.753Z" fill="url(#paint0_linear_57_23319)"/>
<path d="M29.938 6.10131C43.0949 6.10131 53.7639 16.7703 53.7639 29.9272C53.7639 43.0842 43.0949 53.7532 29.938 53.7532C16.7811 53.7532 6.11204 43.0935 6.11204 29.9272C6.11204 16.761 16.7811 6.10131 29.938 6.10131ZM29.938 4.92725C26.5649 4.92725 23.285 5.58882 20.2101 6.89333C17.2283 8.15125 14.5634 9.95893 12.2619 12.2511C9.96967 14.5433 8.16199 17.2176 6.90407 20.1993C5.59956 23.2836 4.93799 26.5542 4.93799 29.9272C4.93799 33.3003 5.59956 36.5802 6.90407 39.6552C8.16199 42.6369 9.96967 45.3018 12.2619 47.6034C14.5541 49.8956 17.2283 51.7032 20.2101 52.9612C23.2943 54.2657 26.5649 54.9272 29.938 54.9272C33.3111 54.9272 36.591 54.2657 39.6659 52.9612C42.6476 51.7032 45.3126 49.8956 47.6141 47.6034C49.9063 45.3111 51.714 42.6369 52.9719 39.6552C54.2764 36.5709 54.938 33.3003 54.938 29.9272C54.938 26.5542 54.2764 23.2836 52.9719 20.1993C51.714 17.2176 49.9063 14.5527 47.6141 12.2511C45.3219 9.95893 42.6476 8.15125 39.6659 6.89333C36.5817 5.58882 33.3111 4.92725 29.938 4.92725Z" fill="#F9DCA0"/>
<path opacity="0.3" d="M29.9378 43.4009C18.8681 43.4009 9.51286 36.0863 6.43794 26.0229C6.23295 27.2902 6.11182 28.5947 6.11182 29.9272C6.11182 43.0841 16.7808 53.7531 29.9378 53.7531C43.0947 53.7531 53.7637 43.0841 53.7637 29.9272C53.7637 28.5947 53.6519 27.2995 53.4376 26.0229C50.3627 36.0863 41.0075 43.4009 29.9378 43.4009Z" fill="#F9DCA0"/>
<path d="M29.938 12.3257C20.2194 12.3257 12.3364 20.2087 12.3364 29.9273C12.3364 39.6458 20.2194 47.5288 29.938 47.5288C39.6566 47.5288 47.5396 39.6458 47.5396 29.9273C47.5396 20.2087 39.6566 12.3257 29.938 12.3257ZM35.6685 38.9191C32.5004 42.0871 27.3662 42.0871 24.2075 38.9191C21.5425 36.2448 21.0673 32.089 23.0707 28.893L29.9473 17.8978L36.8239 28.893C38.8087 32.089 38.3428 36.2541 35.6685 38.9191Z" fill="url(#paint1_linear_57_23319)"/>
<path opacity="0.5" d="M29.9378 6.93074C42.9642 6.93074 53.5401 17.3855 53.7544 30.356C53.7544 30.2162 53.7637 30.0858 53.7637 29.9553C53.7637 16.7984 43.0947 6.12939 29.9378 6.12939C16.7808 6.12939 6.11182 16.7984 6.11182 29.9553C6.11182 30.0951 6.12114 30.2256 6.12114 30.356C6.33545 17.3855 16.9113 6.93074 29.9378 6.93074Z" fill="white"/>
<path opacity="0.5" d="M29.9378 52.3742C17.0138 52.3742 6.50317 42.0872 6.13045 29.2471C6.12114 29.48 6.11182 29.713 6.11182 29.9459C6.11182 43.1028 16.7808 53.7719 29.9378 53.7719C43.0947 53.7719 53.7637 43.1028 53.7637 29.9459C53.7637 29.713 53.7544 29.48 53.7451 29.2471C53.3724 42.0779 42.8617 52.3742 29.9378 52.3742Z" fill="#BEFFFC"/>
<g style="mix-blend-mode:soft-light">
<path d="M19.8947 19.8267C22.3946 17.3268 23.5569 14.436 22.4907 13.3698C21.4245 12.3036 18.5337 13.4659 16.0338 15.9657C13.5339 18.4656 12.3716 21.3565 13.4378 22.4227C14.504 23.4889 17.3949 22.3266 19.8947 19.8267Z" fill="white"/>
</g>
<g style="mix-blend-mode:soft-light">
<path d="M26.7402 13.3388C27.1325 12.7223 26.9508 11.9045 26.3344 11.5122C25.7179 11.1198 24.9001 11.3015 24.5078 11.918C24.1154 12.5344 24.2971 13.3522 24.9136 13.7446C25.53 14.1369 26.3478 13.9552 26.7402 13.3388Z" fill="white"/>
</g>
<g style="mix-blend-mode:soft-light">
<path d="M40.8361 45.2222C41.3528 44.7055 41.3528 43.8677 40.8361 43.351C40.3194 42.8343 39.4816 42.8343 38.9649 43.351C38.4482 43.8677 38.4482 44.7055 38.9649 45.2222C39.4816 45.7389 40.3194 45.7389 40.8361 45.2222Z" fill="white"/>
</g>
<g style="mix-blend-mode:soft-light">
<path d="M43.0649 42.896C43.3814 42.5794 43.3814 42.0661 43.0649 41.7495C42.7483 41.433 42.235 41.433 41.9184 41.7495C41.6019 42.0661 41.6019 42.5794 41.9184 42.896C42.235 43.2126 42.7483 43.2126 43.0649 42.896Z" fill="white"/>
</g>
<defs>
<linearGradient id="paint0_linear_57_23319" x1="29.9364" y1="53.7562" x2="29.9364" y2="6.10285" gradientUnits="userSpaceOnUse">
<stop stop-color="#0091B4"/>
<stop offset="0.1385" stop-color="#1299BB"/>
<stop offset="0.4178" stop-color="#43AECD"/>
<stop offset="0.809" stop-color="#8FD0E9"/>
<stop offset="1" stop-color="#B7E2F8"/>
</linearGradient>
<linearGradient id="paint1_linear_57_23319" x1="21.1344" y1="45.1757" x2="38.7389" y2="14.6838" gradientUnits="userSpaceOnUse">
<stop stop-color="#B0F6FF"/>
<stop offset="1" stop-color="#B0F6FF"/>
</linearGradient>
</defs>
</svg>
